SplineFontDB: 3.2
FontName: RisingSun-Bold
FullName: Rising Sun Bold
FamilyName: Rising Sun
Weight: Bold
Copyright: Copyright (c) 2012, The Raleway Project Authors (matt@pixelspread.com)
Version: 4.321
ItalicAngle: 0
UnderlinePosition: -125
UnderlineWidth: 50
Ascent: 800
Descent: 200
InvalidEm: 0
sfntRevision: 0x0004526e
LayerCount: 2
Layer: 0 1 "Back" 1
Layer: 1 1 "Fore" 0
XUID: [1021 158 994486733 9887915]
StyleMap: 0x0020
FSType: 0
OS2Version: 4
OS2_WeightWidthSlopeOnly: 0
OS2_UseTypoMetrics: 1
CreationTime: 1683072783
ModificationTime: 1710185576
PfmFamily: 81
TTFWeight: 700
TTFWidth: 5
LineGap: 21
VLineGap: 0
Panose: 0 0 0 0 0 0 0 0 0 0
OS2TypoAscent: 923
OS2TypoAOffset: 0
OS2TypoDescent: -213
OS2TypoDOffset: 0
OS2TypoLinegap: 21
OS2WinAscent: 944
OS2WinAOffset: 0
OS2WinDescent: 234
OS2WinDOffset: 0
HheadAscent: 923
HheadAOffset: 0
HheadDescent: -213
HheadDOffset: 0
OS2SubXSize: 650
OS2SubYSize: 600
OS2SubXOff: 0
OS2SubYOff: 75
OS2SupXSize: 650
OS2SupYSize: 600
OS2SupXOff: 0
OS2SupYOff: 350
OS2StrikeYSize: 50
OS2StrikeYPos: 300
OS2CapHeight: 710
OS2XHeight: 524
OS2Vendor: '    '
OS2CodePages: 2000019f.00000000
OS2UnicodeRanges: a00002ff.4000205b.00000000.00000000
Lookup: 1 0 0 "'aalt' Access All Alternates lookup 0" { "'aalt' Access All Alternates lookup 0 subtable"  } ['aalt' ('DFLT' <'dflt' > 'cyrl' <'BGR ' 'SRB ' 'dflt' > 'latn' <'AZE ' 'CAT ' 'CRT ' 'KAZ ' 'MOL ' 'ROM ' 'TAT ' 'TRK ' 'dflt' > ) ]
Lookup: 3 0 0 "'aalt' Access All Alternates lookup 1" { "'aalt' Access All Alternates lookup 1 subtable"  } ['aalt' ('DFLT' <'dflt' > 'cyrl' <'BGR ' 'SRB ' 'dflt' > 'latn' <'AZE ' 'CAT ' 'CRT ' 'KAZ ' 'MOL ' 'ROM ' 'TAT ' 'TRK ' 'dflt' > ) ]

StartChar: .notdef
Encoding: 65536 -1 0
Width: 608
GlyphClass: 1
Flags: W
LayerCount: 2
Fore
SplineSet
558 689 m 2,0,1
 558 699 558 699 553 704.5 c 128,-1,2
 548 710 548 710 540 710 c 2,3,-1
 69 710 l 2,4,5
 61 710 61 710 55.5 704 c 128,-1,6
 50 698 50 698 50 687 c 2,7,-1
 50 25 l 2,8,9
 50 12 50 12 55.5 6 c 128,-1,10
 61 0 61 0 77 0 c 2,11,-1
 525 0 l 2,12,13
 542 0 542 0 550 6.5 c 128,-1,14
 558 13 558 13 558 29 c 2,15,-1
 558 689 l 2,0,1
506 74 m 2,16,17
 506 61 506 61 499 55.5 c 128,-1,18
 492 50 492 50 478 50 c 2,19,-1
 125 50 l 2,20,21
 111 50 111 50 106.5 55 c 128,-1,22
 102 60 102 60 102 71 c 2,23,-1
 102 641 l 2,24,25
 102 650 102 650 106.5 655 c 128,-1,26
 111 660 111 660 118 660 c 2,27,-1
 491 660 l 2,28,29
 498 660 498 660 502 655 c 128,-1,30
 506 650 506 650 506 642 c 2,31,-1
 506 74 l 2,16,17
538 33 m 1,32,-1
 123 696 l 1,33,-1
 71 669 l 1,34,-1
 478 28 l 1,35,-1
 538 33 l 1,32,-1
EndSplineSet
EndChar

StartChar: exclam
Encoding: 33 33 4
Width: 322
GlyphClass: 1
Flags: W
LayerCount: 2
Fore
SplineSet
68 83 m 256,0,1
 68 64 68 64 75.5 47 c 128,-1,2
 83 30 83 30 96 17.5 c 128,-1,3
 109 5 109 5 125.5 -2.5 c 128,-1,4
 142 -10 142 -10 161 -10 c 256,5,6
 180 -10 180 -10 196.5 -2.5 c 128,-1,7
 213 5 213 5 226 17.5 c 128,-1,8
 239 30 239 30 246.5 47 c 128,-1,9
 254 64 254 64 254 83 c 256,10,11
 254 102 254 102 246.5 118.5 c 128,-1,12
 239 135 239 135 226 147.5 c 128,-1,13
 213 160 213 160 196.5 167.5 c 128,-1,14
 180 175 180 175 161 175 c 256,15,16
 142 175 142 175 125.5 167.5 c 128,-1,17
 109 160 109 160 96 147.5 c 128,-1,18
 83 135 83 135 75.5 118.5 c 128,-1,19
 68 102 68 102 68 83 c 256,0,1
206 276 m 1,20,-1
 236 530 l 1,21,-1
 236 717 l 1,22,-1
 86 717 l 1,23,-1
 86 530 l 1,24,-1
 116 276 l 1,25,-1
 206 276 l 1,20,-1
EndSplineSet
EndChar

StartChar: numbersign
Encoding: 35 35 6
Width: 731
GlyphClass: 1
Flags: W
LayerCount: 2
Fore
SplineSet
695 521 m 1,0,-1
 571 521 l 1,1,-1
 618 710 l 1,2,-1
 499 710 l 1,3,-1
 452 521 l 1,4,-1
 349 521 l 1,5,-1
 396 710 l 1,6,-1
 277 710 l 1,7,-1
 230 521 l 1,8,-1
 85 521 l 1,9,-1
 85 417 l 1,10,-1
 205 417 l 1,11,-1
 176 294 l 1,12,-1
 36 294 l 1,13,-1
 36 182 l 1,14,-1
 149 182 l 1,15,-1
 104 0 l 1,16,-1
 223 0 l 1,17,-1
 268 182 l 1,18,-1
 371 182 l 1,19,-1
 326 0 l 1,20,-1
 445 0 l 1,21,-1
 490 182 l 1,22,-1
 646 182 l 1,23,-1
 646 294 l 1,24,-1
 516 294 l 1,25,-1
 546 417 l 1,26,-1
 695 417 l 1,27,-1
 695 521 l 1,0,-1
294 294 m 1,28,-1
 324 417 l 1,29,-1
 427 417 l 1,30,-1
 398 294 l 1,31,-1
 294 294 l 1,28,-1
EndSplineSet
EndChar

StartChar: dollar
Encoding: 36 36 7
Width: 638
GlyphClass: 1
Flags: W
LayerCount: 2
Fore
SplineSet
289 -120 m 1,0,-1
 359 -120 l 1,1,-1
 359 72 l 1,2,-1
 289 73 l 1,3,-1
 289 -120 l 1,0,-1
348 88 m 1,4,-1
 348 628 l 1,5,-1
 299 617 l 1,6,-1
 299 90 l 1,7,-1
 348 88 l 1,4,-1
289 631 m 1,8,-1
 359 643 l 1,9,-1
 359 815 l 1,10,-1
 289 815 l 1,11,-1
 289 631 l 1,8,-1
576 637 m 1,12,13
 553 651 553 651 524.5 665.5 c 128,-1,14
 496 680 496 680 463.5 691 c 128,-1,15
 431 702 431 702 396 709 c 128,-1,16
 361 716 361 716 324 716 c 0,17,18
 270 716 270 716 222.5 701 c 128,-1,19
 175 686 175 686 139.5 657.5 c 128,-1,20
 104 629 104 629 83.5 586 c 128,-1,21
 63 543 63 543 63 488 c 0,22,23
 63 447 63 447 74.5 417 c 128,-1,24
 86 387 86 387 110.5 364.5 c 128,-1,25
 135 342 135 342 171.5 325 c 128,-1,26
 208 308 208 308 258 293 c 0,27,28
 297 282 297 282 329.5 272.5 c 128,-1,29
 362 263 362 263 385.5 252.5 c 128,-1,30
 409 242 409 242 422 227.5 c 128,-1,31
 435 213 435 213 435 192 c 0,32,33
 435 162 435 162 410.5 146 c 128,-1,34
 386 130 386 130 337 130 c 0,35,36
 296 130 296 130 256.5 140.5 c 128,-1,37
 217 151 217 151 184.5 165.5 c 128,-1,38
 152 180 152 180 129.5 194 c 128,-1,39
 107 208 107 208 101 215 c 1,40,-1
 33 82 l 1,41,42
 64 61 64 61 100 44 c 128,-1,43
 136 27 136 27 175 15.5 c 128,-1,44
 214 4 214 4 254 -2 c 128,-1,45
 294 -8 294 -8 334 -8 c 0,46,47
 386 -8 386 -8 433.5 3.5 c 128,-1,48
 481 15 481 15 518 40.5 c 128,-1,49
 555 66 555 66 577 107 c 128,-1,50
 599 148 599 148 599 207 c 0,51,52
 599 256 599 256 583.5 290 c 128,-1,53
 568 324 568 324 538.5 348 c 128,-1,54
 509 372 509 372 468 389 c 128,-1,55
 427 406 427 406 375 420 c 0,56,57
 337 430 337 430 308.5 438.5 c 128,-1,58
 280 447 280 447 260.5 456.5 c 128,-1,59
 241 466 241 466 231 479.5 c 128,-1,60
 221 493 221 493 221 512 c 0,61,62
 221 545 221 545 246 562.5 c 128,-1,63
 271 580 271 580 319 580 c 0,64,65
 351 580 351 580 383 571.5 c 128,-1,66
 415 563 415 563 441 551 c 128,-1,67
 467 539 467 539 485.5 528 c 128,-1,68
 504 517 504 517 509 511 c 1,69,-1
 576 637 l 1,12,13
EndSplineSet
EndChar

StartChar: percent
Encoding: 37 37 8
Width: 804
GlyphClass: 1
Flags: W
LayerCount: 2
Fore
SplineSet
203 414 m 256,0,1
 238 414 238 414 269 426 c 128,-1,2
 300 438 300 438 322.5 458.5 c 128,-1,3
 345 479 345 479 358 507 c 128,-1,4
 371 535 371 535 371 567 c 256,5,6
 371 599 371 599 358 627 c 128,-1,7
 345 655 345 655 322.5 675.5 c 128,-1,8
 300 696 300 696 269 708 c 128,-1,9
 238 720 238 720 203 720 c 256,10,11
 168 720 168 720 137.5 708 c 128,-1,12
 107 696 107 696 84 675.5 c 128,-1,13
 61 655 61 655 48 627 c 128,-1,14
 35 599 35 599 35 567 c 256,15,16
 35 535 35 535 48 506.5 c 128,-1,17
 61 478 61 478 84 458 c 128,-1,18
 107 438 107 438 137.5 426 c 128,-1,19
 168 414 168 414 203 414 c 256,0,1
203 487 m 256,20,21
 190 487 190 487 178 493 c 128,-1,22
 166 499 166 499 157.5 510 c 128,-1,23
 149 521 149 521 143.5 535.5 c 128,-1,24
 138 550 138 550 138 567 c 0,25,26
 138 583 138 583 143.5 597.5 c 128,-1,27
 149 612 149 612 157.5 623 c 128,-1,28
 166 634 166 634 178 640.5 c 128,-1,29
 190 647 190 647 203 647 c 256,30,31
 216 647 216 647 228 640.5 c 128,-1,32
 240 634 240 634 248.5 623 c 128,-1,33
 257 612 257 612 262.5 597.5 c 128,-1,34
 268 583 268 583 268 567 c 256,35,36
 268 551 268 551 262.5 536 c 128,-1,37
 257 521 257 521 248.5 510.5 c 128,-1,38
 240 500 240 500 228 493.5 c 128,-1,39
 216 487 216 487 203 487 c 256,20,21
601 -10 m 256,40,41
 636 -10 636 -10 667 2 c 128,-1,42
 698 14 698 14 720.5 34.5 c 128,-1,43
 743 55 743 55 756 83 c 128,-1,44
 769 111 769 111 769 143 c 256,45,46
 769 175 769 175 756 203 c 128,-1,47
 743 231 743 231 720.5 251.5 c 128,-1,48
 698 272 698 272 667 284 c 128,-1,49
 636 296 636 296 601 296 c 256,50,51
 566 296 566 296 535.5 284 c 128,-1,52
 505 272 505 272 482 252 c 128,-1,53
 459 232 459 232 445.5 203.5 c 128,-1,54
 432 175 432 175 432 143 c 256,55,56
 432 111 432 111 445.5 83 c 128,-1,57
 459 55 459 55 482 34.5 c 128,-1,58
 505 14 505 14 535.5 2 c 128,-1,59
 566 -10 566 -10 601 -10 c 256,40,41
601 63 m 256,60,61
 588 63 588 63 576 69.5 c 128,-1,62
 564 76 564 76 555 86.5 c 128,-1,63
 546 97 546 97 541 112 c 128,-1,64
 536 127 536 127 536 143 c 0,65,66
 536 160 536 160 541 174.5 c 128,-1,67
 546 189 546 189 555 199.5 c 128,-1,68
 564 210 564 210 575.5 216.5 c 128,-1,69
 587 223 587 223 601 223 c 0,70,71
 614 223 614 223 625.5 217 c 128,-1,72
 637 211 637 211 646 200 c 128,-1,73
 655 189 655 189 660.5 174.5 c 128,-1,74
 666 160 666 160 666 143 c 0,75,76
 666 127 666 127 660.5 112.5 c 128,-1,77
 655 98 655 98 646.5 87 c 128,-1,78
 638 76 638 76 626 69.5 c 128,-1,79
 614 63 614 63 601 63 c 256,60,61
165 -8 m 1,80,-1
 432 339 l 1,81,-1
 705 659 l 1,82,-1
 638 719 l 1,83,-1
 380 378 l 1,84,-1
 99 52 l 1,85,-1
 165 -8 l 1,80,-1
EndSplineSet
EndChar

StartChar: ampersand
Encoding: 38 38 9
Width: 722
GlyphClass: 1
Flags: W
LayerCount: 2
Fore
SplineSet
723 0 m 1,0,-1
 316 429 l 2,1,2
 288 458 288 458 269.5 477 c 128,-1,3
 251 496 251 496 240 508.5 c 128,-1,4
 229 521 229 521 224.5 530.5 c 128,-1,5
 220 540 220 540 220 551 c 0,6,7
 220 563 220 563 224.5 573.5 c 128,-1,8
 229 584 229 584 237 592 c 128,-1,9
 245 600 245 600 256.5 604.5 c 128,-1,10
 268 609 268 609 283 609 c 0,11,12
 308 609 308 609 324 595 c 128,-1,13
 340 581 340 581 340 556 c 0,14,15
 340 540 340 540 331.5 526.5 c 128,-1,16
 323 513 323 513 307 499.5 c 128,-1,17
 291 486 291 486 266.5 471 c 128,-1,18
 242 456 242 456 210 435 c 0,19,20
 180 416 180 416 149.5 393.5 c 128,-1,21
 119 371 119 371 94.5 343.5 c 128,-1,22
 70 316 70 316 54.5 281.5 c 128,-1,23
 39 247 39 247 39 205 c 256,24,25
 39 163 39 163 55.5 124.5 c 128,-1,26
 72 86 72 86 103.5 56 c 128,-1,27
 135 26 135 26 179.5 8 c 128,-1,28
 224 -10 224 -10 281 -10 c 0,29,30
 348 -10 348 -10 411.5 16.5 c 128,-1,31
 475 43 475 43 524.5 94.5 c 128,-1,32
 574 146 574 146 604.5 222 c 128,-1,33
 635 298 635 298 636 396 c 1,34,-1
 515 396 l 1,35,36
 515 329 515 329 496 275.5 c 128,-1,37
 477 222 477 222 446.5 184.5 c 128,-1,38
 416 147 416 147 376.5 127 c 128,-1,39
 337 107 337 107 297 107 c 0,40,41
 270 107 270 107 249 115.5 c 128,-1,42
 228 124 228 124 213 137.5 c 128,-1,43
 198 151 198 151 190 168.5 c 128,-1,44
 182 186 182 186 182 204 c 0,45,46
 182 225 182 225 191.5 242 c 128,-1,47
 201 259 201 259 217.5 275 c 128,-1,48
 234 291 234 291 256.5 307 c 128,-1,49
 279 323 279 323 306 339 c 0,50,51
 342 360 342 360 373 384 c 128,-1,52
 404 408 404 408 427.5 434.5 c 128,-1,53
 451 461 451 461 464 492 c 128,-1,54
 477 523 477 523 477 558 c 0,55,56
 477 599 477 599 461 629.5 c 128,-1,57
 445 660 445 660 418 680 c 128,-1,58
 391 700 391 700 355.5 709.5 c 128,-1,59
 320 719 320 719 283 719 c 0,60,61
 240 719 240 719 204 706.5 c 128,-1,62
 168 694 168 694 141.5 672 c 128,-1,63
 115 650 115 650 100 618 c 128,-1,64
 85 586 85 586 85 545 c 0,65,66
 85 522 85 522 91 501.5 c 128,-1,67
 97 481 97 481 110 458.5 c 128,-1,68
 123 436 123 436 145 410 c 128,-1,69
 167 384 167 384 199 350 c 2,70,-1
 528 0 l 1,71,-1
 723 0 l 1,0,-1
EndSplineSet
EndChar

StartChar: quotesingle
Encoding: 39 39 10
Width: 244
GlyphClass: 1
Flags: W
LayerCount: 2
Fore
SplineSet
112 501 m 1,0,-1
 218 725 l 1,1,-1
 90 725 l 1,2,-1
 46 501 l 1,3,-1
 112 501 l 1,0,-1
EndSplineSet
EndChar

StartChar: parenleft
Encoding: 40 40 11
Width: 318
GlyphClass: 1
Flags: W
LayerCount: 2
Fore
SplineSet
32 347 m 256,0,1
 32 296 32 296 44 243.5 c 128,-1,2
 56 191 56 191 76.5 140 c 128,-1,3
 97 89 97 89 125 39.5 c 128,-1,4
 153 -10 153 -10 184 -56 c 1,5,-1
 293 -3 l 1,6,7
 266 44 266 44 243.5 89 c 128,-1,8
 221 134 221 134 205 177 c 128,-1,9
 189 220 189 220 180 262 c 128,-1,10
 171 304 171 304 171 344 c 0,11,12
 171 396 171 396 185 452 c 128,-1,13
 199 508 199 508 219 558.5 c 128,-1,14
 239 609 239 609 260.5 650 c 128,-1,15
 282 691 282 691 296 714 c 1,16,-1
 182 761 l 1,17,18
 150 707 150 707 123 655 c 128,-1,19
 96 603 96 603 75.5 551.5 c 128,-1,20
 55 500 55 500 43.5 449 c 128,-1,21
 32 398 32 398 32 347 c 256,0,1
EndSplineSet
EndChar

StartChar: parenright
Encoding: 41 41 12
Width: 318
GlyphClass: 1
Flags: W
LayerCount: 2
Fore
SplineSet
286 347 m 256,0,1
 286 398 286 398 274.5 449 c 128,-1,2
 263 500 263 500 242.5 551.5 c 128,-1,3
 222 603 222 603 194.5 655 c 128,-1,4
 167 707 167 707 136 761 c 1,5,-1
 21 714 l 1,6,7
 36 691 36 691 57.5 650 c 128,-1,8
 79 609 79 609 99 558.5 c 128,-1,9
 119 508 119 508 133 452 c 128,-1,10
 147 396 147 396 147 344 c 0,11,12
 147 304 147 304 138 262 c 128,-1,13
 129 220 129 220 113 177 c 128,-1,14
 97 134 97 134 74.5 89 c 128,-1,15
 52 44 52 44 25 -3 c 1,16,-1
 134 -56 l 1,17,18
 165 -10 165 -10 192.5 39.5 c 128,-1,19
 220 89 220 89 241 140 c 128,-1,20
 262 191 262 191 274 243.5 c 128,-1,21
 286 296 286 296 286 347 c 256,0,1
EndSplineSet
EndChar

StartChar: asterisk
Encoding: 42 42 13
Width: 350
GlyphClass: 1
Flags: W
LayerCount: 2
Fore
SplineSet
129 478 m 1,0,-1
 175 554 l 1,1,-1
 221 478 l 1,2,-1
 278 515 l 1,3,-1
 230 587 l 1,4,-1
 301 609 l 1,5,-1
 282 672 l 1,6,-1
 209 639 l 1,7,-1
 214 718 l 1,8,-1
 136 718 l 1,9,-1
 141 639 l 1,10,-1
 68 672 l 1,11,-1
 49 609 l 1,12,-1
 120 587 l 1,13,-1
 73 515 l 1,14,-1
 129 478 l 1,0,-1
EndSplineSet
EndChar

StartChar: plus
Encoding: 43 43 14
Width: 423
GlyphClass: 1
Flags: W
LayerCount: 2
Fore
SplineSet
279 414 m 1,0,-1
 279 523 l 1,1,-1
 145 523 l 1,2,-1
 145 414 l 1,3,-1
 46 414 l 1,4,-1
 46 296 l 1,5,-1
 145 296 l 1,6,-1
 145 187 l 1,7,-1
 279 187 l 1,8,-1
 279 296 l 1,9,-1
 377 296 l 1,10,-1
 377 414 l 1,11,-1
 279 414 l 1,0,-1
EndSplineSet
EndChar

StartChar: comma
Encoding: 44 44 15
Width: 239
GlyphClass: 1
Flags: W
LayerCount: 2
Fore
SplineSet
82 -160 m 1,0,-1
 195 100 l 1,1,-1
 67 100 l 1,2,-1
 15 -160 l 1,3,-1
 82 -160 l 1,0,-1
EndSplineSet
EndChar

StartChar: hyphen
Encoding: 45 45 16
Width: 417
GlyphClass: 1
Flags: W
LayerCount: 2
Fore
SplineSet
361 208 m 1,0,-1
 361 342 l 1,1,-1
 56 342 l 1,2,-1
 56 208 l 1,3,-1
 361 208 l 1,0,-1
EndSplineSet
EndChar

StartChar: period
Encoding: 46 46 17
Width: 233
GlyphClass: 1
Flags: W
LayerCount: 2
Fore
SplineSet
37 69 m 0,0,1
 37 36 37 36 60.5 13 c 128,-1,2
 84 -10 84 -10 116 -10 c 0,3,4
 149 -10 149 -10 172 13 c 128,-1,5
 195 36 195 36 195 69 c 0,6,7
 195 101 195 101 172 124.5 c 128,-1,8
 149 148 149 148 116 148 c 0,9,10
 84 148 84 148 60.5 124.5 c 128,-1,11
 37 101 37 101 37 69 c 0,0,1
EndSplineSet
EndChar

StartChar: slash
Encoding: 47 47 18
Width: 719
GlyphClass: 1
Flags: W
LayerCount: 2
Fore
SplineSet
527 710 m 1,0,-1
 26 0 l 1,1,-1
 191 0 l 1,2,-1
 693 710 l 1,3,-1
 527 710 l 1,0,-1
EndSplineSet
Substitution2: "'frac' Diagonal Fractions lookup 21 subtable" fraction
Substitution2: "'aalt' Access All Alternates lookup 0 subtable" fraction
EndChar

StartChar: zero
Encoding: 48 48 19
Width: 704
GlyphClass: 1
Flags: W
LayerCount: 2
Fore
SplineSet
352 -10 m 0,0,1
 425 -10 425 -10 482.5 22 c 128,-1,2
 540 54 540 54 580.5 105 c 128,-1,3
 621 156 621 156 643 220.5 c 128,-1,4
 665 285 665 285 665 350 c 0,5,6
 665 408 665 408 645 471.5 c 128,-1,7
 625 535 625 535 585.5 588 c 128,-1,8
 546 641 546 641 488 675.5 c 128,-1,9
 430 710 430 710 352 710 c 0,10,11
 280 710 280 710 222 678 c 128,-1,12
 164 646 164 646 123.5 594.5 c 128,-1,13
 83 543 83 543 61.5 478.5 c 128,-1,14
 40 414 40 414 40 350 c 0,15,16
 40 290 40 290 60 226.5 c 128,-1,17
 80 163 80 163 119 110.5 c 128,-1,18
 158 58 158 58 217 24 c 128,-1,19
 276 -10 276 -10 352 -10 c 0,0,1
195 350 m 0,20,21
 195 386 195 386 204 425 c 128,-1,22
 213 464 213 464 232 497.5 c 128,-1,23
 251 531 251 531 281 552.5 c 128,-1,24
 311 574 311 574 352 574 c 0,25,26
 392 574 392 574 421.5 553.5 c 128,-1,27
 451 533 451 533 470.5 501 c 128,-1,28
 490 469 490 469 499.5 429 c 128,-1,29
 509 389 509 389 509 350 c 0,30,31
 509 314 509 314 500.5 275 c 128,-1,32
 492 236 492 236 473 202.5 c 128,-1,33
 454 169 454 169 424 147.5 c 128,-1,34
 394 126 394 126 352 126 c 0,35,36
 312 126 312 126 282.5 146.5 c 128,-1,37
 253 167 253 167 234 199 c 128,-1,38
 215 231 215 231 205.5 271 c 128,-1,39
 196 311 196 311 195 350 c 0,20,21
EndSplineSet
Substitution2: "'tnum' Tabular Numbers lookup 41 subtable" zero.tnum
Substitution2: "'frac' Diagonal Fractions lookup 22 subtable" zero.numr
Substitution2: "'dnom' Denominators lookup 20 subtable" zero.dnom
Substitution2: "'numr' Numerators lookup 19 subtable" zero.numr
Substitution2: "'sups' Superscript lookup 18 subtable" uni2070
Substitution2: "'sinf' Scientific Inferiors lookup 17 subtable" zero.subs
Substitution2: "'subs' Subscript lookup 16 subtable" uni2080
AlternateSubs2: "'aalt' Access All Alternates lookup 1 subtable" uni2080 zero.subs uni2070 zero.numr zero.dnom
EndChar

StartChar: one
Encoding: 49 49 20
Width: 450
GlyphClass: 1
Flags: W
LayerCount: 2
Fore
SplineSet
357 716 m 1,0,-1
 205 716 l 2,1,2
 204 715 204 715 188.5 699.5 c 128,-1,3
 173 684 173 684 149.5 666.5 c 128,-1,4
 126 649 126 649 97.5 634.5 c 128,-1,5
 69 620 69 620 42 620 c 1,6,-1
 42 483 l 1,7,8
 62 483 62 483 87.5 492 c 128,-1,9
 113 501 113 501 136 514.5 c 128,-1,10
 159 528 159 528 178 542.5 c 128,-1,11
 197 557 197 557 205 569 c 1,12,-1
 205 0 l 1,13,-1
 357 0 l 1,14,-1
 357 716 l 1,0,-1
EndSplineSet
Substitution2: "'tnum' Tabular Numbers lookup 41 subtable" one.tnum
Substitution2: "'frac' Diagonal Fractions lookup 22 subtable" one.numr
Substitution2: "'dnom' Denominators lookup 20 subtable" one.dnom
Substitution2: "'numr' Numerators lookup 19 subtable" one.numr
Substitution2: "'sups' Superscript lookup 18 subtable" onesuperior
Substitution2: "'sinf' Scientific Inferiors lookup 17 subtable" one.subs
Substitution2: "'subs' Subscript lookup 16 subtable" uni2081
AlternateSubs2: "'aalt' Access All Alternates lookup 1 subtable" uni2081 one.subs onesuperior one.numr one.dnom
EndChar

StartChar: two
Encoding: 50 50 21
Width: 615
GlyphClass: 1
Flags: W
LayerCount: 2
Fore
SplineSet
564 0 m 1,0,-1
 564 134 l 1,1,-1
 223 134 l 1,2,3
 232 151 232 151 242 166 c 128,-1,4
 252 181 252 181 271 197.5 c 128,-1,5
 290 214 290 214 320 234 c 128,-1,6
 350 254 350 254 398 280 c 0,7,8
 431 299 431 299 460.5 320.5 c 128,-1,9
 490 342 490 342 513 369 c 128,-1,10
 536 396 536 396 549.5 429.5 c 128,-1,11
 563 463 563 463 563 506 c 0,12,13
 563 553 563 553 547 592 c 128,-1,14
 531 631 531 631 500 659 c 128,-1,15
 469 687 469 687 424 702.5 c 128,-1,16
 379 718 379 718 320 718 c 0,17,18
 268 718 268 718 224 707 c 128,-1,19
 180 696 180 696 144.5 678 c 128,-1,20
 109 660 109 660 83 640 c 128,-1,21
 57 620 57 620 42 602 c 1,22,-1
 135 503 l 1,23,24
 148 518 148 518 166 532 c 128,-1,25
 184 546 184 546 205 558 c 128,-1,26
 226 570 226 570 250.5 577.5 c 128,-1,27
 275 585 275 585 300 585 c 0,28,29
 322 585 322 585 339 579 c 128,-1,30
 356 573 356 573 368 562 c 128,-1,31
 380 551 380 551 387 534.5 c 128,-1,32
 394 518 394 518 394 498 c 0,33,34
 394 461 394 461 373.5 434.5 c 128,-1,35
 353 408 353 408 322.5 386.5 c 128,-1,36
 292 365 292 365 255 347 c 128,-1,37
 218 329 218 329 184 309 c 0,38,39
 143 283 143 283 115 254.5 c 128,-1,40
 87 226 87 226 70.5 190 c 128,-1,41
 54 154 54 154 47 108 c 128,-1,42
 40 62 40 62 40 0 c 1,43,-1
 564 0 l 1,0,-1
EndSplineSet
Substitution2: "'tnum' Tabular Numbers lookup 41 subtable" two.tnum
Substitution2: "'frac' Diagonal Fractions lookup 22 subtable" two.numr
Substitution2: "'dnom' Denominators lookup 20 subtable" two.dnom
Substitution2: "'numr' Numerators lookup 19 subtable" two.numr
Substitution2: "'sups' Superscript lookup 18 subtable" twosuperior
Substitution2: "'sinf' Scientific Inferiors lookup 17 subtable" two.subs
Substitution2: "'subs' Subscript lookup 16 subtable" uni2082
AlternateSubs2: "'aalt' Access All Alternates lookup 1 subtable" uni2082 two.subs twosuperior two.numr two.dnom
EndChar

StartChar: three
Encoding: 51 51 22
Width: 586
GlyphClass: 1
Flags: W
LayerCount: 2
Fore
SplineSet
267 -7 m 0,0,1
 326 -7 326 -7 376.5 7 c 128,-1,2
 427 21 427 21 463.5 46.5 c 128,-1,3
 500 72 500 72 521 109.5 c 128,-1,4
 542 147 542 147 542 194 c 0,5,6
 542 228 542 228 531 258 c 128,-1,7
 520 288 520 288 501 312 c 128,-1,8
 482 336 482 336 455 352.5 c 128,-1,9
 428 369 428 369 396 374 c 1,10,11
 426 380 426 380 450 395 c 128,-1,12
 474 410 474 410 492 431 c 128,-1,13
 510 452 510 452 519 478 c 128,-1,14
 528 504 528 504 528 534 c 0,15,16
 528 575 528 575 510 609 c 128,-1,17
 492 643 492 643 460 667 c 128,-1,18
 428 691 428 691 383 704.5 c 128,-1,19
 338 718 338 718 284 718 c 0,20,21
 246 718 246 718 208.5 711.5 c 128,-1,22
 171 705 171 705 138 692 c 128,-1,23
 105 679 105 679 79 660.5 c 128,-1,24
 53 642 53 642 36 620 c 1,25,-1
 131 511 l 1,26,27
 152 547 152 547 188 569 c 128,-1,28
 224 591 224 591 271 591 c 0,29,30
 292 591 292 591 310 585.5 c 128,-1,31
 328 580 328 580 341 569.5 c 128,-1,32
 354 559 354 559 361.5 544.5 c 128,-1,33
 369 530 369 530 369 511 c 0,34,35
 369 468 369 468 329.5 445.5 c 128,-1,36
 290 423 290 423 224 423 c 2,37,-1
 190 423 l 1,38,-1
 190 313 l 1,39,-1
 222 313 l 2,40,41
 263 313 263 313 293.5 307.5 c 128,-1,42
 324 302 324 302 345 290 c 128,-1,43
 366 278 366 278 376.5 260.5 c 128,-1,44
 387 243 387 243 387 219 c 0,45,46
 387 198 387 198 378.5 181.5 c 128,-1,47
 370 165 370 165 353.5 153.5 c 128,-1,48
 337 142 337 142 313.5 136 c 128,-1,49
 290 130 290 130 261 130 c 0,50,51
 236 130 236 130 213.5 134 c 128,-1,52
 191 138 191 138 172.5 145.5 c 128,-1,53
 154 153 154 153 137.5 165 c 128,-1,54
 121 177 121 177 108 191 c 1,55,-1
 26 85 l 1,56,57
 47 63 47 63 73 46 c 128,-1,58
 99 29 99 29 129 17 c 128,-1,59
 159 5 159 5 194 -1 c 128,-1,60
 229 -7 229 -7 267 -7 c 0,0,1
EndSplineSet
Substitution2: "'tnum' Tabular Numbers lookup 41 subtable" three.tnum
Substitution2: "'frac' Diagonal Fractions lookup 22 subtable" three.numr
Substitution2: "'dnom' Denominators lookup 20 subtable" three.dnom
Substitution2: "'numr' Numerators lookup 19 subtable" three.numr
Substitution2: "'sups' Superscript lookup 18 subtable" threesuperior
Substitution2: "'sinf' Scientific Inferiors lookup 17 subtable" three.subs
Substitution2: "'subs' Subscript lookup 16 subtable" uni2083
AlternateSubs2: "'aalt' Access All Alternates lookup 1 subtable" uni2083 three.subs threesuperior three.numr three.dnom
EndChar

StartChar: four
Encoding: 52 52 23
Width: 589
GlyphClass: 1
Flags: W
LayerCount: 2
Fore
SplineSet
463 1 m 1,0,-1
 463 155 l 1,1,-1
 551 155 l 1,2,-1
 551 289 l 1,3,-1
 463 289 l 1,4,-1
 463 711 l 1,5,-1
 360 711 l 1,6,-1
 26 288 l 1,7,-1
 26 155 l 1,8,-1
 314 155 l 1,9,-1
 314 1 l 1,10,-1
 463 1 l 1,0,-1
330 486 m 1,11,-1
 330 289 l 1,12,-1
 175 289 l 1,13,-1
 330 486 l 1,11,-1
EndSplineSet
Substitution2: "'tnum' Tabular Numbers lookup 41 subtable" four.tnum
Substitution2: "'frac' Diagonal Fractions lookup 22 subtable" four.numr
Substitution2: "'dnom' Denominators lookup 20 subtable" four.dnom
Substitution2: "'numr' Numerators lookup 19 subtable" four.numr
Substitution2: "'sups' Superscript lookup 18 subtable" uni2074
Substitution2: "'sinf' Scientific Inferiors lookup 17 subtable" four.subs
Substitution2: "'subs' Subscript lookup 16 subtable" uni2084
AlternateSubs2: "'aalt' Access All Alternates lookup 1 subtable" uni2084 four.subs uni2074 four.numr four.dnom
EndChar

StartChar: five
Encoding: 53 53 24
Width: 572
GlyphClass: 1
Flags: W
LayerCount: 2
Fore
SplineSet
269 -9 m 0,0,1
 327 -9 327 -9 376 8.5 c 128,-1,2
 425 26 425 26 460 57.5 c 128,-1,3
 495 89 495 89 515 133.5 c 128,-1,4
 535 178 535 178 535 232 c 0,5,6
 535 282 535 282 517 324.5 c 128,-1,7
 499 367 499 367 468 397 c 128,-1,8
 437 427 437 427 394 444 c 128,-1,9
 351 461 351 461 300 461 c 0,10,11
 269 461 269 461 249.5 454 c 128,-1,12
 230 447 230 447 221 438 c 1,13,-1
 245 574 l 1,14,-1
 488 574 l 1,15,-1
 488 711 l 1,16,-1
 136 711 l 1,17,-1
 54 283 l 1,18,-1
 184 283 l 1,19,20
 198 307 198 307 224 320 c 128,-1,21
 250 333 250 333 279 333 c 0,22,23
 301 333 301 333 320 325.5 c 128,-1,24
 339 318 339 318 352.5 304 c 128,-1,25
 366 290 366 290 374 271 c 128,-1,26
 382 252 382 252 382 229 c 0,27,28
 382 205 382 205 374 185 c 128,-1,29
 366 165 366 165 351 151 c 128,-1,30
 336 137 336 137 315.5 129.5 c 128,-1,31
 295 122 295 122 270 122 c 0,32,33
 228 122 228 122 188.5 143.5 c 128,-1,34
 149 165 149 165 120 202 c 1,35,-1
 36 111 l 1,36,37
 69 54 69 54 130.5 22.5 c 128,-1,38
 192 -9 192 -9 269 -9 c 0,0,1
EndSplineSet
Substitution2: "'tnum' Tabular Numbers lookup 41 subtable" five.tnum
Substitution2: "'frac' Diagonal Fractions lookup 22 subtable" five.numr
Substitution2: "'dnom' Denominators lookup 20 subtable" five.dnom
Substitution2: "'numr' Numerators lookup 19 subtable" five.numr
Substitution2: "'sups' Superscript lookup 18 subtable" uni2075
Substitution2: "'sinf' Scientific Inferiors lookup 17 subtable" five.subs
Substitution2: "'subs' Subscript lookup 16 subtable" uni2085
AlternateSubs2: "'aalt' Access All Alternates lookup 1 subtable" uni2085 five.subs uni2075 five.numr five.dnom
EndChar

StartChar: six
Encoding: 54 54 25
Width: 608
GlyphClass: 1
Flags: W
LayerCount: 2
Fore
SplineSet
568 238 m 0,0,1
 568 186 568 186 548 141 c 128,-1,2
 528 96 528 96 493 62.5 c 128,-1,3
 458 29 458 29 410.5 9.5 c 128,-1,4
 363 -10 363 -10 307 -10 c 0,5,6
 246 -10 246 -10 197 12.5 c 128,-1,7
 148 35 148 35 114 78 c 128,-1,8
 80 121 80 121 62 182.5 c 128,-1,9
 44 244 44 244 44 322 c 0,10,11
 44 417 44 417 63 490 c 128,-1,12
 82 563 82 563 118.5 613.5 c 128,-1,13
 155 664 155 664 206.5 690 c 128,-1,14
 258 716 258 716 322 716 c 0,15,16
 388 716 388 716 444.5 688 c 128,-1,17
 501 660 501 660 543 608 c 1,18,-1
 458 513 l 1,19,20
 434 548 434 548 397.5 567 c 128,-1,21
 361 586 361 586 320 586 c 0,22,23
 289 586 289 586 264 574.5 c 128,-1,24
 239 563 239 563 221 539.5 c 128,-1,25
 203 516 203 516 193 483 c 128,-1,26
 183 450 183 450 182 407 c 1,27,28
 192 423 192 423 206.5 435 c 128,-1,29
 221 447 221 447 238.5 456 c 128,-1,30
 256 465 256 465 276.5 469 c 128,-1,31
 297 473 297 473 320 473 c 0,32,33
 373 473 373 473 418 455.5 c 128,-1,34
 463 438 463 438 496.5 406 c 128,-1,35
 530 374 530 374 549 331 c 128,-1,36
 568 288 568 288 568 238 c 0,0,1
307 116 m 256,37,38
 331 116 331 116 352.5 126 c 128,-1,39
 374 136 374 136 390.5 152.5 c 128,-1,40
 407 169 407 169 416.5 191 c 128,-1,41
 426 213 426 213 426 238 c 256,42,43
 426 263 426 263 416.5 284 c 128,-1,44
 407 305 407 305 391 321 c 128,-1,45
 375 337 375 337 353.5 346.5 c 128,-1,46
 332 356 332 356 307 356 c 256,47,48
 282 356 282 356 260.5 346.5 c 128,-1,49
 239 337 239 337 223 321 c 128,-1,50
 207 305 207 305 198 284 c 128,-1,51
 189 263 189 263 189 238 c 0,52,53
 189 214 189 214 198.5 191.5 c 128,-1,54
 208 169 208 169 224 152.5 c 128,-1,55
 240 136 240 136 261.5 126 c 128,-1,56
 283 116 283 116 307 116 c 256,37,38
EndSplineSet
Substitution2: "'tnum' Tabular Numbers lookup 41 subtable" six.tnum
Substitution2: "'frac' Diagonal Fractions lookup 22 subtable" six.numr
Substitution2: "'dnom' Denominators lookup 20 subtable" six.dnom
Substitution2: "'numr' Numerators lookup 19 subtable" six.numr
Substitution2: "'sups' Superscript lookup 18 subtable" uni2076
Substitution2: "'sinf' Scientific Inferiors lookup 17 subtable" six.subs
Substitution2: "'subs' Subscript lookup 16 subtable" uni2086
AlternateSubs2: "'aalt' Access All Alternates lookup 1 subtable" uni2086 six.subs uni2076 six.numr six.dnom
EndChar

StartChar: seven
Encoding: 55 55 26
Width: 572
GlyphClass: 1
Flags: W
LayerCount: 2
Fore
SplineSet
58 1 m 1,0,-1
 227 1 l 1,1,-1
 578 711 l 1,2,-1
 34 711 l 1,3,-1
 34 574 l 1,4,-1
 343 574 l 1,5,-1
 58 1 l 1,0,-1
EndSplineSet
Substitution2: "'tnum' Tabular Numbers lookup 41 subtable" seven.tnum
Substitution2: "'frac' Diagonal Fractions lookup 22 subtable" seven.numr
Substitution2: "'dnom' Denominators lookup 20 subtable" seven.dnom
Substitution2: "'numr' Numerators lookup 19 subtable" seven.numr
Substitution2: "'sups' Superscript lookup 18 subtable" uni2077
Substitution2: "'sinf' Scientific Inferiors lookup 17 subtable" seven.subs
Substitution2: "'subs' Subscript lookup 16 subtable" uni2087
AlternateSubs2: "'aalt' Access All Alternates lookup 1 subtable" uni2087 seven.subs uni2077 seven.numr seven.dnom
EndChar

StartChar: eight
Encoding: 56 56 27
Width: 606
GlyphClass: 1
Flags: W
LayerCount: 2
Fore
SplineSet
563 213 m 0,0,1
 563 243 563 243 554 268.5 c 128,-1,2
 545 294 545 294 530.5 315 c 128,-1,3
 516 336 516 336 497 352.5 c 128,-1,4
 478 369 478 369 458 379 c 1,5,6
 476 388 476 388 491.5 402 c 128,-1,7
 507 416 507 416 518.5 433.5 c 128,-1,8
 530 451 530 451 536.5 470.5 c 128,-1,9
 543 490 543 490 543 511 c 0,10,11
 543 559 543 559 520.5 596.5 c 128,-1,12
 498 634 498 634 463 659 c 128,-1,13
 428 684 428 684 385.5 697 c 128,-1,14
 343 710 343 710 303 710 c 0,15,16
 262 710 262 710 219.5 697 c 128,-1,17
 177 684 177 684 142.5 658.5 c 128,-1,18
 108 633 108 633 85.5 595.5 c 128,-1,19
 63 558 63 558 63 509 c 0,20,21
 63 489 63 489 69.5 469.5 c 128,-1,22
 76 450 76 450 87.5 433 c 128,-1,23
 99 416 99 416 114 402 c 128,-1,24
 129 388 129 388 147 379 c 1,25,26
 128 369 128 369 109.5 353.5 c 128,-1,27
 91 338 91 338 76 318 c 128,-1,28
 61 298 61 298 51.5 273 c 128,-1,29
 42 248 42 248 42 218 c 0,30,31
 42 168 42 168 62.5 126 c 128,-1,32
 83 84 83 84 118.5 54 c 128,-1,33
 154 24 154 24 201.5 7.5 c 128,-1,34
 249 -9 249 -9 302 -9 c 0,35,36
 356 -9 356 -9 403.5 7 c 128,-1,37
 451 23 451 23 486.5 52 c 128,-1,38
 522 81 522 81 542.5 122 c 128,-1,39
 563 163 563 163 563 213 c 0,0,1
412 222 m 0,40,41
 412 202 412 202 403 184.5 c 128,-1,42
 394 167 394 167 379 154 c 128,-1,43
 364 141 364 141 344.5 133.5 c 128,-1,44
 325 126 325 126 303 126 c 0,45,46
 282 126 282 126 262.5 133 c 128,-1,47
 243 140 243 140 227.5 152.5 c 128,-1,48
 212 165 212 165 203 182.5 c 128,-1,49
 194 200 194 200 194 222 c 256,50,51
 194 244 194 244 202.5 261.5 c 128,-1,52
 211 279 211 279 226 291.5 c 128,-1,53
 241 304 241 304 261 311 c 128,-1,54
 281 318 281 318 302 318 c 256,55,56
 323 318 323 318 343 311.5 c 128,-1,57
 363 305 363 305 378.5 292.5 c 128,-1,58
 394 280 394 280 403 262.5 c 128,-1,59
 412 245 412 245 412 222 c 0,40,41
215 505 m 0,60,61
 215 522 215 522 222 535 c 128,-1,62
 229 548 229 548 240.5 557.5 c 128,-1,63
 252 567 252 567 268 572.5 c 128,-1,64
 284 578 284 578 302 578 c 256,65,66
 320 578 320 578 336.5 572.5 c 128,-1,67
 353 567 353 567 365 557.5 c 128,-1,68
 377 548 377 548 384 535 c 128,-1,69
 391 522 391 522 391 506 c 0,70,71
 391 488 391 488 383 473.5 c 128,-1,72
 375 459 375 459 362 449 c 128,-1,73
 349 439 349 439 333.5 434.5 c 128,-1,74
 318 430 318 430 303 430 c 0,75,76
 287 430 287 430 271.5 434.5 c 128,-1,77
 256 439 256 439 243.5 448.5 c 128,-1,78
 231 458 231 458 223 472.5 c 128,-1,79
 215 487 215 487 215 505 c 0,60,61
EndSplineSet
Substitution2: "'tnum' Tabular Numbers lookup 41 subtable" eight.tnum
Substitution2: "'frac' Diagonal Fractions lookup 22 subtable" eight.numr
Substitution2: "'dnom' Denominators lookup 20 subtable" eight.dnom
Substitution2: "'numr' Numerators lookup 19 subtable" eight.numr
Substitution2: "'sups' Superscript lookup 18 subtable" uni2078
Substitution2: "'sinf' Scientific Inferiors lookup 17 subtable" eight.subs
Substitution2: "'subs' Subscript lookup 16 subtable" uni2088
AlternateSubs2: "'aalt' Access All Alternates lookup 1 subtable" uni2088 eight.subs uni2078 eight.numr eight.dnom
EndChar

StartChar: nine
Encoding: 57 57 28
Width: 607
GlyphClass: 1
Flags: W
LayerCount: 2
Fore
SplineSet
39 468 m 0,0,1
 39 520 39 520 59 565 c 128,-1,2
 79 610 79 610 114.5 643.5 c 128,-1,3
 150 677 150 677 197.5 696.5 c 128,-1,4
 245 716 245 716 300 716 c 0,5,6
 362 716 362 716 410.5 693.5 c 128,-1,7
 459 671 459 671 493 628 c 128,-1,8
 527 585 527 585 545 523.5 c 128,-1,9
 563 462 563 462 563 384 c 0,10,11
 563 289 563 289 544 216 c 128,-1,12
 525 143 525 143 488.5 92.5 c 128,-1,13
 452 42 452 42 401 16 c 128,-1,14
 350 -10 350 -10 285 -10 c 0,15,16
 219 -10 219 -10 162.5 18 c 128,-1,17
 106 46 106 46 64 98 c 1,18,-1
 149 193 l 1,19,20
 173 158 173 158 209.5 139 c 128,-1,21
 246 120 246 120 288 120 c 0,22,23
 318 120 318 120 343.5 131.5 c 128,-1,24
 369 143 369 143 386.5 166 c 128,-1,25
 404 189 404 189 414.5 222.5 c 128,-1,26
 425 256 425 256 425 298 c 1,27,28
 415 282 415 282 401 270 c 128,-1,29
 387 258 387 258 369 249.5 c 128,-1,30
 351 241 351 241 330.5 236.5 c 128,-1,31
 310 232 310 232 287 232 c 0,32,33
 234 232 234 232 189 250 c 128,-1,34
 144 268 144 268 110.5 300 c 128,-1,35
 77 332 77 332 58 375 c 128,-1,36
 39 418 39 418 39 468 c 0,0,1
300 590 m 256,37,38
 276 590 276 590 254.5 580 c 128,-1,39
 233 570 233 570 217 553.5 c 128,-1,40
 201 537 201 537 191.5 515 c 128,-1,41
 182 493 182 493 182 468 c 0,42,43
 182 444 182 444 191 422.5 c 128,-1,44
 200 401 200 401 216.5 385 c 128,-1,45
 233 369 233 369 254.5 359.5 c 128,-1,46
 276 350 276 350 300 350 c 0,47,48
 325 350 325 350 346.5 359.5 c 128,-1,49
 368 369 368 369 384 385 c 128,-1,50
 400 401 400 401 409.5 422 c 128,-1,51
 419 443 419 443 419 468 c 0,52,53
 419 492 419 492 409.5 514.5 c 128,-1,54
 400 537 400 537 383.5 553.5 c 128,-1,55
 367 570 367 570 345.5 580 c 128,-1,56
 324 590 324 590 300 590 c 256,37,38
EndSplineSet
Substitution2: "'tnum' Tabular Numbers lookup 41 subtable" nine.tnum
Substitution2: "'frac' Diagonal Fractions lookup 22 subtable" nine.numr
Substitution2: "'dnom' Denominators lookup 20 subtable" nine.dnom
Substitution2: "'numr' Numerators lookup 19 subtable" nine.numr
Substitution2: "'sups' Superscript lookup 18 subtable" uni2079
Substitution2: "'sinf' Scientific Inferiors lookup 17 subtable" nine.subs
Substitution2: "'subs' Subscript lookup 16 subtable" uni2089
AlternateSubs2: "'aalt' Access All Alternates lookup 1 subtable" uni2089 nine.subs uni2079 nine.numr nine.dnom
EndChar

StartChar: less
Encoding: 60 60 31
Width: 517
GlyphClass: 1
Flags: W
LayerCount: 2
Fore
SplineSet
32 220 m 1,0,-1
 454 -30 l 1,1,-1
 454 136 l 1,2,-1
 249 259 l 1,3,-1
 454 388 l 1,4,-1
 454 547 l 1,5,-1
 32 291 l 1,6,-1
 32 220 l 1,0,-1
EndSplineSet
EndChar

StartChar: equal
Encoding: 61 61 32
Width: 435
GlyphClass: 1
Flags: W
LayerCount: 2
Fore
SplineSet
376 132 m 1,0,-1
 376 228 l 1,1,-1
 60 228 l 1,2,-1
 60 132 l 1,3,-1
 376 132 l 1,0,-1
376 324 m 1,4,-1
 376 420 l 1,5,-1
 60 420 l 1,6,-1
 60 324 l 1,7,-1
 376 324 l 1,4,-1
EndSplineSet
EndChar

StartChar: greater
Encoding: 62 62 33
Width: 517
GlyphClass: 1
Flags: W
LayerCount: 2
Fore
SplineSet
485 291 m 1,0,-1
 62 547 l 1,1,-1
 62 388 l 1,2,-1
 268 259 l 1,3,-1
 62 136 l 1,4,-1
 62 -30 l 1,5,-1
 485 220 l 1,6,-1
 485 291 l 1,0,-1
EndSplineSet
EndChar

StartChar: question
Encoding: 63 63 34
Width: 489
GlyphClass: 1
Flags: W
LayerCount: 2
Fore
SplineSet
237 240 m 1,0,1
 237 263 237 263 248 279 c 128,-1,2
 259 295 259 295 276 307.5 c 128,-1,3
 293 320 293 320 314 331 c 128,-1,4
 335 342 335 342 356 355 c 0,5,6
 379 370 379 370 397.5 386.5 c 128,-1,7
 416 403 416 403 428.5 422.5 c 128,-1,8
 441 442 441 442 447.5 466 c 128,-1,9
 454 490 454 490 454 520 c 0,10,11
 454 573 454 573 435.5 611 c 128,-1,12
 417 649 417 649 387 673 c 128,-1,13
 357 697 357 697 319 708 c 128,-1,14
 281 719 281 719 244 719 c 0,15,16
 209 719 209 719 177 710 c 128,-1,17
 145 701 145 701 117.5 684.5 c 128,-1,18
 90 668 90 668 68.5 644 c 128,-1,19
 47 620 47 620 34 590 c 1,20,-1
 130 523 l 1,21,22
 138 535 138 535 148 548 c 128,-1,23
 158 561 158 561 171 572.5 c 128,-1,24
 184 584 184 584 201 591 c 128,-1,25
 218 598 218 598 239 598 c 0,26,27
 255 598 255 598 270.5 593 c 128,-1,28
 286 588 286 588 297.5 578 c 128,-1,29
 309 568 309 568 316.5 554 c 128,-1,30
 324 540 324 540 324 522 c 0,31,32
 324 496 324 496 309 475.5 c 128,-1,33
 294 455 294 455 273.5 439.5 c 128,-1,34
 253 424 253 424 231 413 c 128,-1,35
 209 402 209 402 196 394 c 0,36,37
 170 379 170 379 154 362 c 128,-1,38
 138 345 138 345 129.5 326 c 128,-1,39
 121 307 121 307 118 285 c 128,-1,40
 115 263 115 263 115 240 c 1,41,-1
 237 240 l 1,0,1
100 69 m 0,42,43
 100 36 100 36 123 13 c 128,-1,44
 146 -10 146 -10 179 -10 c 256,45,46
 212 -10 212 -10 235 13 c 128,-1,47
 258 36 258 36 258 69 c 0,48,49
 258 101 258 101 235 124.5 c 128,-1,50
 212 148 212 148 179 148 c 256,51,52
 146 148 146 148 123 124.5 c 128,-1,53
 100 101 100 101 100 69 c 0,42,43
EndSplineSet
EndChar

StartChar: at
Encoding: 64 64 35
Width: 847
GlyphClass: 1
Flags: W
LayerCount: 2
Fore
SplineSet
423 603 m 0,0,1
 347 603 347 603 278 578.5 c 128,-1,2
 209 554 209 554 156.5 506.5 c 128,-1,3
 104 459 104 459 72.5 389.5 c 128,-1,4
 41 320 41 320 41 231 c 0,5,6
 41 146 41 146 69.5 76.5 c 128,-1,7
 98 7 98 7 147.5 -42.5 c 128,-1,8
 197 -92 197 -92 263 -119 c 128,-1,9
 329 -146 329 -146 404 -146 c 0,10,11
 448 -146 448 -146 493 -136 c 128,-1,12
 538 -126 538 -126 580 -106 c 1,13,-1
 562 -50 l 1,14,15
 525 -65 525 -65 490 -76.5 c 128,-1,16
 455 -88 455 -88 406 -88 c 0,17,18
 336 -88 336 -88 280 -63 c 128,-1,19
 224 -38 224 -38 184 5 c 128,-1,20
 144 48 144 48 123 106 c 128,-1,21
 102 164 102 164 102 229 c 0,22,23
 102 298 102 298 124.5 356 c 128,-1,24
 147 414 147 414 188.5 456 c 128,-1,25
 230 498 230 498 288.5 521.5 c 128,-1,26
 347 545 347 545 418 545 c 0,27,28
 490 545 490 545 549 521 c 128,-1,29
 608 497 608 497 650 454 c 128,-1,30
 692 411 692 411 715 352.5 c 128,-1,31
 738 294 738 294 738 225 c 0,32,33
 738 205 738 205 735 175 c 128,-1,34
 732 145 732 145 723 117 c 128,-1,35
 714 89 714 89 698.5 69.5 c 128,-1,36
 683 50 683 50 656 50 c 0,37,38
 639 50 639 50 629 59.5 c 128,-1,39
 619 69 619 69 614 85.5 c 128,-1,40
 609 102 609 102 608 123 c 128,-1,41
 607 144 607 144 607 166 c 2,42,-1
 607 253 l 2,43,44
 607 287 607 287 603 324 c 128,-1,45
 599 361 599 361 580.5 392 c 128,-1,46
 562 423 562 423 525 443.5 c 128,-1,47
 488 464 488 464 421 464 c 0,48,49
 372 464 372 464 328.5 451.5 c 128,-1,50
 285 439 285 439 248 414 c 1,51,-1
 275 336 l 1,52,53
 298 356 298 356 331.5 367.5 c 128,-1,54
 365 379 365 379 406 379 c 0,55,56
 440 379 440 379 461.5 370.5 c 128,-1,57
 483 362 483 362 495.5 347 c 128,-1,58
 508 332 508 332 513 311 c 128,-1,59
 518 290 518 290 518 265 c 1,60,61
 503 271 503 271 475.5 278.5 c 128,-1,62
 448 286 448 286 408 286 c 0,63,64
 374 286 374 286 340.5 278.5 c 128,-1,65
 307 271 307 271 280.5 254 c 128,-1,66
 254 237 254 237 237.5 208.5 c 128,-1,67
 221 180 221 180 221 138 c 0,68,69
 221 75 221 75 260.5 36 c 128,-1,70
 300 -3 300 -3 375 -3 c 0,71,72
 425 -3 425 -3 469 14.5 c 128,-1,73
 513 32 513 32 545 63 c 1,74,75
 547 50 547 50 552 36 c 128,-1,76
 557 22 557 22 568 10 c 128,-1,77
 579 -2 579 -2 597 -9 c 128,-1,78
 615 -16 615 -16 642 -16 c 0,79,80
 697 -16 697 -16 728.5 13.5 c 128,-1,81
 760 43 760 43 775.5 82 c 128,-1,82
 791 121 791 121 795 160.5 c 128,-1,83
 799 200 799 200 799 221 c 0,84,85
 799 316 799 316 768 387.5 c 128,-1,86
 737 459 737 459 684.5 506.5 c 128,-1,87
 632 554 632 554 564.5 578.5 c 128,-1,88
 497 603 497 603 423 603 c 0,0,1
469 90 m 0,89,90
 450 80 450 80 426.5 75.5 c 128,-1,91
 403 71 403 71 385 71 c 256,92,93
 367 71 367 71 352.5 76 c 128,-1,94
 338 81 338 81 328.5 90 c 128,-1,95
 319 99 319 99 314.5 111.5 c 128,-1,96
 310 124 310 124 310 140 c 0,97,98
 310 160 310 160 316.5 174.5 c 128,-1,99
 323 189 323 189 336.5 198.5 c 128,-1,100
 350 208 350 208 368 212.5 c 128,-1,101
 386 217 386 217 409 217 c 0,102,103
 426 217 426 217 442.5 214.5 c 128,-1,104
 459 212 459 212 473 209 c 128,-1,105
 487 206 487 206 499 202.5 c 128,-1,106
 511 199 511 199 517 197 c 1,107,-1
 517 157 l 2,108,109
 517 147 517 147 514 137.5 c 128,-1,110
 511 128 511 128 505 119.5 c 128,-1,111
 499 111 499 111 490 103.5 c 128,-1,112
 481 96 481 96 469 90 c 0,89,90
EndSplineSet
EndChar

StartChar: A
Encoding: 65 65 36
Width: 671
GlyphClass: 1
Flags: W
LayerCount: 2
Fore
SplineSet
3 0 m 1,0,-1
 161 0 l 1,1,-1
 219 167 l 1,2,-1
 452 167 l 1,3,-1
 511 0 l 1,4,-1
 668 0 l 1,5,-1
 417 710 l 1,6,-1
 255 710 l 1,7,-1
 3 0 l 1,0,-1
244 273 m 1,8,-1
 336 554 l 1,9,-1
 425 273 l 1,10,-1
 244 273 l 1,8,-1
EndSplineSet
Substitution2: "Single Substitution lookup 45 subtable" ordfeminine
Substitution2: "'aalt' Access All Alternates lookup 0 subtable" ordfeminine
EndChar

StartChar: B
Encoding: 66 66 37
Width: 682
GlyphClass: 1
Flags: W
LayerCount: 2
Fore
SplineSet
651 182 m 0,0,1
 651 218 651 218 642 247.5 c 128,-1,2
 633 277 633 277 615.5 300 c 128,-1,3
 598 323 598 323 573.5 339 c 128,-1,4
 549 355 549 355 519 364 c 1,5,6
 569 387 569 387 595 432 c 128,-1,7
 621 477 621 477 621 528 c 0,8,9
 621 562 621 562 610 594.5 c 128,-1,10
 599 627 599 627 578 652.5 c 128,-1,11
 557 678 557 678 527 694 c 128,-1,12
 497 710 497 710 459 710 c 2,13,-1
 71 710 l 1,14,-1
 71 0 l 1,15,-1
 415 0 l 2,16,17
 464 0 464 0 506.5 11.5 c 128,-1,18
 549 23 549 23 581.5 46 c 128,-1,19
 614 69 614 69 632.5 103 c 128,-1,20
 651 137 651 137 651 182 c 0,0,1
496 213 m 0,21,22
 496 195 496 195 489.5 180 c 128,-1,23
 483 165 483 165 472.5 153.5 c 128,-1,24
 462 142 462 142 447 136 c 128,-1,25
 432 130 432 130 415 130 c 2,26,-1
 224 130 l 1,27,-1
 224 299 l 1,28,-1
 422 299 l 2,29,30
 438 299 438 299 451.5 292 c 128,-1,31
 465 285 465 285 475 273 c 128,-1,32
 485 261 485 261 490.5 245.5 c 128,-1,33
 496 230 496 230 496 213 c 0,21,22
400 579 m 2,34,35
 414 579 414 579 427 573.5 c 128,-1,36
 440 568 440 568 449 558 c 128,-1,37
 458 548 458 548 464 533 c 128,-1,38
 470 518 470 518 470 499 c 256,39,40
 470 480 470 480 463.5 465 c 128,-1,41
 457 450 457 450 447 440 c 128,-1,42
 437 430 437 430 423 424.5 c 128,-1,43
 409 419 409 419 394 419 c 2,44,-1
 224 419 l 1,45,-1
 224 579 l 1,46,-1
 400 579 l 2,34,35
EndSplineSet
EndChar

StartChar: C
Encoding: 67 67 38
Width: 687
GlyphClass: 1
Flags: W
LayerCount: 2
Fore
SplineSet
29 361 m 0,0,1
 29 293 29 293 54.5 227 c 128,-1,2
 80 161 80 161 126 109.5 c 128,-1,3
 172 58 172 58 236 26 c 128,-1,4
 300 -6 300 -6 376 -6 c 0,5,6
 420 -6 420 -6 465.5 5 c 128,-1,7
 511 16 511 16 551.5 37 c 128,-1,8
 592 58 592 58 623.5 89 c 128,-1,9
 655 120 655 120 671 159 c 1,10,-1
 546 232 l 1,11,12
 535 205 535 205 516 185.5 c 128,-1,13
 497 166 497 166 474.5 153.5 c 128,-1,14
 452 141 452 141 427.5 135.5 c 128,-1,15
 403 130 403 130 380 130 c 0,16,17
 336 130 336 130 300 148.5 c 128,-1,18
 264 167 264 167 238 198.5 c 128,-1,19
 212 230 212 230 198 270.5 c 128,-1,20
 184 311 184 311 184 355 c 0,21,22
 184 395 184 395 196 435 c 128,-1,23
 208 475 208 475 232 506.5 c 128,-1,24
 256 538 256 538 292.5 558 c 128,-1,25
 329 578 329 578 378 578 c 0,26,27
 401 578 401 578 425 573 c 128,-1,28
 449 568 449 568 471.5 556.5 c 128,-1,29
 494 545 494 545 513 525.5 c 128,-1,30
 532 506 532 506 544 477 c 1,31,-1
 662 559 l 1,32,33
 627 629 627 629 554.5 671.5 c 128,-1,34
 482 714 482 714 382 714 c 0,35,36
 299 714 299 714 233 683 c 128,-1,37
 167 652 167 652 121.5 602 c 128,-1,38
 76 552 76 552 52.5 489 c 128,-1,39
 29 426 29 426 29 361 c 0,0,1
EndSplineSet
EndChar

StartChar: D
Encoding: 68 68 39
Width: 716
GlyphClass: 1
Flags: W
LayerCount: 2
Fore
SplineSet
333 0 m 2,0,1
 413 0 413 0 478 25.5 c 128,-1,2
 543 51 543 51 589 97.5 c 128,-1,3
 635 144 635 144 660 209.5 c 128,-1,4
 685 275 685 275 685 356 c 0,5,6
 685 430 685 430 663 494.5 c 128,-1,7
 641 559 641 559 596.5 607 c 128,-1,8
 552 655 552 655 486.5 682.5 c 128,-1,9
 421 710 421 710 333 710 c 2,10,-1
 71 710 l 1,11,-1
 71 0 l 1,12,-1
 333 0 l 2,0,1
530 356 m 256,13,14
 530 308 530 308 517 267.5 c 128,-1,15
 504 227 504 227 479 197.5 c 128,-1,16
 454 168 454 168 417 151 c 128,-1,17
 380 134 380 134 333 134 c 2,18,-1
 224 134 l 1,19,-1
 224 576 l 1,20,-1
 333 576 l 2,21,22
 379 576 379 576 416 559.5 c 128,-1,23
 453 543 453 543 478 514.5 c 128,-1,24
 503 486 503 486 516.5 445 c 128,-1,25
 530 404 530 404 530 356 c 256,13,14
EndSplineSet
EndChar

StartChar: E
Encoding: 69 69 40
Width: 600
GlyphClass: 1
Flags: W
LayerCount: 2
Fore
SplineSet
224 134 m 1,0,-1
 224 299 l 1,1,-1
 512 299 l 1,2,-1
 512 424 l 1,3,-1
 224 424 l 1,4,-1
 224 576 l 1,5,-1
 558 576 l 1,6,-1
 558 710 l 1,7,-1
 71 710 l 1,8,-1
 71 0 l 1,9,-1
 567 0 l 1,10,-1
 567 134 l 1,11,-1
 224 134 l 1,0,-1
EndSplineSet
EndChar

StartChar: F
Encoding: 70 70 41
Width: 571
GlyphClass: 1
Flags: W
LayerCount: 2
Fore
SplineSet
224 0 m 1,0,-1
 224 286 l 1,1,-1
 494 286 l 1,2,-1
 494 410 l 1,3,-1
 224 410 l 1,4,-1
 224 576 l 1,5,-1
 550 576 l 1,6,-1
 550 710 l 1,7,-1
 71 710 l 1,8,-1
 71 0 l 1,9,-1
 224 0 l 1,0,-1
EndSplineSet
EndChar

StartChar: G
Encoding: 71 71 42
Width: 719
GlyphClass: 1
Flags: W
LayerCount: 2
Fore
SplineSet
371 -5 m 0,0,1
 412 -5 412 -5 450 0.5 c 128,-1,2
 488 6 488 6 523.5 18.5 c 128,-1,3
 559 31 559 31 593.5 53 c 128,-1,4
 628 75 628 75 664 108 c 1,5,-1
 664 382 l 1,6,-1
 355 382 l 1,7,-1
 357 254 l 1,8,-1
 508 254 l 1,9,-1
 508 170 l 1,10,11
 492 158 492 158 478.5 150 c 128,-1,12
 465 142 465 142 450 137.5 c 128,-1,13
 435 133 435 133 415.5 131 c 128,-1,14
 396 129 396 129 370 129 c 0,15,16
 323 129 323 129 288 149.5 c 128,-1,17
 253 170 253 170 230 202.5 c 128,-1,18
 207 235 207 235 195.5 275.5 c 128,-1,19
 184 316 184 316 184 355 c 0,20,21
 184 397 184 397 196 437 c 128,-1,22
 208 477 208 477 231 508.5 c 128,-1,23
 254 540 254 540 288.5 559.5 c 128,-1,24
 323 579 323 579 367 579 c 0,25,26
 402 579 402 579 429 567 c 128,-1,27
 456 555 456 555 475.5 538 c 128,-1,28
 495 521 495 521 507.5 502.5 c 128,-1,29
 520 484 520 484 526 472 c 1,30,-1
 648 567 l 1,31,32
 607 637 607 637 537 676 c 128,-1,33
 467 715 467 715 376 715 c 0,34,35
 296 715 296 715 232 685.5 c 128,-1,36
 168 656 168 656 123 606.5 c 128,-1,37
 78 557 78 557 53.5 491.5 c 128,-1,38
 29 426 29 426 29 356 c 0,39,40
 29 287 29 287 52.5 222 c 128,-1,41
 76 157 76 157 120 106.5 c 128,-1,42
 164 56 164 56 227.5 25.5 c 128,-1,43
 291 -5 291 -5 371 -5 c 0,0,1
EndSplineSet
Substitution2: "'ss11' Style Set 11 lookup 39 subtable" G.ss11
Substitution2: "'aalt' Access All Alternates lookup 0 subtable" G.ss11
EndChar

StartChar: H
Encoding: 72 72 43
Width: 746
GlyphClass: 1
Flags: W
LayerCount: 2
Fore
SplineSet
523 710 m 1,0,-1
 523 430 l 1,1,-1
 224 430 l 1,2,-1
 224 710 l 1,3,-1
 71 710 l 1,4,-1
 71 0 l 1,5,-1
 224 0 l 1,6,-1
 224 296 l 1,7,-1
 523 296 l 1,8,-1
 523 0 l 1,9,-1
 676 0 l 1,10,-1
 676 710 l 1,11,-1
 523 710 l 1,0,-1
EndSplineSet
EndChar

StartChar: I
Encoding: 73 73 44
Width: 294
GlyphClass: 1
Flags: W
LayerCount: 2
Fore
SplineSet
224 0 m 1,0,-1
 224 710 l 1,1,-1
 71 710 l 1,2,-1
 71 0 l 1,3,-1
 224 0 l 1,0,-1
EndSplineSet
EndChar

StartChar: J
Encoding: 74 74 45
Width: 561
GlyphClass: 2
Flags: W
LayerCount: 2
Fore
SplineSet
236 -7 m 0,0,1
 195 -7 195 -7 158.5 5 c 128,-1,2
 122 17 122 17 91.5 39 c 128,-1,3
 61 61 61 61 38.5 92 c 128,-1,4
 16 123 16 123 4 162 c 1,5,-1
 134 220 l 1,6,7
 141 201 141 201 149.5 184.5 c 128,-1,8
 158 168 158 168 170 155.5 c 128,-1,9
 182 143 182 143 198.5 136 c 128,-1,10
 215 129 215 129 238 129 c 0,11,12
 268 129 268 129 287.5 139.5 c 128,-1,13
 307 150 307 150 319 167.5 c 128,-1,14
 331 185 331 185 336 209 c 128,-1,15
 341 233 341 233 341 258 c 2,16,-1
 341 710 l 1,17,-1
 490 710 l 1,18,-1
 490 238 l 2,19,20
 490 182 490 182 470.5 137 c 128,-1,21
 451 92 451 92 417 60 c 128,-1,22
 383 28 383 28 336.5 10.5 c 128,-1,23
 290 -7 290 -7 236 -7 c 0,0,1
EndSplineSet
EndChar

StartChar: K
Encoding: 75 75 46
Width: 675
GlyphClass: 1
Flags: W
LayerCount: 2
Fore
SplineSet
224 0 m 1,0,-1
 224 210 l 1,1,-1
 304 294 l 1,2,-1
 513 0 l 1,3,-1
 688 0 l 1,4,-1
 402 394 l 1,5,-1
 670 710 l 1,6,-1
 500 710 l 1,7,-1
 224 391 l 1,8,-1
 224 710 l 1,9,-1
 71 710 l 1,10,-1
 71 0 l 1,11,-1
 224 0 l 1,0,-1
EndSplineSet
EndChar

StartChar: L
Encoding: 76 76 47
Width: 585
GlyphClass: 1
Flags: W
LayerCount: 2
Fore
SplineSet
575 0 m 1,0,-1
 575 134 l 1,1,-1
 224 134 l 1,2,-1
 224 710 l 1,3,-1
 71 710 l 1,4,-1
 71 0 l 1,5,-1
 575 0 l 1,0,-1
EndSplineSet
EndChar

StartChar: M
Encoding: 77 77 48
Width: 862
GlyphClass: 1
Flags: W
LayerCount: 2
Fore
SplineSet
791 0 m 1,0,-1
 791 710 l 1,1,-1
 627 710 l 1,2,-1
 431 325 l 1,3,-1
 236 710 l 1,4,-1
 71 710 l 1,5,-1
 71 0 l 1,6,-1
 224 0 l 1,7,-1
 224 441 l 1,8,-1
 389 117 l 1,9,-1
 473 117 l 1,10,-1
 638 441 l 1,11,-1
 638 0 l 1,12,-1
 791 0 l 1,0,-1
EndSplineSet
EndChar

StartChar: N
Encoding: 78 78 49
Width: 760
GlyphClass: 1
Flags: W
LayerCount: 2
Fore
SplineSet
564 0 m 1,0,-1
 690 0 l 1,1,-1
 690 710 l 1,2,-1
 537 710 l 1,3,-1
 537 271 l 1,4,-1
 192 710 l 1,5,-1
 71 710 l 1,6,-1
 71 0 l 1,7,-1
 224 0 l 1,8,-1
 224 427 l 1,9,-1
 564 0 l 1,0,-1
EndSplineSet
EndChar

StartChar: O
Encoding: 79 79 50
Width: 758
GlyphClass: 1
Flags: W
LayerCount: 2
Fore
SplineSet
378 -6 m 0,0,1
 455 -6 455 -6 519.5 24 c 128,-1,2
 584 54 584 54 630.5 103.5 c 128,-1,3
 677 153 677 153 703 217.5 c 128,-1,4
 729 282 729 282 729 353 c 0,5,6
 729 420 729 420 704 485 c 128,-1,7
 679 550 679 550 633.5 601 c 128,-1,8
 588 652 588 652 524 683 c 128,-1,9
 460 714 460 714 381 714 c 0,10,11
 305 714 305 714 240.5 684.5 c 128,-1,12
 176 655 176 655 129 605.5 c 128,-1,13
 82 556 82 556 55.5 491.5 c 128,-1,14
 29 427 29 427 29 356 c 0,15,16
 29 287 29 287 54 222 c 128,-1,17
 79 157 79 157 125 106.5 c 128,-1,18
 171 56 171 56 235 25 c 128,-1,19
 299 -6 299 -6 378 -6 c 0,0,1
184 354 m 0,20,21
 184 396 184 396 196.5 436 c 128,-1,22
 209 476 209 476 233.5 507.5 c 128,-1,23
 258 539 258 539 294.5 558.5 c 128,-1,24
 331 578 331 578 379 578 c 0,25,26
 425 578 425 578 461.5 559.5 c 128,-1,27
 498 541 498 541 523 510 c 128,-1,28
 548 479 548 479 561 439 c 128,-1,29
 574 399 574 399 574 356 c 0,30,31
 574 314 574 314 561.5 273.5 c 128,-1,32
 549 233 549 233 525 201.5 c 128,-1,33
 501 170 501 170 464 150.5 c 128,-1,34
 427 131 427 131 379 131 c 0,35,36
 332 131 332 131 296 149.5 c 128,-1,37
 260 168 260 168 235 199.5 c 128,-1,38
 210 231 210 231 197 271 c 128,-1,39
 184 311 184 311 184 354 c 0,20,21
EndSplineSet
Substitution2: "Single Substitution lookup 45 subtable" ordmasculine
Substitution2: "'aalt' Access All Alternates lookup 0 subtable" ordmasculine
EndChar

StartChar: P
Encoding: 80 80 51
Width: 623
GlyphClass: 1
Flags: W
LayerCount: 2
Fore
SplineSet
224 0 m 1,0,-1
 224 233 l 1,1,-1
 378 233 l 2,2,3
 429 233 429 233 470 253 c 128,-1,4
 511 273 511 273 540.5 306.5 c 128,-1,5
 570 340 570 340 586 383 c 128,-1,6
 602 426 602 426 602 472 c 0,7,8
 602 515 602 515 585 558 c 128,-1,9
 568 601 568 601 537.5 635 c 128,-1,10
 507 669 507 669 465 689.5 c 128,-1,11
 423 710 423 710 373 710 c 2,12,-1
 71 710 l 1,13,-1
 71 0 l 1,14,-1
 224 0 l 1,0,-1
224 576 m 1,15,-1
 363 576 l 2,16,17
 379 576 379 576 394 569.5 c 128,-1,18
 409 563 409 563 420.5 549.5 c 128,-1,19
 432 536 432 536 439.5 517 c 128,-1,20
 447 498 447 498 447 472 c 0,21,22
 447 447 447 447 440.5 427.5 c 128,-1,23
 434 408 434 408 424 394.5 c 128,-1,24
 414 381 414 381 399.5 374 c 128,-1,25
 385 367 385 367 368 367 c 2,26,-1
 224 367 l 1,27,-1
 224 576 l 1,15,-1
EndSplineSet
EndChar

StartChar: Q
Encoding: 81 81 52
Width: 757
GlyphClass: 1
Flags: W
LayerCount: 2
Fore
SplineSet
378 -5 m 0,0,1
 455 -5 455 -5 519.5 24.5 c 128,-1,2
 584 54 584 54 630.5 103.5 c 128,-1,3
 677 153 677 153 703 217.5 c 128,-1,4
 729 282 729 282 729 353 c 0,5,6
 729 420 729 420 704 485 c 128,-1,7
 679 550 679 550 633.5 601 c 128,-1,8
 588 652 588 652 524 683.5 c 128,-1,9
 460 715 460 715 381 715 c 0,10,11
 305 715 305 715 240.5 685.5 c 128,-1,12
 176 656 176 656 129 606 c 128,-1,13
 82 556 82 556 55.5 491.5 c 128,-1,14
 29 427 29 427 29 356 c 0,15,16
 29 287 29 287 54 222 c 128,-1,17
 79 157 79 157 125 106.5 c 128,-1,18
 171 56 171 56 235 25.5 c 128,-1,19
 299 -5 299 -5 378 -5 c 0,0,1
379 131 m 0,20,21
 332 131 332 131 296 149.5 c 128,-1,22
 260 168 260 168 235 199.5 c 128,-1,23
 210 231 210 231 197 271 c 128,-1,24
 184 311 184 311 184 354 c 0,25,26
 184 396 184 396 196.5 436 c 128,-1,27
 209 476 209 476 233.5 508 c 128,-1,28
 258 540 258 540 294.5 559.5 c 128,-1,29
 331 579 331 579 379 579 c 0,30,31
 425 579 425 579 461.5 560.5 c 128,-1,32
 498 542 498 542 523 510.5 c 128,-1,33
 548 479 548 479 561 439 c 128,-1,34
 574 399 574 399 574 356 c 0,35,36
 574 314 574 314 561.5 274 c 128,-1,37
 549 234 549 234 525 202.5 c 128,-1,38
 501 171 501 171 464 151 c 128,-1,39
 427 131 427 131 379 131 c 0,20,21
641 -34 m 1,40,-1
 728 54 l 1,41,-1
 461 332 l 1,42,-1
 372 245 l 1,43,-1
 641 -34 l 1,40,-1
EndSplineSet
EndChar

StartChar: R
Encoding: 82 82 53
Width: 668
GlyphClass: 1
Flags: W
LayerCount: 2
Fore
SplineSet
224 0 m 1,0,-1
 224 233 l 1,1,-1
 346 233 l 1,2,-1
 486 0 l 1,3,-1
 655 0 l 1,4,-1
 496 265 l 1,5,6
 524 279 524 279 546.5 300.5 c 128,-1,7
 569 322 569 322 584.5 349 c 128,-1,8
 600 376 600 376 608.5 407 c 128,-1,9
 617 438 617 438 617 472 c 0,10,11
 617 515 617 515 600 558 c 128,-1,12
 583 601 583 601 552.5 635 c 128,-1,13
 522 669 522 669 480 689.5 c 128,-1,14
 438 710 438 710 388 710 c 2,15,-1
 71 710 l 1,16,-1
 71 0 l 1,17,-1
 224 0 l 1,0,-1
224 576 m 1,18,-1
 378 576 l 2,19,20
 394 576 394 576 409 568.5 c 128,-1,21
 424 561 424 561 436 547 c 128,-1,22
 448 533 448 533 455 513.5 c 128,-1,23
 462 494 462 494 462 472 c 0,24,25
 462 449 462 449 455.5 430 c 128,-1,26
 449 411 449 411 439 396.5 c 128,-1,27
 429 382 429 382 414.5 374.5 c 128,-1,28
 400 367 400 367 383 367 c 2,29,-1
 224 367 l 1,30,-1
 224 576 l 1,18,-1
EndSplineSet
EndChar

StartChar: S
Encoding: 83 83 54
Width: 614
GlyphClass: 1
Flags: W
LayerCount: 2
Fore
SplineSet
563 637 m 1,0,1
 539 651 539 651 511 665.5 c 128,-1,2
 483 680 483 680 450.5 691 c 128,-1,3
 418 702 418 702 383 709 c 128,-1,4
 348 716 348 716 310 716 c 0,5,6
 257 716 257 716 209 701 c 128,-1,7
 161 686 161 686 125.5 657.5 c 128,-1,8
 90 629 90 629 69.5 586 c 128,-1,9
 49 543 49 543 49 488 c 0,10,11
 49 447 49 447 61 417 c 128,-1,12
 73 387 73 387 97 364.5 c 128,-1,13
 121 342 121 342 158 325 c 128,-1,14
 195 308 195 308 244 293 c 0,15,16
 284 282 284 282 316 272.5 c 128,-1,17
 348 263 348 263 371.5 252.5 c 128,-1,18
 395 242 395 242 408 227.5 c 128,-1,19
 421 213 421 213 421 192 c 0,20,21
 421 162 421 162 397 146 c 128,-1,22
 373 130 373 130 323 130 c 0,23,24
 282 130 282 130 242.5 140.5 c 128,-1,25
 203 151 203 151 170.5 165.5 c 128,-1,26
 138 180 138 180 115.5 194 c 128,-1,27
 93 208 93 208 87 215 c 1,28,-1
 19 82 l 1,29,30
 51 61 51 61 86.5 44 c 128,-1,31
 122 27 122 27 161 15.5 c 128,-1,32
 200 4 200 4 240.5 -2 c 128,-1,33
 281 -8 281 -8 320 -8 c 0,34,35
 372 -8 372 -8 420 3.5 c 128,-1,36
 468 15 468 15 504.5 40.5 c 128,-1,37
 541 66 541 66 563.5 107 c 128,-1,38
 586 148 586 148 586 207 c 0,39,40
 586 256 586 256 570 290 c 128,-1,41
 554 324 554 324 525 348 c 128,-1,42
 496 372 496 372 454.5 389 c 128,-1,43
 413 406 413 406 361 420 c 0,44,45
 323 430 323 430 294.5 438.5 c 128,-1,46
 266 447 266 447 246.5 456.5 c 128,-1,47
 227 466 227 466 217 479.5 c 128,-1,48
 207 493 207 493 207 512 c 0,49,50
 207 545 207 545 232.5 562.5 c 128,-1,51
 258 580 258 580 305 580 c 0,52,53
 337 580 337 580 369 571.5 c 128,-1,54
 401 563 401 563 427.5 551 c 128,-1,55
 454 539 454 539 472.5 528 c 128,-1,56
 491 517 491 517 495 511 c 1,57,-1
 563 637 l 1,0,1
EndSplineSet
EndChar

StartChar: T
Encoding: 84 84 55
Width: 620
GlyphClass: 1
Flags: W
LayerCount: 2
Fore
SplineSet
607 710 m 1,0,-1
 13 710 l 1,1,-1
 13 576 l 1,2,-1
 234 576 l 1,3,-1
 234 0 l 1,4,-1
 387 0 l 1,5,-1
 387 576 l 1,6,-1
 607 576 l 1,7,-1
 607 710 l 1,0,-1
EndSplineSet
EndChar

StartChar: U
Encoding: 85 85 56
Width: 748
GlyphClass: 1
Flags: W
LayerCount: 2
Fore
SplineSet
374 -6 m 0,0,1
 456 -6 456 -6 515 22 c 128,-1,2
 574 50 574 50 612.5 98 c 128,-1,3
 651 146 651 146 669 210 c 128,-1,4
 687 274 687 274 687 347 c 2,5,-1
 687 710 l 1,6,-1
 534 710 l 1,7,-1
 534 347 l 2,8,9
 534 307 534 307 526 267.5 c 128,-1,10
 518 228 518 228 499.5 198 c 128,-1,11
 481 168 481 168 450 149.5 c 128,-1,12
 419 131 419 131 373 131 c 0,13,14
 329 131 329 131 298.5 149 c 128,-1,15
 268 167 268 167 249 197 c 128,-1,16
 230 227 230 227 222 266.5 c 128,-1,17
 214 306 214 306 214 347 c 2,18,-1
 214 710 l 1,19,-1
 61 710 l 1,20,-1
 61 347 l 2,21,22
 61 278 61 278 78 214 c 128,-1,23
 95 150 95 150 132.5 101.5 c 128,-1,24
 170 53 170 53 229.5 23.5 c 128,-1,25
 289 -6 289 -6 374 -6 c 0,0,1
EndSplineSet
EndChar

StartChar: V
Encoding: 86 86 57
Width: 675
GlyphClass: 1
Flags: W
LayerCount: 2
Fore
SplineSet
-1 710 m 1,0,-1
 264 0 l 1,1,-1
 413 0 l 1,2,-1
 675 710 l 1,3,-1
 514 710 l 1,4,-1
 338 180 l 1,5,-1
 161 710 l 1,6,-1
 -1 710 l 1,0,-1
EndSplineSet
EndChar

StartChar: W
Encoding: 87 87 58
Width: 1104
GlyphClass: 1
Flags: W
LayerCount: 2
Fore
SplineSet
233 0 m 1,0,-1
 377 0 l 1,1,-1
 552 481 l 1,2,-1
 730 1 l 1,3,-1
 877 1 l 1,4,-1
 1094 710 l 1,5,-1
 938 710 l 1,6,-1
 792 205 l 1,7,-1
 622 709 l 1,8,-1
 483 709 l 1,9,-1
 317 204 l 1,10,-1
 171 709 l 1,11,-1
 15 709 l 1,12,-1
 233 0 l 1,0,-1
EndSplineSet
Substitution2: "'ss09' Style Set 9 lookup 37 subtable" W.ss09
Substitution2: "'aalt' Access All Alternates lookup 0 subtable" W.ss09
EndChar

StartChar: X
Encoding: 88 88 59
Width: 649
GlyphClass: 1
Flags: W
LayerCount: 2
Fore
SplineSet
-5 710 m 1,0,-1
 234 350 l 1,1,-1
 3 0 l 1,2,-1
 170 0 l 1,3,-1
 325 242 l 1,4,-1
 480 0 l 1,5,-1
 646 0 l 1,6,-1
 415 350 l 1,7,-1
 654 710 l 1,8,-1
 488 710 l 1,9,-1
 325 458 l 1,10,-1
 162 710 l 1,11,-1
 -5 710 l 1,0,-1
EndSplineSet
EndChar

StartChar: Y
Encoding: 89 89 60
Width: 662
GlyphClass: 1
Flags: W
LayerCount: 2
Fore
SplineSet
2 710 m 1,0,-1
 254 247 l 1,1,-1
 254 0 l 1,2,-1
 406 0 l 1,3,-1
 406 245 l 1,4,-1
 661 710 l 1,5,-1
 495 710 l 1,6,-1
 330 388 l 1,7,-1
 168 710 l 1,8,-1
 2 710 l 1,0,-1
EndSplineSet
EndChar

StartChar: Z
Encoding: 90 90 61
Width: 626
GlyphClass: 1
Flags: W
LayerCount: 2
Fore
SplineSet
29 0 m 1,0,-1
 592 0 l 1,1,-1
 592 134 l 1,2,-1
 227 134 l 1,3,-1
 588 595 l 1,4,-1
 588 710 l 1,5,-1
 42 710 l 1,6,-1
 42 576 l 1,7,-1
 405 576 l 1,8,-1
 29 115 l 1,9,-1
 29 0 l 1,0,-1
EndSplineSet
EndChar

StartChar: bracketleft
Encoding: 91 91 62
Width: 331
GlyphClass: 1
Flags: W
LayerCount: 2
Fore
SplineSet
284 -40 m 1,0,-1
 284 79 l 1,1,-1
 219 79 l 1,2,-1
 219 621 l 1,3,-1
 284 621 l 1,4,-1
 284 740 l 1,5,-1
 81 740 l 1,6,-1
 81 -40 l 1,7,-1
 284 -40 l 1,0,-1
EndSplineSet
EndChar

StartChar: backslash
Encoding: 92 92 63
Width: 652
GlyphClass: 1
Flags: W
LayerCount: 2
Fore
SplineSet
26 710 m 1,0,-1
 462 0 l 1,1,-1
 627 0 l 1,2,-1
 192 710 l 1,3,-1
 26 710 l 1,0,-1
EndSplineSet
EndChar

StartChar: bracketright
Encoding: 93 93 64
Width: 331
GlyphClass: 1
Flags: W
LayerCount: 2
Fore
SplineSet
250 -40 m 1,0,-1
 250 740 l 1,1,-1
 47 740 l 1,2,-1
 47 621 l 1,3,-1
 112 621 l 1,4,-1
 112 79 l 1,5,-1
 47 79 l 1,6,-1
 47 -40 l 1,7,-1
 250 -40 l 1,0,-1
EndSplineSet
EndChar

StartChar: asciicircum
Encoding: 94 94 65
Width: 596
GlyphClass: 1
Flags: W
LayerCount: 2
Fore
SplineSet
158 303 m 1,0,-1
 299 586 l 1,1,-1
 436 303 l 1,2,-1
 558 303 l 1,3,-1
 361 710 l 1,4,-1
 236 710 l 1,5,-1
 38 303 l 1,6,-1
 158 303 l 1,0,-1
EndSplineSet
EndChar

StartChar: underscore
Encoding: 95 95 66
Width: 466
GlyphClass: 1
Flags: W
LayerCount: 2
Fore
SplineSet
414 -134 m 1,0,-1
 414 0 l 1,1,-1
 52 0 l 1,2,-1
 52 -134 l 1,3,-1
 414 -134 l 1,0,-1
EndSplineSet
EndChar

StartChar: a
Encoding: 97 97 68
Width: 570
GlyphClass: 1
Flags: W
LayerCount: 2
Fore
SplineSet
519 0 m 1,0,-1
 519 316 l 2,1,2
 519 368 519 368 503 408.5 c 128,-1,3
 487 449 487 449 455.5 477 c 128,-1,4
 424 505 424 505 378.5 519.5 c 128,-1,5
 333 534 333 534 274 534 c 0,6,7
 211 534 211 534 156 516.5 c 128,-1,8
 101 499 101 499 51 467 c 1,9,-1
 96 373 l 1,10,11
 138 402 138 402 177 417 c 128,-1,12
 216 432 216 432 260 432 c 0,13,14
 287 432 287 432 307.5 425.5 c 128,-1,15
 328 419 328 419 342 406 c 128,-1,16
 356 393 356 393 363 374.5 c 128,-1,17
 370 356 370 356 370 333 c 2,18,-1
 370 307 l 1,19,20
 350 316 350 316 318.5 322.5 c 128,-1,21
 287 329 287 329 248 329 c 0,22,23
 202 329 202 329 161 317.5 c 128,-1,24
 120 306 120 306 89.5 283.5 c 128,-1,25
 59 261 59 261 41 229 c 128,-1,26
 23 197 23 197 23 157 c 0,27,28
 23 121 23 121 37 90.5 c 128,-1,29
 51 60 51 60 75 38 c 128,-1,30
 99 16 99 16 132.5 3 c 128,-1,31
 166 -10 166 -10 204 -10 c 0,32,33
 258 -10 258 -10 302 10 c 128,-1,34
 346 30 346 30 375 71 c 1,35,-1
 375 0 l 1,36,-1
 519 0 l 1,0,-1
347 136 m 0,37,38
 338 127 338 127 326.5 119.5 c 128,-1,39
 315 112 315 112 302 107.5 c 128,-1,40
 289 103 289 103 275 100.5 c 128,-1,41
 261 98 261 98 247 98 c 0,42,43
 230 98 230 98 215 103 c 128,-1,44
 200 108 200 108 188.5 117.5 c 128,-1,45
 177 127 177 127 170.5 140.5 c 128,-1,46
 164 154 164 154 164 170 c 0,47,48
 164 188 164 188 173 202.5 c 128,-1,49
 182 217 182 217 197.5 226.5 c 128,-1,50
 213 236 213 236 232.5 241 c 128,-1,51
 252 246 252 246 273 246 c 0,52,53
 295 246 295 246 321 241 c 128,-1,54
 347 236 347 236 370 228 c 1,55,-1
 370 173 l 2,56,57
 370 164 370 164 363.5 154 c 128,-1,58
 357 144 357 144 347 136 c 0,37,38
EndSplineSet
Substitution2: "Single Substitution lookup 45 subtable" ordfeminine
Substitution2: "'ss02' Style Set 2 lookup 30 subtable" a.ss02
Substitution2: "'ss01' Style Set 1 lookup 29 subtable" a.ss01
Substitution2: "'salt' Stylistic Alternatives lookup 28 subtable" a.ss01
AlternateSubs2: "'aalt' Access All Alternates lookup 1 subtable" ordfeminine a.ss01 a.ss02
EndChar

StartChar: b
Encoding: 98 98 69
Width: 637
GlyphClass: 1
Flags: W
LayerCount: 2
Fore
SplineSet
365 -10 m 0,0,1
 418 -10 418 -10 463 11 c 128,-1,2
 508 32 508 32 540.5 68 c 128,-1,3
 573 104 573 104 592 153.5 c 128,-1,4
 611 203 611 203 611 260 c 256,5,6
 611 317 611 317 594 367 c 128,-1,7
 577 417 577 417 547 454 c 128,-1,8
 517 491 517 491 474.5 512.5 c 128,-1,9
 432 534 432 534 382 534 c 0,10,11
 322 534 322 534 277.5 508 c 128,-1,12
 233 482 233 482 206 436 c 1,13,-1
 206 730 l 1,14,-1
 57 730 l 1,15,-1
 57 0 l 1,16,-1
 187 0 l 1,17,-1
 187 88 l 1,18,19
 200 66 200 66 218.5 47.5 c 128,-1,20
 237 29 237 29 259.5 16.5 c 128,-1,21
 282 4 282 4 308.5 -3 c 128,-1,22
 335 -10 335 -10 365 -10 c 0,0,1
324 116 m 0,23,24
 306 116 306 116 288.5 122 c 128,-1,25
 271 128 271 128 255.5 138 c 128,-1,26
 240 148 240 148 227 162.5 c 128,-1,27
 214 177 214 177 206 195 c 1,28,-1
 206 312 l 1,29,30
 215 332 215 332 228 349.5 c 128,-1,31
 241 367 241 367 257.5 380 c 128,-1,32
 274 393 274 393 292.5 400.5 c 128,-1,33
 311 408 311 408 332 408 c 0,34,35
 359 408 359 408 382.5 396 c 128,-1,36
 406 384 406 384 422.5 363.5 c 128,-1,37
 439 343 439 343 448.5 316 c 128,-1,38
 458 289 458 289 458 260 c 0,39,40
 458 230 458 230 448 204 c 128,-1,41
 438 178 438 178 420.5 158.5 c 128,-1,42
 403 139 403 139 378 127.5 c 128,-1,43
 353 116 353 116 324 116 c 0,23,24
EndSplineSet
EndChar

StartChar: c
Encoding: 99 99 70
Width: 568
GlyphClass: 1
Flags: W
LayerCount: 2
Fore
SplineSet
306 -10 m 0,0,1
 350 -10 350 -10 388 0.5 c 128,-1,2
 426 11 426 11 457 29 c 128,-1,3
 488 47 488 47 511.5 72.5 c 128,-1,4
 535 98 535 98 549 128 c 1,5,-1
 404 172 l 1,6,7
 398 160 398 160 387.5 149.5 c 128,-1,8
 377 139 377 139 364 132 c 128,-1,9
 351 125 351 125 336 120.5 c 128,-1,10
 321 116 321 116 304 116 c 0,11,12
 278 116 278 116 255.5 126.5 c 128,-1,13
 233 137 233 137 215.5 156.5 c 128,-1,14
 198 176 198 176 188.5 203 c 128,-1,15
 179 230 179 230 179 263 c 256,16,17
 179 296 179 296 188.5 322.5 c 128,-1,18
 198 349 198 349 215 368 c 128,-1,19
 232 387 232 387 255 397.5 c 128,-1,20
 278 408 278 408 304 408 c 0,21,22
 335 408 335 408 360.5 393.5 c 128,-1,23
 386 379 386 379 402 353 c 1,24,-1
 547 397 l 1,25,26
 517 458 517 458 455.5 496 c 128,-1,27
 394 534 394 534 305 534 c 0,28,29
 239 534 239 534 187.5 512 c 128,-1,30
 136 490 136 490 100 453 c 128,-1,31
 64 416 64 416 45 366.5 c 128,-1,32
 26 317 26 317 26 263 c 0,33,34
 26 208 26 208 45 158.5 c 128,-1,35
 64 109 64 109 100.5 72 c 128,-1,36
 137 35 137 35 188.5 12.5 c 128,-1,37
 240 -10 240 -10 306 -10 c 0,0,1
EndSplineSet
EndChar

StartChar: d
Encoding: 100 100 71
Width: 638
GlyphClass: 1
Flags: W
LayerCount: 2
Fore
SplineSet
581 0 m 1,0,-1
 581 730 l 1,1,-1
 431 730 l 1,2,-1
 431 436 l 1,3,4
 419 458 419 458 401 476 c 128,-1,5
 383 494 383 494 360.5 507 c 128,-1,6
 338 520 338 520 312.5 527 c 128,-1,7
 287 534 287 534 259 534 c 0,8,9
 208 534 208 534 165.5 513 c 128,-1,10
 123 492 123 492 92.5 455.5 c 128,-1,11
 62 419 62 419 44.5 369.5 c 128,-1,12
 27 320 27 320 27 262 c 0,13,14
 27 205 27 205 45.5 155 c 128,-1,15
 64 105 64 105 97 68.5 c 128,-1,16
 130 32 130 32 175.5 11 c 128,-1,17
 221 -10 221 -10 275 -10 c 256,18,19
 329 -10 329 -10 368 12.5 c 128,-1,20
 407 35 407 35 432 78 c 1,21,-1
 432 0 l 1,22,-1
 581 0 l 1,0,-1
432 196 m 1,23,24
 425 178 425 178 412.5 163 c 128,-1,25
 400 148 400 148 384 138 c 128,-1,26
 368 128 368 128 350 122 c 128,-1,27
 332 116 332 116 314 116 c 0,28,29
 286 116 286 116 261.5 127 c 128,-1,30
 237 138 237 138 219 157.5 c 128,-1,31
 201 177 201 177 191 203 c 128,-1,32
 181 229 181 229 181 260 c 0,33,34
 181 289 181 289 190 315.5 c 128,-1,35
 199 342 199 342 215.5 362.5 c 128,-1,36
 232 383 232 383 255.5 395.5 c 128,-1,37
 279 408 279 408 306 408 c 0,38,39
 325 408 325 408 344 400.5 c 128,-1,40
 363 393 363 393 380 380.5 c 128,-1,41
 397 368 397 368 410.5 350.5 c 128,-1,42
 424 333 424 333 432 312 c 1,43,-1
 432 196 l 1,23,24
EndSplineSet
Substitution2: "'ss03' Style Set 3 lookup 31 subtable" d.ss03
Substitution2: "'aalt' Access All Alternates lookup 0 subtable" d.ss03
EndChar

StartChar: e
Encoding: 101 101 72
Width: 602
GlyphClass: 1
Flags: W
LayerCount: 2
Fore
SplineSet
305 -10 m 0,0,1
 349 -10 349 -10 388 0.5 c 128,-1,2
 427 11 427 11 459 29 c 128,-1,3
 491 47 491 47 515 72.5 c 128,-1,4
 539 98 539 98 553 129 c 1,5,-1
 426 165 l 1,6,7
 421 150 421 150 408.5 137.5 c 128,-1,8
 396 125 396 125 380.5 116 c 128,-1,9
 365 107 365 107 346.5 102.5 c 128,-1,10
 328 98 328 98 310 98 c 0,11,12
 287 98 287 98 265 106 c 128,-1,13
 243 114 243 114 225.5 129 c 128,-1,14
 208 144 208 144 197.5 165.5 c 128,-1,15
 187 187 187 187 184 215 c 1,16,-1
 579 215 l 1,17,18
 580 225 580 225 581.5 237.5 c 128,-1,19
 583 250 583 250 583 264 c 0,20,21
 583 317 583 317 564.5 366 c 128,-1,22
 546 415 546 415 510.5 452 c 128,-1,23
 475 489 475 489 423.5 511.5 c 128,-1,24
 372 534 372 534 305 534 c 0,25,26
 240 534 240 534 188 512 c 128,-1,27
 136 490 136 490 100 452.5 c 128,-1,28
 64 415 64 415 45 364.5 c 128,-1,29
 26 314 26 314 26 258 c 0,30,31
 26 204 26 204 45 155.5 c 128,-1,32
 64 107 64 107 100 70 c 128,-1,33
 136 33 136 33 188 11.5 c 128,-1,34
 240 -10 240 -10 305 -10 c 0,0,1
181 308 m 1,35,36
 183 335 183 335 193.5 357 c 128,-1,37
 204 379 204 379 220 394.5 c 128,-1,38
 236 410 236 410 257.5 418.5 c 128,-1,39
 279 427 279 427 304 427 c 0,40,41
 328 427 328 427 349.5 418.5 c 128,-1,42
 371 410 371 410 387.5 394.5 c 128,-1,43
 404 379 404 379 414.5 357 c 128,-1,44
 425 335 425 335 427 308 c 1,45,-1
 181 308 l 1,35,36
EndSplineSet
EndChar

StartChar: f
Encoding: 102 102 73
Width: 378
GlyphClass: 1
Flags: W
LayerCount: 2
Fore
SplineSet
240 0 m 1,0,-1
 240 374 l 1,1,-1
 364 374 l 1,2,-1
 364 488 l 1,3,-1
 240 488 l 1,4,-1
 240 532 l 2,5,6
 240 573 240 573 256 593.5 c 128,-1,7
 272 614 272 614 303 614 c 0,8,9
 320 614 320 614 340 609 c 128,-1,10
 360 604 360 604 376 597 c 1,11,-1
 404 709 l 1,12,13
 370 724 370 724 336.5 732 c 128,-1,14
 303 740 303 740 270 740 c 0,15,16
 230 740 230 740 196.5 725 c 128,-1,17
 163 710 163 710 139.5 682 c 128,-1,18
 116 654 116 654 103.5 615 c 128,-1,19
 91 576 91 576 91 526 c 2,20,-1
 91 488 l 1,21,-1
 23 488 l 1,22,-1
 23 374 l 1,23,-1
 91 374 l 1,24,-1
 91 0 l 1,25,-1
 240 0 l 1,0,-1
EndSplineSet
EndChar

StartChar: g
Encoding: 103 103 74
Width: 638
GlyphClass: 1
Flags: W
LayerCount: 2
Fore
SplineSet
262 -2 m 0,0,1
 315 -2 315 -2 360.5 21 c 128,-1,2
 406 44 406 44 431 88 c 1,3,-1
 431 31 l 2,4,5
 431 -6 431 -6 419 -33 c 128,-1,6
 407 -60 407 -60 386.5 -77.5 c 128,-1,7
 366 -95 366 -95 339 -103 c 128,-1,8
 312 -111 312 -111 282 -111 c 0,9,10
 232 -111 232 -111 188 -91 c 128,-1,11
 144 -71 144 -71 114 -36 c 1,12,-1
 34 -116 l 1,13,14
 77 -167 77 -167 137 -195 c 128,-1,15
 197 -223 197 -223 282 -223 c 0,16,17
 348 -223 348 -223 402.5 -205.5 c 128,-1,18
 457 -188 457 -188 497 -155 c 128,-1,19
 537 -122 537 -122 559 -75 c 128,-1,20
 581 -28 581 -28 581 31 c 2,21,-1
 581 524 l 1,22,-1
 450 524 l 1,23,-1
 450 436 l 1,24,25
 437 458 437 458 418 476.5 c 128,-1,26
 399 495 399 495 376.5 508 c 128,-1,27
 354 521 354 521 328 527.5 c 128,-1,28
 302 534 302 534 272 534 c 0,29,30
 218 534 218 534 173 513 c 128,-1,31
 128 492 128 492 95.5 455.5 c 128,-1,32
 63 419 63 419 45.5 369.5 c 128,-1,33
 28 320 28 320 28 262 c 0,34,35
 28 208 28 208 45 160 c 128,-1,36
 62 112 62 112 92.5 76 c 128,-1,37
 123 40 123 40 166.5 19 c 128,-1,38
 210 -2 210 -2 262 -2 c 0,0,1
313 116 m 0,39,40
 285 116 285 116 260.5 127 c 128,-1,41
 236 138 236 138 218 157 c 128,-1,42
 200 176 200 176 190 202.5 c 128,-1,43
 180 229 180 229 180 259 c 0,44,45
 180 287 180 287 189 314.5 c 128,-1,46
 198 342 198 342 214.5 362.5 c 128,-1,47
 231 383 231 383 254 395.5 c 128,-1,48
 277 408 277 408 305 408 c 0,49,50
 325 408 325 408 343.5 401 c 128,-1,51
 362 394 362 394 379 381.5 c 128,-1,52
 396 369 396 369 409.5 351.5 c 128,-1,53
 423 334 423 334 431 312 c 1,54,-1
 431 196 l 1,55,56
 424 179 424 179 412 164.5 c 128,-1,57
 400 150 400 150 384.5 139.5 c 128,-1,58
 369 129 369 129 351 122.5 c 128,-1,59
 333 116 333 116 313 116 c 0,39,40
EndSplineSet
EndChar

StartChar: h
Encoding: 104 104 75
Width: 609
GlyphClass: 1
Flags: W
LayerCount: 2
Fore
SplineSet
556 332 m 2,0,1
 556 369 556 369 549.5 404.5 c 128,-1,2
 543 440 543 440 525 469 c 128,-1,3
 507 498 507 498 475 516 c 128,-1,4
 443 534 443 534 391 534 c 0,5,6
 332 534 332 534 284 507.5 c 128,-1,7
 236 481 236 481 206 433 c 1,8,-1
 206 730 l 1,9,-1
 57 730 l 1,10,-1
 57 0 l 1,11,-1
 206 0 l 1,12,-1
 206 303 l 1,13,14
 214 325 214 325 227.5 343.5 c 128,-1,15
 241 362 241 362 257.5 375 c 128,-1,16
 274 388 274 388 292 395.5 c 128,-1,17
 310 403 310 403 326 403 c 0,18,19
 363 403 363 403 385 376.5 c 128,-1,20
 407 350 407 350 407 294 c 2,21,-1
 407 0 l 1,22,-1
 556 0 l 1,23,-1
 556 332 l 2,0,1
EndSplineSet
EndChar

StartChar: k
Encoding: 107 107 78
Width: 565
GlyphClass: 1
Flags: W
LayerCount: 2
Fore
SplineSet
571 0 m 1,0,-1
 365 300 l 1,1,-1
 556 524 l 1,2,-1
 398 524 l 1,3,-1
 206 300 l 1,4,-1
 206 730 l 1,5,-1
 57 730 l 1,6,-1
 57 0 l 1,7,-1
 206 0 l 1,8,-1
 206 154 l 1,9,-1
 269 217 l 1,10,-1
 413 0 l 1,11,-1
 571 0 l 1,0,-1
EndSplineSet
EndChar

StartChar: l
Encoding: 108 108 79
Width: 327
GlyphClass: 1
Flags: W
LayerCount: 2
Fore
SplineSet
56 126 m 2,0,1
 56 61 56 61 92 26 c 128,-1,2
 128 -9 128 -9 194 -9 c 0,3,4
 226 -9 226 -9 263.5 -1 c 128,-1,5
 301 7 301 7 331 20 c 1,6,-1
 311 133 l 1,7,8
 298 127 298 127 282 122.5 c 128,-1,9
 266 118 266 118 251 118 c 0,10,11
 240 118 240 118 231.5 121 c 128,-1,12
 223 124 223 124 217 131 c 128,-1,13
 211 138 211 138 208 150 c 128,-1,14
 205 162 205 162 205 179 c 2,15,-1
 205 730 l 1,16,-1
 56 730 l 1,17,-1
 56 126 l 2,0,1
EndSplineSet
Substitution2: "'ss05' Style Set 5 lookup 33 subtable" l.ss05
Substitution2: "'aalt' Access All Alternates lookup 0 subtable" l.ss05
EndChar

StartChar: m
Encoding: 109 109 80
Width: 934
GlyphClass: 1
Flags: W
LayerCount: 2
Fore
SplineSet
881 332 m 2,0,1
 881 367 881 367 874.5 403 c 128,-1,2
 868 439 868 439 851.5 468 c 128,-1,3
 835 497 835 497 804.5 515.5 c 128,-1,4
 774 534 774 534 725 534 c 0,5,6
 662 534 662 534 613 507 c 128,-1,7
 564 480 564 480 533 429 c 1,8,9
 523 472 523 472 487.5 503 c 128,-1,10
 452 534 452 534 387 534 c 0,11,12
 321 534 321 534 271 508 c 128,-1,13
 221 482 221 482 192 433 c 1,14,-1
 192 524 l 1,15,-1
 57 524 l 1,16,-1
 57 0 l 1,17,-1
 206 0 l 1,18,-1
 206 303 l 1,19,20
 214 326 214 326 226 344 c 128,-1,21
 238 362 238 362 253.5 375 c 128,-1,22
 269 388 269 388 286.5 395.5 c 128,-1,23
 304 403 304 403 321 403 c 0,24,25
 355 403 355 403 374.5 377 c 128,-1,26
 394 351 394 351 394 294 c 2,27,-1
 394 0 l 1,28,-1
 543 0 l 1,29,-1
 543 303 l 1,30,31
 551 325 551 325 563 343 c 128,-1,32
 575 361 575 361 590.5 374.5 c 128,-1,33
 606 388 606 388 623 395.5 c 128,-1,34
 640 403 640 403 658 403 c 0,35,36
 692 403 692 403 712 377 c 128,-1,37
 732 351 732 351 732 294 c 2,38,-1
 732 0 l 1,39,-1
 881 0 l 1,40,-1
 881 332 l 2,0,1
EndSplineSet
EndChar

StartChar: n
Encoding: 110 110 81
Width: 609
GlyphClass: 1
Flags: W
LayerCount: 2
Fore
SplineSet
556 332 m 2,0,1
 556 367 556 367 550 403 c 128,-1,2
 544 439 544 439 527 468 c 128,-1,3
 510 497 510 497 479 515.5 c 128,-1,4
 448 534 448 534 397 534 c 0,5,6
 363 534 363 534 332 527.5 c 128,-1,7
 301 521 301 521 275 507.5 c 128,-1,8
 249 494 249 494 227.5 475 c 128,-1,9
 206 456 206 456 192 433 c 1,10,-1
 192 524 l 1,11,-1
 57 524 l 1,12,-1
 57 0 l 1,13,-1
 206 0 l 1,14,-1
 206 303 l 1,15,16
 214 325 214 325 227.5 343 c 128,-1,17
 241 361 241 361 258 374.5 c 128,-1,18
 275 388 275 388 294 395.5 c 128,-1,19
 313 403 313 403 331 403 c 0,20,21
 365 403 365 403 386 377 c 128,-1,22
 407 351 407 351 407 294 c 2,23,-1
 407 0 l 1,24,-1
 556 0 l 1,25,-1
 556 332 l 2,0,1
EndSplineSet
EndChar

StartChar: o
Encoding: 111 111 82
Width: 608
GlyphClass: 1
Flags: W
LayerCount: 2
Fore
SplineSet
304 -10 m 256,0,1
 370 -10 370 -10 421.5 12.5 c 128,-1,2
 473 35 473 35 509 72 c 128,-1,3
 545 109 545 109 563.5 158.5 c 128,-1,4
 582 208 582 208 582 262 c 256,5,6
 582 316 582 316 563 365.5 c 128,-1,7
 544 415 544 415 508.5 452 c 128,-1,8
 473 489 473 489 421.5 511.5 c 128,-1,9
 370 534 370 534 304 534 c 0,10,11
 239 534 239 534 187 511.5 c 128,-1,12
 135 489 135 489 99.5 452 c 128,-1,13
 64 415 64 415 45 365.5 c 128,-1,14
 26 316 26 316 26 262 c 256,15,16
 26 208 26 208 44.5 158.5 c 128,-1,17
 63 109 63 109 99 72 c 128,-1,18
 135 35 135 35 186.5 12.5 c 128,-1,19
 238 -10 238 -10 304 -10 c 256,0,1
179 261 m 256,20,21
 179 293 179 293 188.5 320 c 128,-1,22
 198 347 198 347 215 366.5 c 128,-1,23
 232 386 232 386 254.5 397 c 128,-1,24
 277 408 277 408 304 408 c 0,25,26
 330 408 330 408 353 397 c 128,-1,27
 376 386 376 386 393 366.5 c 128,-1,28
 410 347 410 347 419.5 320.5 c 128,-1,29
 429 294 429 294 429 262 c 256,30,31
 429 230 429 230 419.5 203.5 c 128,-1,32
 410 177 410 177 393 157.5 c 128,-1,33
 376 138 376 138 353 127 c 128,-1,34
 330 116 330 116 304 116 c 0,35,36
 277 116 277 116 254.5 127 c 128,-1,37
 232 138 232 138 215 157 c 128,-1,38
 198 176 198 176 188.5 202.5 c 128,-1,39
 179 229 179 229 179 261 c 256,20,21
EndSplineSet
Substitution2: "Single Substitution lookup 45 subtable" ordmasculine
Substitution2: "'aalt' Access All Alternates lookup 0 subtable" ordmasculine
EndChar

StartChar: p
Encoding: 112 112 83
Width: 637
GlyphClass: 1
Flags: W
LayerCount: 2
Fore
SplineSet
382 -10 m 0,0,1
 432 -10 432 -10 473.5 11 c 128,-1,2
 515 32 515 32 545.5 68.5 c 128,-1,3
 576 105 576 105 593 155.5 c 128,-1,4
 610 206 610 206 610 263 c 256,5,6
 610 320 610 320 591.5 369.5 c 128,-1,7
 573 419 573 419 540.5 455.5 c 128,-1,8
 508 492 508 492 463.5 513 c 128,-1,9
 419 534 419 534 365 534 c 0,10,11
 305 534 305 534 261 508.5 c 128,-1,12
 217 483 217 483 187 438 c 1,13,-1
 187 524 l 1,14,-1
 57 524 l 1,15,-1
 57 -213 l 1,16,-1
 206 -213 l 1,17,-1
 206 88 l 1,18,19
 219 66 219 66 236.5 47.5 c 128,-1,20
 254 29 254 29 276.5 16 c 128,-1,21
 299 3 299 3 325.5 -3.5 c 128,-1,22
 352 -10 352 -10 382 -10 c 0,0,1
332 116 m 0,23,24
 312 116 312 116 293 123.5 c 128,-1,25
 274 131 274 131 258 144.5 c 128,-1,26
 242 158 242 158 228.5 176 c 128,-1,27
 215 194 215 194 206 214 c 1,28,-1
 206 328 l 1,29,30
 214 346 214 346 227 361 c 128,-1,31
 240 376 240 376 255.5 386 c 128,-1,32
 271 396 271 396 288.5 402 c 128,-1,33
 306 408 306 408 324 408 c 0,34,35
 353 408 353 408 377.5 397 c 128,-1,36
 402 386 402 386 419.5 366.5 c 128,-1,37
 437 347 437 347 447.5 321 c 128,-1,38
 458 295 458 295 458 264 c 0,39,40
 458 235 458 235 448.5 208.5 c 128,-1,41
 439 182 439 182 422.5 161 c 128,-1,42
 406 140 406 140 383 128 c 128,-1,43
 360 116 360 116 332 116 c 0,23,24
EndSplineSet
EndChar

StartChar: q
Encoding: 113 113 84
Width: 637
GlyphClass: 1
Flags: W
LayerCount: 2
Fore
SplineSet
255 -10 m 0,0,1
 314 -10 314 -10 358.5 15 c 128,-1,2
 403 40 403 40 431 88 c 1,3,-1
 431 -214 l 1,4,-1
 580 -214 l 1,5,-1
 580 524 l 1,6,-1
 450 524 l 1,7,-1
 450 436 l 1,8,9
 436 458 436 458 417.5 476 c 128,-1,10
 399 494 399 494 376.5 507 c 128,-1,11
 354 520 354 520 328 527 c 128,-1,12
 302 534 302 534 272 534 c 0,13,14
 220 534 220 534 175 513 c 128,-1,15
 130 492 130 492 97.5 455.5 c 128,-1,16
 65 419 65 419 46 370 c 128,-1,17
 27 321 27 321 27 263 c 0,18,19
 27 206 27 206 44 156.5 c 128,-1,20
 61 107 61 107 91.5 70 c 128,-1,21
 122 33 122 33 164 11.5 c 128,-1,22
 206 -10 206 -10 255 -10 c 0,0,1
312 116 m 0,23,24
 283 116 283 116 258.5 127 c 128,-1,25
 234 138 234 138 216.5 157.5 c 128,-1,26
 199 177 199 177 189.5 203 c 128,-1,27
 180 229 180 229 180 260 c 0,28,29
 180 289 180 289 189.5 315.5 c 128,-1,30
 199 342 199 342 216 363 c 128,-1,31
 233 384 233 384 256.5 396 c 128,-1,32
 280 408 280 408 308 408 c 0,33,34
 327 408 327 408 346.5 400.5 c 128,-1,35
 366 393 366 393 382.5 379.5 c 128,-1,36
 399 366 399 366 412 348.5 c 128,-1,37
 425 331 425 331 431 310 c 1,38,-1
 431 194 l 1,39,40
 420 177 420 177 407.5 162.5 c 128,-1,41
 395 148 395 148 380 138 c 128,-1,42
 365 128 365 128 348 122 c 128,-1,43
 331 116 331 116 312 116 c 0,23,24
EndSplineSet
Substitution2: "'ss06' Style Set 6 lookup 34 subtable" q.ss06
Substitution2: "'aalt' Access All Alternates lookup 0 subtable" q.ss06
EndChar

StartChar: r
Encoding: 114 114 85
Width: 395
GlyphClass: 1
Flags: W
LayerCount: 2
Fore
SplineSet
382 531 m 1,0,1
 377 532 377 532 371.5 532 c 128,-1,2
 366 532 366 532 356 532 c 0,3,4
 307 530 307 530 264.5 499.5 c 128,-1,5
 222 469 222 469 194 416 c 1,6,-1
 194 524 l 1,7,-1
 57 524 l 1,8,-1
 57 0 l 1,9,-1
 206 0 l 1,10,-1
 206 316 l 1,11,12
 228 356 228 356 275 376 c 128,-1,13
 322 396 322 396 382 396 c 1,14,-1
 382 531 l 1,0,1
EndSplineSet
EndChar

StartChar: s
Encoding: 115 115 86
Width: 496
GlyphClass: 1
Flags: W
LayerCount: 2
Fore
SplineSet
255 -10 m 0,0,1
 304 -10 304 -10 343 1.5 c 128,-1,2
 382 13 382 13 410 35 c 128,-1,3
 438 57 438 57 453 88 c 128,-1,4
 468 119 468 119 468 159 c 0,5,6
 468 194 468 194 455.5 218.5 c 128,-1,7
 443 243 443 243 418.5 260.5 c 128,-1,8
 394 278 394 278 357.5 292 c 128,-1,9
 321 306 321 306 273 320 c 0,10,11
 251 326 251 326 234.5 331.5 c 128,-1,12
 218 337 218 337 207.5 343.5 c 128,-1,13
 197 350 197 350 191.5 358.5 c 128,-1,14
 186 367 186 367 186 379 c 0,15,16
 186 392 186 392 191.5 401 c 128,-1,17
 197 410 197 410 206.5 415.5 c 128,-1,18
 216 421 216 421 229 423.5 c 128,-1,19
 242 426 242 426 256 426 c 0,20,21
 291 426 291 426 326 412 c 128,-1,22
 361 398 361 398 404 367 c 1,23,-1
 463 461 l 1,24,25
 419 500 419 500 368.5 517.5 c 128,-1,26
 318 535 318 535 263 535 c 0,27,28
 214 535 214 535 174 522.5 c 128,-1,29
 134 510 134 510 106 487 c 128,-1,30
 78 464 78 464 62.5 432.5 c 128,-1,31
 47 401 47 401 47 362 c 0,32,33
 47 328 47 328 58.5 305 c 128,-1,34
 70 282 70 282 92 265 c 128,-1,35
 114 248 114 248 147.5 234.5 c 128,-1,36
 181 221 181 221 225 206 c 0,37,38
 249 199 249 199 267.5 193.5 c 128,-1,39
 286 188 286 188 298.5 181.5 c 128,-1,40
 311 175 311 175 317.5 167 c 128,-1,41
 324 159 324 159 324 147 c 0,42,43
 324 123 324 123 304 111.5 c 128,-1,44
 284 100 284 100 250 100 c 0,45,46
 208 100 208 100 163.5 118 c 128,-1,47
 119 136 119 136 71 172 c 1,48,-1
 19 77 l 1,49,50
 63 34 63 34 125.5 12 c 128,-1,51
 188 -10 188 -10 255 -10 c 0,0,1
EndSplineSet
EndChar

StartChar: t
Encoding: 116 116 87
Width: 395
GlyphClass: 1
Flags: W
LayerCount: 2
Fore
SplineSet
358 146 m 1,0,1
 351 143 351 143 342.5 139.5 c 128,-1,2
 334 136 334 136 324.5 133.5 c 128,-1,3
 315 131 315 131 305.5 129 c 128,-1,4
 296 127 296 127 286 127 c 0,5,6
 266 127 266 127 252.5 138.5 c 128,-1,7
 239 150 239 150 238 177 c 2,8,-1
 238 411 l 1,9,-1
 347 411 l 1,10,-1
 347 524 l 1,11,-1
 238 524 l 1,12,-1
 238 693 l 1,13,-1
 89 693 l 1,14,-1
 89 524 l 1,15,-1
 21 524 l 1,16,-1
 21 411 l 1,17,-1
 89 411 l 1,18,-1
 89 126 l 2,19,20
 89 89 89 89 100 63.5 c 128,-1,21
 111 38 111 38 130.5 21.5 c 128,-1,22
 150 5 150 5 176 -2 c 128,-1,23
 202 -9 202 -9 231 -9 c 0,24,25
 252 -9 252 -9 273.5 -6 c 128,-1,26
 295 -3 295 -3 315 2.5 c 128,-1,27
 335 8 335 8 353 14.5 c 128,-1,28
 371 21 371 21 387 28 c 1,29,-1
 358 146 l 1,0,1
EndSplineSet
Substitution2: "'ss07' Style Set 7 lookup 35 subtable" t.ss07
Substitution2: "'aalt' Access All Alternates lookup 0 subtable" t.ss07
EndChar

StartChar: u
Encoding: 117 117 88
Width: 610
GlyphClass: 1
Flags: W
LayerCount: 2
Fore
SplineSet
553 0 m 1,0,-1
 553 524 l 1,1,-1
 404 524 l 1,2,-1
 404 200 l 1,3,4
 393 179 393 179 379 163.5 c 128,-1,5
 365 148 365 148 349.5 137.5 c 128,-1,6
 334 127 334 127 317.5 121.5 c 128,-1,7
 301 116 301 116 285 116 c 0,8,9
 261 116 261 116 245.5 124 c 128,-1,10
 230 132 230 132 220 146.5 c 128,-1,11
 210 161 210 161 205.5 181 c 128,-1,12
 201 201 201 201 201 224 c 2,13,-1
 201 524 l 1,14,-1
 52 524 l 1,15,-1
 52 192 l 2,16,17
 52 145 52 145 62 107.5 c 128,-1,18
 72 70 72 70 92.5 43.5 c 128,-1,19
 113 17 113 17 146.5 3.5 c 128,-1,20
 180 -10 180 -10 226 -10 c 0,21,22
 254 -10 254 -10 281 -4.5 c 128,-1,23
 308 1 308 1 332 13 c 128,-1,24
 356 25 356 25 376 42.5 c 128,-1,25
 396 60 396 60 410 85 c 1,26,-1
 410 0 l 1,27,-1
 553 0 l 1,0,-1
EndSplineSet
Substitution2: "'ss08' Style Set 8 lookup 36 subtable" u.ss08
Substitution2: "'aalt' Access All Alternates lookup 0 subtable" u.ss08
EndChar

StartChar: v
Encoding: 118 118 89
Width: 553
GlyphClass: 1
Flags: W
LayerCount: 2
Fore
SplineSet
358 0 m 1,0,-1
 546 524 l 1,1,-1
 405 524 l 1,2,-1
 283 135 l 1,3,-1
 161 524 l 1,4,-1
 7 524 l 1,5,-1
 195 0 l 1,6,-1
 358 0 l 1,0,-1
EndSplineSet
EndChar

StartChar: w
Encoding: 119 119 90
Width: 877
GlyphClass: 1
Flags: W
LayerCount: 2
Fore
SplineSet
16 522 m 1,0,-1
 193 0 l 1,1,-1
 341 0 l 1,2,-1
 441 320 l 1,3,-1
 540 0 l 1,4,-1
 688 0 l 1,5,-1
 865 522 l 1,6,-1
 728 522 l 1,7,-1
 607 148 l 1,8,-1
 503 522 l 1,9,-1
 378 522 l 1,10,-1
 274 148 l 1,11,-1
 153 522 l 1,12,-1
 16 522 l 1,0,-1
EndSplineSet
Substitution2: "'ss09' Style Set 9 lookup 37 subtable" w.ss09
Substitution2: "'aalt' Access All Alternates lookup 0 subtable" w.ss09
EndChar

StartChar: x
Encoding: 120 120 91
Width: 538
GlyphClass: 1
Flags: W
LayerCount: 2
Fore
SplineSet
5 524 m 1,0,-1
 183 261 l 1,1,-1
 1 0 l 1,2,-1
 156 0 l 1,3,-1
 260 154 l 1,4,-1
 269 172 l 1,5,-1
 278 154 l 1,6,-1
 381 0 l 1,7,-1
 536 0 l 1,8,-1
 354 264 l 1,9,-1
 533 524 l 1,10,-1
 378 524 l 1,11,-1
 278 370 l 1,12,-1
 269 351 l 1,13,-1
 259 370 l 1,14,-1
 159 524 l 1,15,-1
 5 524 l 1,0,-1
EndSplineSet
EndChar

StartChar: y
Encoding: 121 121 92
Width: 552
GlyphClass: 1
Flags: W
LayerCount: 2
Fore
SplineSet
402 524 m 1,0,-1
 288 145 l 1,1,-1
 157 524 l 1,2,-1
 4 524 l 1,3,-1
 207 0 l 1,4,-1
 122 -213 l 1,5,-1
 296 -213 l 1,6,-1
 542 524 l 1,7,-1
 402 524 l 1,0,-1
EndSplineSet
Substitution2: "'ss10' Style Set 10 lookup 38 subtable" y.ss10
Substitution2: "'aalt' Access All Alternates lookup 0 subtable" y.ss10
EndChar

StartChar: z
Encoding: 122 122 93
Width: 494
GlyphClass: 1
Flags: W
LayerCount: 2
Fore
SplineSet
25 0 m 1,0,-1
 465 0 l 1,1,-1
 465 104 l 1,2,-1
 185 104 l 1,3,-1
 459 434 l 1,4,-1
 459 524 l 1,5,-1
 38 524 l 1,6,-1
 38 421 l 1,7,-1
 301 421 l 1,8,-1
 25 90 l 1,9,-1
 25 0 l 1,0,-1
EndSplineSet
EndChar

StartChar: braceleft
Encoding: 123 123 94
Width: 333
GlyphClass: 1
Flags: W
LayerCount: 2
Fore
SplineSet
282 621 m 1,0,-1
 282 740 l 1,1,-1
 116 740 l 2,2,3
 110 740 110 740 101.5 734 c 128,-1,4
 93 728 93 728 93 710 c 2,5,-1
 93 481 l 2,6,7
 93 469 93 469 88.5 457 c 128,-1,8
 84 445 84 445 76.5 435 c 128,-1,9
 69 425 69 425 60 419 c 128,-1,10
 51 413 51 413 40 413 c 1,11,-1
 40 309 l 1,12,13
 60 305 60 305 76.5 286 c 128,-1,14
 93 267 93 267 93 239 c 2,15,-1
 93 -1 l 2,16,17
 93 -19 93 -19 101 -25 c 128,-1,18
 109 -31 109 -31 116 -31 c 2,19,-1
 282 -31 l 1,20,-1
 282 88 l 1,21,-1
 227 88 l 1,22,-1
 227 289 l 2,23,24
 227 311 227 311 216 328.5 c 128,-1,25
 205 346 205 346 190 360 c 1,26,27
 206 374 206 374 216.5 391.5 c 128,-1,28
 227 409 227 409 227 431 c 2,29,-1
 227 621 l 1,30,-1
 282 621 l 1,0,-1
EndSplineSet
EndChar

StartChar: bar
Encoding: 124 124 95
Width: 283
GlyphClass: 1
Flags: W
LayerCount: 2
Fore
SplineSet
205 -130 m 1,0,-1
 205 775 l 1,1,-1
 78 775 l 1,2,-1
 78 -130 l 1,3,-1
 205 -130 l 1,0,-1
EndSplineSet
EndChar

StartChar: braceright
Encoding: 125 125 96
Width: 333
GlyphClass: 1
Flags: W
LayerCount: 2
Fore
SplineSet
106 621 m 1,0,-1
 106 431 l 2,1,2
 106 409 106 409 116 391.5 c 128,-1,3
 126 374 126 374 142 360 c 1,4,5
 127 346 127 346 116.5 328.5 c 128,-1,6
 106 311 106 311 106 289 c 2,7,-1
 106 88 l 1,8,-1
 51 88 l 1,9,-1
 51 -31 l 1,10,-1
 217 -31 l 2,11,12
 224 -31 224 -31 232 -25 c 128,-1,13
 240 -19 240 -19 240 -1 c 2,14,-1
 240 239 l 2,15,16
 240 267 240 267 256 286 c 128,-1,17
 272 305 272 305 293 309 c 1,18,-1
 293 413 l 1,19,20
 283 413 283 413 273 419 c 128,-1,21
 263 425 263 425 256 435 c 128,-1,22
 249 445 249 445 244.5 457 c 128,-1,23
 240 469 240 469 240 481 c 2,24,-1
 240 710 l 2,25,26
 240 728 240 728 231.5 734 c 128,-1,27
 223 740 223 740 217 740 c 2,28,-1
 51 740 l 1,29,-1
 51 621 l 1,30,-1
 106 621 l 1,0,-1
EndSplineSet
EndChar

StartChar: asciitilde
Encoding: 126 126 97
Width: 579
GlyphClass: 1
Flags: W
LayerCount: 2
Fore
SplineSet
53 224 m 1,0,-1
 134 224 l 1,1,2
 134 225 134 225 136.5 233 c 128,-1,3
 139 241 139 241 145.5 250.5 c 128,-1,4
 152 260 152 260 164.5 268 c 128,-1,5
 177 276 177 276 198 276 c 0,6,7
 220 276 220 276 240.5 268 c 128,-1,8
 261 260 261 260 282.5 250.5 c 128,-1,9
 304 241 304 241 327 232.5 c 128,-1,10
 350 224 350 224 378 224 c 0,11,12
 421 224 421 224 450 243.5 c 128,-1,13
 479 263 479 263 496.5 287.5 c 128,-1,14
 514 312 514 312 521.5 334 c 128,-1,15
 529 356 529 356 529 362 c 1,16,-1
 448 362 l 1,17,18
 448 361 448 361 445 352.5 c 128,-1,19
 442 344 442 344 434.5 335 c 128,-1,20
 427 326 427 326 414 318.5 c 128,-1,21
 401 311 401 311 379 311 c 0,22,23
 356 311 356 311 335.5 319 c 128,-1,24
 315 327 315 327 294 337 c 128,-1,25
 273 347 273 347 250 355.5 c 128,-1,26
 227 364 227 364 199 364 c 0,27,28
 157 364 157 364 129.5 346 c 128,-1,29
 102 328 102 328 84.5 304.5 c 128,-1,30
 67 281 67 281 60 257.5 c 128,-1,31
 53 234 53 234 53 224 c 1,0,-1
EndSplineSet
EndChar

StartChar: exclamdown
Encoding: 161 161 99
Width: 322
GlyphClass: 1
Flags: W
LayerCount: 2
Fore
SplineSet
254 436 m 256,0,1
 254 455 254 455 246.5 472 c 128,-1,2
 239 489 239 489 226 501.5 c 128,-1,3
 213 514 213 514 196.5 521.5 c 128,-1,4
 180 529 180 529 161 529 c 256,5,6
 142 529 142 529 125.5 521.5 c 128,-1,7
 109 514 109 514 96 501.5 c 128,-1,8
 83 489 83 489 75.5 472 c 128,-1,9
 68 455 68 455 68 436 c 256,10,11
 68 417 68 417 75.5 400.5 c 128,-1,12
 83 384 83 384 96 371.5 c 128,-1,13
 109 359 109 359 125.5 351.5 c 128,-1,14
 142 344 142 344 161 344 c 256,15,16
 180 344 180 344 196.5 351.5 c 128,-1,17
 213 359 213 359 226 371.5 c 128,-1,18
 239 384 239 384 246.5 400.5 c 128,-1,19
 254 417 254 417 254 436 c 256,0,1
116 243 m 1,20,-1
 86 -11 l 1,21,-1
 86 -198 l 1,22,-1
 236 -198 l 1,23,-1
 236 -11 l 1,24,-1
 206 243 l 1,25,-1
 116 243 l 1,20,-1
EndSplineSet
EndChar

StartChar: cent
Encoding: 162 162 100
Width: 599
GlyphClass: 1
Flags: W
LayerCount: 2
Fore
SplineSet
342 -120 m 1,0,-1
 342 -10 l 1,1,2
 367 -10 367 -10 399 -1.5 c 128,-1,3
 431 7 431 7 462 24 c 128,-1,4
 493 41 493 41 520 67 c 128,-1,5
 547 93 547 93 563 128 c 1,6,-1
 417 172 l 1,7,8
 413 162 413 162 405 154 c 128,-1,9
 397 146 397 146 387 139 c 128,-1,10
 377 132 377 132 365.5 127.5 c 128,-1,11
 354 123 354 123 342 120 c 1,12,-1
 342 403 l 1,13,14
 363 401 363 401 383 388 c 128,-1,15
 403 375 403 375 416 353 c 1,16,-1
 561 397 l 1,17,18
 527 463 527 463 468.5 496.5 c 128,-1,19
 410 530 410 530 342 532 c 1,20,-1
 342 645 l 1,21,-1
 276 645 l 1,22,-1
 276 532 l 1,23,24
 218 523 218 523 173.5 498 c 128,-1,25
 129 473 129 473 99 436.5 c 128,-1,26
 69 400 69 400 53.5 354.5 c 128,-1,27
 38 309 38 309 38 258 c 0,28,29
 38 210 38 210 56 164 c 128,-1,30
 74 118 74 118 105.5 81 c 128,-1,31
 137 44 137 44 180.5 19.5 c 128,-1,32
 224 -5 224 -5 276 -9 c 1,33,-1
 276 -120 l 1,34,-1
 342 -120 l 1,0,-1
192 258 m 0,35,36
 192 282 192 282 197.5 305 c 128,-1,37
 203 328 203 328 214 346.5 c 128,-1,38
 225 365 225 365 240.5 378 c 128,-1,39
 256 391 256 391 276 396 c 1,40,-1
 276 127 l 1,41,42
 257 134 257 134 241.5 147.5 c 128,-1,43
 226 161 226 161 214.5 178 c 128,-1,44
 203 195 203 195 197.5 215.5 c 128,-1,45
 192 236 192 236 192 258 c 0,35,36
EndSplineSet
EndChar

StartChar: sterling
Encoding: 163 163 101
Width: 556
GlyphClass: 1
Flags: W
LayerCount: 2
Fore
SplineSet
58 272 m 1,0,-1
 445 272 l 1,1,-1
 445 383 l 1,2,-1
 58 383 l 1,3,-1
 58 272 l 1,0,-1
82 -9 m 1,4,5
 116 2 116 2 151.5 8.5 c 128,-1,6
 187 15 187 15 214 15 c 0,7,8
 238 15 238 15 262.5 10.5 c 128,-1,9
 287 6 287 6 310.5 0 c 128,-1,10
 334 -6 334 -6 357.5 -10.5 c 128,-1,11
 381 -15 381 -15 404 -15 c 0,12,13
 433 -15 433 -15 464 -6.5 c 128,-1,14
 495 2 495 2 519 16 c 1,15,-1
 483 127 l 1,16,17
 462 119 462 119 445.5 115.5 c 128,-1,18
 429 112 429 112 411 112 c 0,19,20
 394 112 394 112 377.5 114.5 c 128,-1,21
 361 117 361 117 344.5 120 c 128,-1,22
 328 123 328 123 311.5 125.5 c 128,-1,23
 295 128 295 128 277 128 c 0,24,25
 260 128 260 128 241.5 125 c 128,-1,26
 223 122 223 122 201 115 c 1,27,28
 222 138 222 138 237.5 159 c 128,-1,29
 253 180 253 180 263 200 c 128,-1,30
 273 220 273 220 277 241 c 128,-1,31
 281 262 281 262 281 284 c 0,32,33
 281 323 281 323 270 355.5 c 128,-1,34
 259 388 259 388 245 416 c 128,-1,35
 231 444 231 444 219.5 469.5 c 128,-1,36
 208 495 208 495 208 520 c 0,37,38
 208 536 208 536 214 549.5 c 128,-1,39
 220 563 220 563 230 573 c 128,-1,40
 240 583 240 583 254.5 588.5 c 128,-1,41
 269 594 269 594 286 594 c 0,42,43
 321 594 321 594 359.5 572.5 c 128,-1,44
 398 551 398 551 423 518 c 1,45,-1
 501 610 l 1,46,47
 462 660 462 660 405.5 687.5 c 128,-1,48
 349 715 349 715 287 715 c 0,49,50
 243 715 243 715 204.5 701 c 128,-1,51
 166 687 166 687 137 663 c 128,-1,52
 108 639 108 639 91.5 606 c 128,-1,53
 75 573 75 573 75 535 c 0,54,55
 75 501 75 501 87.5 469.5 c 128,-1,56
 100 438 100 438 114.5 407 c 128,-1,57
 129 376 129 376 141 344 c 128,-1,58
 153 312 153 312 153 277 c 0,59,60
 153 254 153 254 146.5 230 c 128,-1,61
 140 206 140 206 127 182.5 c 128,-1,62
 114 159 114 159 94.5 138 c 128,-1,63
 75 117 75 117 51 97 c 1,64,-1
 82 -9 l 1,4,5
EndSplineSet
EndChar

StartChar: currency
Encoding: 164 164 102
Width: 557
GlyphClass: 1
Flags: W
LayerCount: 2
Fore
SplineSet
104 570 m 1,0,-1
 45 511 l 1,1,-1
 112 443 l 1,2,3
 98 420 98 420 90.5 393 c 128,-1,4
 83 366 83 366 83 338 c 0,5,6
 83 308 83 308 91 281 c 128,-1,7
 99 254 99 254 113 231 c 1,8,-1
 45 163 l 1,9,-1
 99 109 l 1,10,-1
 171 177 l 1,11,12
 194 164 194 164 220.5 157 c 128,-1,13
 247 150 247 150 279 150 c 0,14,15
 310 150 310 150 336.5 156.5 c 128,-1,16
 363 163 363 163 385 177 c 1,17,-1
 457 109 l 1,18,-1
 511 163 l 1,19,-1
 443 230 l 1,20,21
 459 253 459 253 467.5 280.5 c 128,-1,22
 476 308 476 308 476 338 c 0,23,24
 476 367 476 367 467.5 394 c 128,-1,25
 459 421 459 421 444 444 c 1,26,-1
 511 511 l 1,27,-1
 452 570 l 1,28,-1
 383 500 l 1,29,30
 361 512 361 512 335 519 c 128,-1,31
 309 526 309 526 279 526 c 0,32,33
 248 526 248 526 222 519 c 128,-1,34
 196 512 196 512 174 499 c 1,35,-1
 104 570 l 1,0,-1
191 337 m 256,36,37
 191 358 191 358 198 376 c 128,-1,38
 205 394 205 394 216.5 407 c 128,-1,39
 228 420 228 420 244 427 c 128,-1,40
 260 434 260 434 279 434 c 256,41,42
 298 434 298 434 314 427 c 128,-1,43
 330 420 330 420 342 407.5 c 128,-1,44
 354 395 354 395 360.5 377 c 128,-1,45
 367 359 367 359 367 338 c 256,46,47
 367 317 367 317 360.5 299 c 128,-1,48
 354 281 354 281 342 268.5 c 128,-1,49
 330 256 330 256 314 248.5 c 128,-1,50
 298 241 298 241 279 241 c 256,51,52
 260 241 260 241 244 248.5 c 128,-1,53
 228 256 228 256 216.5 268 c 128,-1,54
 205 280 205 280 198 298 c 128,-1,55
 191 316 191 316 191 337 c 256,36,37
EndSplineSet
EndChar

StartChar: yen
Encoding: 165 165 103
Width: 720
GlyphClass: 1
Flags: W
LayerCount: 2
Fore
SplineSet
689 710 m 1,0,-1
 522 710 l 1,1,-1
 358 378 l 1,2,-1
 195 710 l 1,3,-1
 30 710 l 1,4,-1
 196 410 l 1,5,-1
 124 410 l 1,6,-1
 124 314 l 1,7,-1
 246 314 l 1,8,-1
 281 247 l 1,9,-1
 281 214 l 1,10,-1
 124 214 l 1,11,-1
 124 118 l 1,12,-1
 281 118 l 1,13,-1
 281 0 l 1,14,-1
 434 0 l 1,15,-1
 434 118 l 1,16,-1
 593 118 l 1,17,-1
 593 214 l 1,18,-1
 434 214 l 1,19,-1
 434 245 l 1,20,-1
 471 314 l 1,21,-1
 592 314 l 1,22,-1
 592 410 l 1,23,-1
 521 410 l 1,24,-1
 689 710 l 1,0,-1
EndSplineSet
EndChar

StartChar: brokenbar
Encoding: 166 166 104
Width: 286
GlyphClass: 1
Flags: W
LayerCount: 2
Fore
SplineSet
80 262 m 1,0,-1
 80 -130 l 1,1,-1
 206 -130 l 1,2,-1
 206 262 l 1,3,-1
 80 262 l 1,0,-1
80 775 m 1,4,-1
 80 383 l 1,5,-1
 206 383 l 1,6,-1
 206 775 l 1,7,-1
 80 775 l 1,4,-1
EndSplineSet
EndChar

StartChar: section
Encoding: 167 167 105
Width: 537
GlyphClass: 1
Flags: W
LayerCount: 2
Fore
SplineSet
465 220 m 1,0,1
 470 228 470 228 477 249.5 c 128,-1,2
 484 271 484 271 484 300 c 0,3,4
 484 347 484 347 463.5 379 c 128,-1,5
 443 411 443 411 411.5 431 c 128,-1,6
 380 451 380 451 341 460 c 128,-1,7
 302 469 302 469 265 470 c 0,8,9
 250 470 250 470 236.5 472.5 c 128,-1,10
 223 475 223 475 213.5 481 c 128,-1,11
 204 487 204 487 198 497 c 128,-1,12
 192 507 192 507 192 523 c 0,13,14
 192 537 192 537 197.5 548 c 128,-1,15
 203 559 203 559 212.5 566.5 c 128,-1,16
 222 574 222 574 235.5 578.5 c 128,-1,17
 249 583 249 583 266 583 c 0,18,19
 282 583 282 583 296 579 c 128,-1,20
 310 575 310 575 322.5 568.5 c 128,-1,21
 335 562 335 562 344.5 552.5 c 128,-1,22
 354 543 354 543 361 532 c 1,23,-1
 475 585 l 1,24,25
 462 604 462 604 443 626.5 c 128,-1,26
 424 649 424 649 397.5 668.5 c 128,-1,27
 371 688 371 688 336 701.5 c 128,-1,28
 301 715 301 715 257 715 c 0,29,30
 211 715 211 715 171.5 699 c 128,-1,31
 132 683 132 683 103.5 656.5 c 128,-1,32
 75 630 75 630 58.5 595 c 128,-1,33
 42 560 42 560 42 521 c 256,34,35
 42 482 42 482 55 453.5 c 128,-1,36
 68 425 68 425 80 413 c 1,37,38
 76 404 76 404 69.5 387 c 128,-1,39
 63 370 63 370 63 341 c 0,40,41
 63 303 63 303 76.5 271.5 c 128,-1,42
 90 240 90 240 117 216.5 c 128,-1,43
 144 193 144 193 183 178.5 c 128,-1,44
 222 164 222 164 273 160 c 0,45,46
 285 159 285 159 297 157 c 128,-1,47
 309 155 309 155 319.5 150.5 c 128,-1,48
 330 146 330 146 336 136.5 c 128,-1,49
 342 127 342 127 342 113 c 256,50,51
 342 99 342 99 335.5 87.5 c 128,-1,52
 329 76 329 76 318 68.5 c 128,-1,53
 307 61 307 61 293 57.5 c 128,-1,54
 279 54 279 54 263 54 c 0,55,56
 233 54 233 54 204 66.5 c 128,-1,57
 175 79 175 79 146 110 c 1,58,-1
 50 19 l 1,59,60
 62 5 62 5 82.5 -13.5 c 128,-1,61
 103 -32 103 -32 131 -48.5 c 128,-1,62
 159 -65 159 -65 194.5 -76.5 c 128,-1,63
 230 -88 230 -88 270 -88 c 0,64,65
 305 -88 305 -88 345 -77 c 128,-1,66
 385 -66 385 -66 418.5 -41.5 c 128,-1,67
 452 -17 452 -17 474.5 22.5 c 128,-1,68
 497 62 497 62 497 118 c 0,69,70
 497 156 497 156 488 181 c 128,-1,71
 479 206 479 206 465 220 c 1,0,1
208 320 m 0,72,73
 208 332 208 332 212 342 c 128,-1,74
 216 352 216 352 222 358 c 1,75,76
 228 356 228 356 242 353.5 c 128,-1,77
 256 351 256 351 271 351 c 0,78,79
 282 351 282 351 294.5 348 c 128,-1,80
 307 345 307 345 317.5 338.5 c 128,-1,81
 328 332 328 332 335 321.5 c 128,-1,82
 342 311 342 311 342 295 c 0,83,84
 342 284 342 284 338 273.5 c 128,-1,85
 334 263 334 263 326 256 c 1,86,87
 317 260 317 260 304.5 261 c 128,-1,88
 292 262 292 262 279.5 264 c 128,-1,89
 267 266 267 266 254 268.5 c 128,-1,90
 241 271 241 271 230.5 277 c 128,-1,91
 220 283 220 283 214 293.5 c 128,-1,92
 208 304 208 304 208 320 c 0,72,73
EndSplineSet
EndChar

StartChar: copyright
Encoding: 169 169 107
Width: 843
GlyphClass: 1
Flags: W
LayerCount: 2
Fore
SplineSet
418 -7 m 0,0,1
 500 -7 500 -7 570.5 20.5 c 128,-1,2
 641 48 641 48 692.5 96.5 c 128,-1,3
 744 145 744 145 773 211 c 128,-1,4
 802 277 802 277 802 355 c 0,5,6
 802 432 802 432 773 498 c 128,-1,7
 744 564 744 564 692.5 612 c 128,-1,8
 641 660 641 660 570.5 687.5 c 128,-1,9
 500 715 500 715 418 715 c 0,10,11
 337 715 337 715 268 687.5 c 128,-1,12
 199 660 199 660 148.5 612 c 128,-1,13
 98 564 98 564 70 498 c 128,-1,14
 42 432 42 432 42 355 c 0,15,16
 42 277 42 277 70 211 c 128,-1,17
 98 145 98 145 148.5 96.5 c 128,-1,18
 199 48 199 48 268 20.5 c 128,-1,19
 337 -7 337 -7 418 -7 c 0,0,1
418 49 m 256,20,21
 350 49 350 49 292 72.5 c 128,-1,22
 234 96 234 96 192 137.5 c 128,-1,23
 150 179 150 179 126 235 c 128,-1,24
 102 291 102 291 102 355 c 256,25,26
 102 419 102 419 126 474 c 128,-1,27
 150 529 150 529 192.5 570.5 c 128,-1,28
 235 612 235 612 293 635.5 c 128,-1,29
 351 659 351 659 418 659 c 0,30,31
 487 659 487 659 546.5 635.5 c 128,-1,32
 606 612 606 612 649 570.5 c 128,-1,33
 692 529 692 529 716.5 474 c 128,-1,34
 741 419 741 419 741 354 c 0,35,36
 741 287 741 287 716 230.5 c 128,-1,37
 691 174 691 174 647.5 134 c 128,-1,38
 604 94 604 94 545 71.5 c 128,-1,39
 486 49 486 49 418 49 c 256,20,21
427 120 m 0,40,41
 469 120 469 120 504.5 130.5 c 128,-1,42
 540 141 540 141 568.5 159 c 128,-1,43
 597 177 597 177 617.5 201 c 128,-1,44
 638 225 638 225 650 251 c 1,45,-1
 509 294 l 1,46,47
 503 282 503 282 494 272.5 c 128,-1,48
 485 263 485 263 474 256.5 c 128,-1,49
 463 250 463 250 450.5 246.5 c 128,-1,50
 438 243 438 243 425 243 c 0,51,52
 406 243 406 243 388 250.5 c 128,-1,53
 370 258 370 258 356 272 c 128,-1,54
 342 286 342 286 333 307 c 128,-1,55
 324 328 324 328 324 354 c 0,56,57
 324 378 324 378 331 398.5 c 128,-1,58
 338 419 338 419 351 434 c 128,-1,59
 364 449 364 449 382.5 457.5 c 128,-1,60
 401 466 401 466 424 466 c 0,61,62
 436 466 436 466 447.5 463.5 c 128,-1,63
 459 461 459 461 470 455 c 128,-1,64
 481 449 481 449 490.5 439.5 c 128,-1,65
 500 430 500 430 507 416 c 1,66,-1
 648 460 l 1,67,68
 621 519 621 519 563.5 554 c 128,-1,69
 506 589 506 589 425 589 c 0,70,71
 364 589 364 589 317 569.5 c 128,-1,72
 270 550 270 550 239 517 c 128,-1,73
 208 484 208 484 192 442 c 128,-1,74
 176 400 176 400 176 354 c 0,75,76
 176 306 176 306 194 263.5 c 128,-1,77
 212 221 212 221 244.5 189 c 128,-1,78
 277 157 277 157 323.5 138.5 c 128,-1,79
 370 120 370 120 427 120 c 0,40,41
EndSplineSet
EndChar

StartChar: ordfeminine
Encoding: 170 170 108
Width: 446
GlyphClass: 1
Flags: W
LayerCount: 2
Fore
SplineSet
159 337 m 0,0,1
 196 337 196 337 228 353.5 c 128,-1,2
 260 370 260 370 284 402 c 1,3,-1
 284 346 l 1,4,-1
 373 346 l 1,5,-1
 373 562 l 2,6,7
 373 636 373 636 330 674.5 c 128,-1,8
 287 713 287 713 207 713 c 0,9,10
 165 713 165 713 127.5 701.5 c 128,-1,11
 90 690 90 690 55 667 c 1,12,-1
 87 600 l 1,13,14
 116 620 116 620 142 630 c 128,-1,15
 168 640 168 640 197 640 c 0,16,17
 233 640 233 640 250 623 c 128,-1,18
 267 606 267 606 267 574 c 2,19,-1
 267 558 l 1,20,21
 251 565 251 565 230.5 569 c 128,-1,22
 210 573 210 573 188 573 c 0,23,24
 122 573 122 573 80 539.5 c 128,-1,25
 38 506 38 506 38 453 c 0,26,27
 38 428 38 428 47 407 c 128,-1,28
 56 386 56 386 72.5 370.5 c 128,-1,29
 89 355 89 355 111 346 c 128,-1,30
 133 337 133 337 159 337 c 0,0,1
190 416 m 0,31,32
 168 416 168 416 153 429 c 128,-1,33
 138 442 138 442 138 462 c 0,34,35
 138 485 138 485 157 499 c 128,-1,36
 176 513 176 513 206 513 c 0,37,38
 221 513 221 513 237 510 c 128,-1,39
 253 507 253 507 267 501 c 1,40,-1
 267 465 l 2,41,42
 267 459 267 459 263.5 452 c 128,-1,43
 260 445 260 445 252 439 c 0,44,45
 242 429 242 429 225 422.5 c 128,-1,46
 208 416 208 416 190 416 c 0,31,32
EndSplineSet
EndChar

StartChar: guillemotleft
Encoding: 171 171 109
Width: 666
GlyphClass: 1
Flags: W
LayerCount: 2
Fore
SplineSet
34 220 m 1,0,-1
 301 42 l 1,1,-1
 301 163 l 1,2,-1
 152 259 l 1,3,-1
 301 361 l 1,4,-1
 301 482 l 1,5,-1
 34 291 l 1,6,-1
 34 220 l 1,0,-1
341 220 m 1,7,-1
 609 42 l 1,8,-1
 609 163 l 1,9,-1
 459 259 l 1,10,-1
 609 361 l 1,11,-1
 609 482 l 1,12,-1
 341 291 l 1,13,-1
 341 220 l 1,7,-1
EndSplineSet
EndChar

StartChar: logicalnot
Encoding: 172 172 110
Width: 619
GlyphClass: 1
Flags: W
LayerCount: 2
Fore
SplineSet
56 409 m 1,0,-1
 56 275 l 1,1,-1
 429 275 l 1,2,-1
 429 101 l 1,3,-1
 555 101 l 1,4,-1
 555 409 l 1,5,-1
 56 409 l 1,0,-1
EndSplineSet
EndChar

StartChar: uni00AD
Encoding: 173 173 111
Width: 610
GlyphClass: 1
Flags: W
LayerCount: 2
Fore
SplineSet
555 208 m 1,0,-1
 555 342 l 1,1,-1
 56 342 l 1,2,-1
 56 208 l 1,3,-1
 555 208 l 1,0,-1
EndSplineSet
EndChar

StartChar: registered
Encoding: 174 174 112
Width: 843
GlyphClass: 1
Flags: W
LayerCount: 2
Fore
SplineSet
419 -7 m 256,0,1
 501 -7 501 -7 571 20.5 c 128,-1,2
 641 48 641 48 692.5 96.5 c 128,-1,3
 744 145 744 145 773 211 c 128,-1,4
 802 277 802 277 802 355 c 0,5,6
 802 432 802 432 773 498 c 128,-1,7
 744 564 744 564 692.5 612 c 128,-1,8
 641 660 641 660 571 687.5 c 128,-1,9
 501 715 501 715 419 715 c 0,10,11
 338 715 338 715 268.5 687.5 c 128,-1,12
 199 660 199 660 148.5 612 c 128,-1,13
 98 564 98 564 70 498 c 128,-1,14
 42 432 42 432 42 355 c 0,15,16
 42 277 42 277 70 211 c 128,-1,17
 98 145 98 145 148.5 96.5 c 128,-1,18
 199 48 199 48 268 20.5 c 128,-1,19
 337 -7 337 -7 419 -7 c 256,0,1
420 48 m 0,20,21
 351 48 351 48 293.5 72 c 128,-1,22
 236 96 236 96 194 137.5 c 128,-1,23
 152 179 152 179 128.5 234.5 c 128,-1,24
 105 290 105 290 105 354 c 256,25,26
 105 418 105 418 128.5 473.5 c 128,-1,27
 152 529 152 529 194 570.5 c 128,-1,28
 236 612 236 612 293.5 635.5 c 128,-1,29
 351 659 351 659 420 659 c 256,30,31
 489 659 489 659 547 635.5 c 128,-1,32
 605 612 605 612 647.5 570.5 c 128,-1,33
 690 529 690 529 714 473 c 128,-1,34
 738 417 738 417 738 353 c 0,35,36
 738 286 738 286 713.5 230.5 c 128,-1,37
 689 175 689 175 646 134.5 c 128,-1,38
 603 94 603 94 545 71 c 128,-1,39
 487 48 487 48 420 48 c 0,20,21
255 138 m 1,40,-1
 361 138 l 1,41,-1
 361 282 l 1,42,-1
 412 282 l 1,43,-1
 501 138 l 1,44,-1
 619 138 l 1,45,-1
 517 301 l 1,46,47
 534 309 534 309 548 322.5 c 128,-1,48
 562 336 562 336 572 352.5 c 128,-1,49
 582 369 582 369 587.5 388 c 128,-1,50
 593 407 593 407 593 427 c 0,51,52
 593 454 593 454 582.5 480.5 c 128,-1,53
 572 507 572 507 553 528 c 128,-1,54
 534 549 534 549 508.5 562 c 128,-1,55
 483 575 483 575 452 575 c 2,56,-1
 255 575 l 1,57,-1
 255 138 l 1,40,-1
361 368 m 1,58,-1
 361 486 l 1,59,-1
 440 486 l 2,60,61
 449 486 449 486 458 482.5 c 128,-1,62
 467 479 467 479 474 472 c 128,-1,63
 481 465 481 465 485 454 c 128,-1,64
 489 443 489 443 489 427 c 0,65,66
 489 412 489 412 485.5 401 c 128,-1,67
 482 390 482 390 476 383 c 128,-1,68
 470 376 470 376 461.5 372 c 128,-1,69
 453 368 453 368 442 368 c 2,70,-1
 361 368 l 1,58,-1
EndSplineSet
EndChar

StartChar: degree
Encoding: 176 176 114
Width: 289
GlyphClass: 1
Flags: W
LayerCount: 2
Fore
SplineSet
37 621 m 0,0,1
 37 572 37 572 67 541 c 128,-1,2
 97 510 97 510 144 510 c 256,3,4
 191 510 191 510 221 540.5 c 128,-1,5
 251 571 251 571 251 621 c 0,6,7
 251 665 251 665 221 694.5 c 128,-1,8
 191 724 191 724 144 724 c 256,9,10
 97 724 97 724 67 694.5 c 128,-1,11
 37 665 37 665 37 621 c 0,0,1
119 642 m 256,12,13
 124 647 124 647 130.5 649.5 c 128,-1,14
 137 652 137 652 144 652 c 256,15,16
 151 652 151 652 158 650 c 128,-1,17
 165 648 165 648 170 642 c 0,18,19
 175 637 175 637 177.5 631 c 128,-1,20
 180 625 180 625 180 617 c 0,21,22
 180 611 180 611 177.5 604 c 128,-1,23
 175 597 175 597 170 592 c 256,24,25
 165 587 165 587 158 584 c 128,-1,26
 151 581 151 581 144 581 c 256,27,28
 137 581 137 581 130.5 584 c 128,-1,29
 124 587 124 587 119 592 c 0,30,31
 114 596 114 596 111 603 c 128,-1,32
 108 610 108 610 108 617 c 0,33,34
 108 625 108 625 111 631 c 128,-1,35
 114 637 114 637 119 642 c 256,12,13
EndSplineSet
EndChar

StartChar: plusminus
Encoding: 177 177 115
Width: 474
GlyphClass: 1
Flags: W
LayerCount: 2
Fore
SplineSet
417 21 m 1,0,-1
 417 140 l 1,1,-1
 56 140 l 1,2,-1
 56 21 l 1,3,-1
 417 21 l 1,0,-1
304 439 m 1,4,-1
 304 562 l 1,5,-1
 170 562 l 1,6,-1
 170 439 l 1,7,-1
 57 439 l 1,8,-1
 57 320 l 1,9,-1
 170 320 l 1,10,-1
 170 197 l 1,11,-1
 304 197 l 1,12,-1
 304 320 l 1,13,-1
 418 320 l 1,14,-1
 418 439 l 1,15,-1
 304 439 l 1,4,-1
EndSplineSet
EndChar

StartChar: twosuperior
Encoding: 178 178 116
Width: 423
GlyphClass: 1
Flags: W
LayerCount: 2
Fore
SplineSet
389 386 m 1,0,-1
 389 471 l 1,1,-1
 165 471 l 1,2,3
 165 483 165 483 171 493.5 c 128,-1,4
 177 504 177 504 190 513 c 128,-1,5
 203 522 203 522 220.5 530 c 128,-1,6
 238 538 238 538 261 545 c 0,7,8
 279 550 279 550 301.5 560 c 128,-1,9
 324 570 324 570 344 586.5 c 128,-1,10
 364 603 364 603 377.5 627 c 128,-1,11
 391 651 391 651 391 685 c 0,12,13
 391 716 391 716 380 740 c 128,-1,14
 369 764 369 764 347.5 781 c 128,-1,15
 326 798 326 798 294 807.5 c 128,-1,16
 262 817 262 817 221 817 c 0,17,18
 185 817 185 817 154.5 810.5 c 128,-1,19
 124 804 124 804 99.5 794 c 128,-1,20
 75 784 75 784 58 772 c 128,-1,21
 41 760 41 760 32 748 c 1,22,-1
 87 684 l 1,23,24
 96 693 96 693 108.5 702.5 c 128,-1,25
 121 712 121 712 136.5 720 c 128,-1,26
 152 728 152 728 170.5 732.5 c 128,-1,27
 189 737 189 737 210 737 c 0,28,29
 249 737 249 737 271.5 721.5 c 128,-1,30
 294 706 294 706 294 680 c 0,31,32
 294 660 294 660 281.5 646 c 128,-1,33
 269 632 269 632 249.5 621 c 128,-1,34
 230 610 230 610 206 601 c 128,-1,35
 182 592 182 592 160 582 c 0,36,37
 123 565 123 565 97.5 547 c 128,-1,38
 72 529 72 529 57 506.5 c 128,-1,39
 42 484 42 484 35.5 454.5 c 128,-1,40
 29 425 29 425 29 386 c 1,41,-1
 389 386 l 1,0,-1
EndSplineSet
EndChar

StartChar: threesuperior
Encoding: 179 179 117
Width: 411
GlyphClass: 1
Flags: W
LayerCount: 2
Fore
SplineSet
197 379 m 0,0,1
 233 379 233 379 265.5 386 c 128,-1,2
 298 393 298 393 323.5 408 c 128,-1,3
 349 423 349 423 364 446 c 128,-1,4
 379 469 379 469 379 501 c 0,5,6
 379 542 379 542 354 573 c 128,-1,7
 329 604 329 604 285 611 c 1,8,9
 324 619 324 619 346 642 c 128,-1,10
 368 665 368 665 368 700 c 0,11,12
 368 725 368 725 356 746.5 c 128,-1,13
 344 768 344 768 321.5 783.5 c 128,-1,14
 299 799 299 799 268 808 c 128,-1,15
 237 817 237 817 199 817 c 0,16,17
 174 817 174 817 149 813.5 c 128,-1,18
 124 810 124 810 100.5 802.5 c 128,-1,19
 77 795 77 795 57.5 784 c 128,-1,20
 38 773 38 773 27 759 c 1,21,-1
 80 692 l 1,22,23
 97 711 97 711 125 725 c 128,-1,24
 153 739 153 739 192 739 c 0,25,26
 206 739 206 739 219.5 736.5 c 128,-1,27
 233 734 233 734 244 728.5 c 128,-1,28
 255 723 255 723 262 714 c 128,-1,29
 269 705 269 705 269 692 c 0,30,31
 269 668 269 668 242.5 656.5 c 128,-1,32
 216 645 216 645 159 645 c 2,33,-1
 135 645 l 1,34,-1
 135 567 l 1,35,-1
 159 567 l 2,36,37
 225 567 225 567 254.5 554.5 c 128,-1,38
 284 542 284 542 284 516 c 0,39,40
 284 489 284 489 257 476.5 c 128,-1,41
 230 464 230 464 193 464 c 0,42,43
 170 464 170 464 151 468.5 c 128,-1,44
 132 473 132 473 116.5 480.5 c 128,-1,45
 101 488 101 488 90.5 497 c 128,-1,46
 80 506 80 506 72 516 c 1,47,-1
 27 456 l 1,48,49
 43 418 43 418 89.5 398.5 c 128,-1,50
 136 379 136 379 197 379 c 0,0,1
EndSplineSet
EndChar

StartChar: uni00B5
Encoding: 181 181 119
Width: 676
GlyphClass: 1
Flags: W
LayerCount: 2
Fore
SplineSet
76 -213 m 1,0,-1
 225 -213 l 1,1,-1
 216 42 l 1,2,3
 219 35 219 35 224.5 26.5 c 128,-1,4
 230 18 230 18 240.5 9.5 c 128,-1,5
 251 1 251 1 265.5 -4.5 c 128,-1,6
 280 -10 280 -10 299 -10 c 0,7,8
 324 -10 324 -10 348 0.5 c 128,-1,9
 372 11 372 11 392.5 26.5 c 128,-1,10
 413 42 413 42 428.5 60 c 128,-1,11
 444 78 444 78 451 94 c 1,12,-1
 464 0 l 1,13,-1
 578 0 l 1,14,-1
 578 524 l 1,15,-1
 428 524 l 1,16,-1
 428 200 l 1,17,18
 416 178 416 178 402 162 c 128,-1,19
 388 146 388 146 372.5 136 c 128,-1,20
 357 126 357 126 340.5 121 c 128,-1,21
 324 116 324 116 308 116 c 0,22,23
 266 116 266 116 245.5 143.5 c 128,-1,24
 225 171 225 171 225 224 c 2,25,-1
 225 524 l 1,26,-1
 76 524 l 1,27,-1
 76 -213 l 1,0,-1
EndSplineSet
EndChar

StartChar: paragraph
Encoding: 182 182 120
Width: 670
GlyphClass: 1
Flags: W
LayerCount: 2
Fore
SplineSet
34 453 m 0,0,1
 34 397 34 397 50 350.5 c 128,-1,2
 66 304 66 304 95 271.5 c 128,-1,3
 124 239 124 239 165 221 c 128,-1,4
 206 203 206 203 256 202 c 1,5,-1
 256 -80 l 1,6,-1
 382 -80 l 1,7,-1
 382 202 l 1,8,-1
 427 202 l 1,9,-1
 427 -80 l 1,10,-1
 554 -80 l 1,11,-1
 554 599 l 1,12,-1
 624 599 l 1,13,-1
 624 710 l 1,14,-1
 316 710 l 2,15,16
 182 710 182 710 108 643 c 128,-1,17
 34 576 34 576 34 453 c 0,0,1
159 457 m 0,18,19
 159 518 159 518 184.5 557 c 128,-1,20
 210 596 210 596 256 599 c 1,21,-1
 256 314 l 1,22,23
 235 316 235 316 217.5 326.5 c 128,-1,24
 200 337 200 337 187 355.5 c 128,-1,25
 174 374 174 374 166.5 399.5 c 128,-1,26
 159 425 159 425 159 457 c 0,18,19
427 314 m 1,27,-1
 382 314 l 1,28,-1
 382 599 l 1,29,-1
 427 599 l 1,30,-1
 427 314 l 1,27,-1
EndSplineSet
EndChar

StartChar: onesuperior
Encoding: 185 185 123
Width: 305
GlyphClass: 1
Flags: W
LayerCount: 2
Fore
SplineSet
214 473 m 1,0,-1
 214 817 l 1,1,-1
 125 817 l 1,2,3
 125 816 125 816 116 807 c 128,-1,4
 107 798 107 798 93.5 787.5 c 128,-1,5
 80 777 80 777 63.5 768 c 128,-1,6
 47 759 47 759 32 759 c 1,7,-1
 32 672 l 1,8,9
 44 672 44 672 58 677.5 c 128,-1,10
 72 683 72 683 85 691 c 128,-1,11
 98 699 98 699 109 708 c 128,-1,12
 120 717 120 717 125 723 c 1,13,-1
 125 473 l 1,14,-1
 48 473 l 1,15,-1
 48 387 l 1,16,-1
 284 387 l 1,17,-1
 284 473 l 1,18,-1
 214 473 l 1,0,-1
EndSplineSet
EndChar

StartChar: ordmasculine
Encoding: 186 186 124
Width: 442
GlyphClass: 1
Flags: W
LayerCount: 2
Fore
SplineSet
221 337 m 256,0,1
 266 337 266 337 301 352.5 c 128,-1,2
 336 368 336 368 360 394 c 128,-1,3
 384 420 384 420 396 454 c 128,-1,4
 408 488 408 488 408 525 c 0,5,6
 408 563 408 563 396 597.5 c 128,-1,7
 384 632 384 632 360 657.5 c 128,-1,8
 336 683 336 683 301 698 c 128,-1,9
 266 713 266 713 221 713 c 256,10,11
 176 713 176 713 141.5 698 c 128,-1,12
 107 683 107 683 83 657.5 c 128,-1,13
 59 632 59 632 46.5 597.5 c 128,-1,14
 34 563 34 563 34 525 c 0,15,16
 34 488 34 488 46.5 454 c 128,-1,17
 59 420 59 420 83 394 c 128,-1,18
 107 368 107 368 141.5 352.5 c 128,-1,19
 176 337 176 337 221 337 c 256,0,1
142 525 m 256,20,21
 142 546 142 546 148 564 c 128,-1,22
 154 582 154 582 164.5 594.5 c 128,-1,23
 175 607 175 607 189.5 614 c 128,-1,24
 204 621 204 621 221 621 c 256,25,26
 238 621 238 621 252.5 614.5 c 128,-1,27
 267 608 267 608 277.5 595 c 128,-1,28
 288 582 288 582 294 564.5 c 128,-1,29
 300 547 300 547 300 526 c 0,30,31
 300 504 300 504 294 486 c 128,-1,32
 288 468 288 468 277.5 455.5 c 128,-1,33
 267 443 267 443 252.5 436 c 128,-1,34
 238 429 238 429 221 429 c 256,35,36
 204 429 204 429 189.5 436 c 128,-1,37
 175 443 175 443 164.5 455.5 c 128,-1,38
 154 468 154 468 148 486 c 128,-1,39
 142 504 142 504 142 525 c 256,20,21
EndSplineSet
EndChar

StartChar: guillemotright
Encoding: 187 187 125
Width: 666
GlyphClass: 1
Flags: W
LayerCount: 2
Fore
SplineSet
632 291 m 1,0,-1
 365 482 l 1,1,-1
 365 361 l 1,2,-1
 514 259 l 1,3,-1
 365 163 l 1,4,-1
 365 42 l 1,5,-1
 632 220 l 1,6,-1
 632 291 l 1,0,-1
325 291 m 1,7,-1
 57 482 l 1,8,-1
 57 361 l 1,9,-1
 207 259 l 1,10,-1
 57 163 l 1,11,-1
 57 42 l 1,12,-1
 325 220 l 1,13,-1
 325 291 l 1,7,-1
EndSplineSet
EndChar

StartChar: onehalf
Encoding: 189 189 127
Width: 939
GlyphClass: 1
Flags: W
LayerCount: 2
Fore
SplineSet
214 387 m 1,0,-1
 214 731 l 1,1,-1
 125 731 l 1,2,3
 125 730 125 730 116 721 c 128,-1,4
 107 712 107 712 93.5 701.5 c 128,-1,5
 80 691 80 691 63.5 682 c 128,-1,6
 47 673 47 673 32 673 c 1,7,-1
 32 586 l 1,8,9
 44 586 44 586 58 591.5 c 128,-1,10
 72 597 72 597 85 605 c 128,-1,11
 98 613 98 613 109 622 c 128,-1,12
 120 631 120 631 125 637 c 1,13,-1
 125 387 l 1,14,-1
 48 387 l 1,15,-1
 48 301 l 1,16,-1
 284 301 l 1,17,-1
 284 387 l 1,18,-1
 214 387 l 1,0,-1
173 -8 m 1,19,-1
 440 339 l 1,20,-1
 713 659 l 1,21,-1
 646 719 l 1,22,-1
 388 378 l 1,23,-1
 106 52 l 1,24,-1
 173 -8 l 1,19,-1
902 0 m 1,25,-1
 902 86 l 1,26,-1
 679 86 l 1,27,28
 679 98 679 98 685.5 108 c 128,-1,29
 692 118 692 118 704 127.5 c 128,-1,30
 716 137 716 137 733.5 144.5 c 128,-1,31
 751 152 751 152 774 159 c 0,32,33
 792 165 792 165 814.5 175 c 128,-1,34
 837 185 837 185 856 201 c 128,-1,35
 875 217 875 217 888 241 c 128,-1,36
 901 265 901 265 901 299 c 0,37,38
 901 330 901 330 890.5 354.5 c 128,-1,39
 880 379 880 379 858.5 396 c 128,-1,40
 837 413 837 413 805.5 422 c 128,-1,41
 774 431 774 431 734 431 c 0,42,43
 699 431 699 431 668.5 424.5 c 128,-1,44
 638 418 638 418 614 408.5 c 128,-1,45
 590 399 590 399 573 386.5 c 128,-1,46
 556 374 556 374 547 362 c 1,47,-1
 602 298 l 1,48,49
 611 308 611 308 623 317.5 c 128,-1,50
 635 327 635 327 650.5 334.5 c 128,-1,51
 666 342 666 342 684 347 c 128,-1,52
 702 352 702 352 723 352 c 0,53,54
 761 352 761 352 783 336 c 128,-1,55
 805 320 805 320 805 294 c 0,56,57
 805 274 805 274 793 260 c 128,-1,58
 781 246 781 246 761.5 235 c 128,-1,59
 742 224 742 224 719 215 c 128,-1,60
 696 206 696 206 674 196 c 0,61,62
 637 180 637 180 612 162 c 128,-1,63
 587 144 587 144 572 121.5 c 128,-1,64
 557 99 557 99 551 69.5 c 128,-1,65
 545 40 545 40 545 0 c 1,66,-1
 902 0 l 1,25,-1
EndSplineSet
EndChar

StartChar: questiondown
Encoding: 191 191 129
Width: 481
GlyphClass: 1
Flags: W
LayerCount: 2
Fore
SplineSet
247 266 m 1,0,1
 247 243 247 243 236 227 c 128,-1,2
 225 211 225 211 208 198.5 c 128,-1,3
 191 186 191 186 170 175 c 128,-1,4
 149 164 149 164 128 151 c 0,5,6
 105 136 105 136 86.5 119.5 c 128,-1,7
 68 103 68 103 55.5 83.5 c 128,-1,8
 43 64 43 64 36.5 40 c 128,-1,9
 30 16 30 16 30 -14 c 0,10,11
 30 -67 30 -67 48.5 -105 c 128,-1,12
 67 -143 67 -143 97 -167 c 128,-1,13
 127 -191 127 -191 165 -202 c 128,-1,14
 203 -213 203 -213 240 -213 c 0,15,16
 275 -213 275 -213 307 -204 c 128,-1,17
 339 -195 339 -195 366.5 -178.5 c 128,-1,18
 394 -162 394 -162 415.5 -138 c 128,-1,19
 437 -114 437 -114 450 -84 c 1,20,-1
 354 -17 l 1,21,22
 346 -29 346 -29 336 -42 c 128,-1,23
 326 -55 326 -55 313 -66.5 c 128,-1,24
 300 -78 300 -78 283 -85 c 128,-1,25
 266 -92 266 -92 245 -92 c 0,26,27
 229 -92 229 -92 213.5 -87 c 128,-1,28
 198 -82 198 -82 186.5 -72 c 128,-1,29
 175 -62 175 -62 167.5 -48 c 128,-1,30
 160 -34 160 -34 160 -16 c 0,31,32
 160 10 160 10 175 30.5 c 128,-1,33
 190 51 190 51 210.5 66.5 c 128,-1,34
 231 82 231 82 253 93 c 128,-1,35
 275 104 275 104 288 112 c 0,36,37
 314 127 314 127 330 144 c 128,-1,38
 346 161 346 161 354.5 180 c 128,-1,39
 363 199 363 199 366 221 c 128,-1,40
 369 243 369 243 369 266 c 1,41,-1
 247 266 l 1,0,1
384 437 m 0,42,43
 384 470 384 470 361 493 c 128,-1,44
 338 516 338 516 305 516 c 256,45,46
 272 516 272 516 249 493 c 128,-1,47
 226 470 226 470 226 437 c 0,48,49
 226 405 226 405 249 381.5 c 128,-1,50
 272 358 272 358 305 358 c 256,51,52
 338 358 338 358 361 381.5 c 128,-1,53
 384 405 384 405 384 437 c 0,42,43
EndSplineSet
EndChar

StartChar: AE
Encoding: 198 198 136
Width: 967
GlyphClass: 1
Flags: W
LayerCount: 2
Fore
SplineSet
-26 0 m 1,0,-1
 137 0 l 1,1,-1
 234 167 l 1,2,-1
 454 167 l 1,3,-1
 454 0 l 1,4,-1
 935 0 l 1,5,-1
 935 134 l 1,6,-1
 606 134 l 1,7,-1
 606 294 l 1,8,-1
 872 294 l 1,9,-1
 872 428 l 1,10,-1
 606 428 l 1,11,-1
 606 576 l 1,12,-1
 926 576 l 1,13,-1
 926 710 l 1,14,-1
 414 710 l 1,15,-1
 -26 0 l 1,0,-1
299 301 m 1,16,-1
 443 539 l 1,17,-1
 443 301 l 1,18,-1
 299 301 l 1,16,-1
EndSplineSet
EndChar

StartChar: Idieresis
Encoding: 207 207 145
Width: 294
GlyphClass: 1
Flags: W
LayerCount: 2
Fore
SplineSet
224 0 m 1,0,-1
 224 710 l 1,1,-1
 71 710 l 1,2,-1
 71 0 l 1,3,-1
 224 0 l 1,0,-1
12 846 m 0,4,5
 12 813 12 813 29 790 c 128,-1,6
 46 767 46 767 70 767 c 0,7,8
 95 767 95 767 112 790 c 128,-1,9
 129 813 129 813 129 846 c 0,10,11
 129 878 129 878 111.5 901.5 c 128,-1,12
 94 925 94 925 70 925 c 256,13,14
 46 925 46 925 29 901.5 c 128,-1,15
 12 878 12 878 12 846 c 0,4,5
165 846 m 0,16,17
 165 813 165 813 182 790 c 128,-1,18
 199 767 199 767 223 767 c 0,19,20
 248 767 248 767 265 790 c 128,-1,21
 282 813 282 813 282 846 c 0,22,23
 282 878 282 878 265 901.5 c 128,-1,24
 248 925 248 925 224 925 c 0,25,26
 199 925 199 925 182 901.5 c 128,-1,27
 165 878 165 878 165 846 c 0,16,17
EndSplineSet
EndChar

StartChar: Eth
Encoding: 208 208 146
Width: 721
GlyphClass: 1
Flags: W
LayerCount: 2
Fore
SplineSet
361 301 m 1,0,-1
 361 413 l 1,1,-1
 30 413 l 1,2,-1
 30 301 l 1,3,-1
 361 301 l 1,0,-1
338 0 m 2,4,5
 418 0 418 0 483 25.5 c 128,-1,6
 548 51 548 51 594 97.5 c 128,-1,7
 640 144 640 144 665 209.5 c 128,-1,8
 690 275 690 275 690 356 c 0,9,10
 690 430 690 430 667.5 494.5 c 128,-1,11
 645 559 645 559 601 607 c 128,-1,12
 557 655 557 655 491 682.5 c 128,-1,13
 425 710 425 710 338 710 c 2,14,-1
 75 710 l 1,15,-1
 75 0 l 1,16,-1
 338 0 l 2,4,5
534 356 m 256,17,18
 534 308 534 308 521 267.5 c 128,-1,19
 508 227 508 227 483.5 197.5 c 128,-1,20
 459 168 459 168 422 151 c 128,-1,21
 385 134 385 134 338 134 c 2,22,-1
 228 134 l 1,23,-1
 228 576 l 1,24,-1
 338 576 l 2,25,26
 384 576 384 576 420.5 559.5 c 128,-1,27
 457 543 457 543 482.5 514.5 c 128,-1,28
 508 486 508 486 521 445 c 128,-1,29
 534 404 534 404 534 356 c 256,17,18
EndSplineSet
EndChar

StartChar: multiply
Encoding: 215 215 153
Width: 481
GlyphClass: 1
Flags: W
LayerCount: 2
Fore
SplineSet
333 276 m 1,0,-1
 426 370 l 1,1,-1
 334 463 l 1,2,-1
 240 369 l 1,3,-1
 147 462 l 1,4,-1
 53 370 l 1,5,-1
 147 275 l 1,6,-1
 49 178 l 1,7,-1
 141 85 l 1,8,-1
 240 183 l 1,9,-1
 338 85 l 1,10,-1
 432 177 l 1,11,-1
 333 276 l 1,0,-1
EndSplineSet
EndChar

StartChar: Thorn
Encoding: 222 222 160
Width: 605
GlyphClass: 1
Flags: W
LayerCount: 2
Fore
SplineSet
356 584 m 2,0,-1
 224 584 l 1,1,-1
 224 710 l 1,2,-1
 71 710 l 1,3,-1
 71 0 l 1,4,-1
 224 0 l 1,5,-1
 224 108 l 1,6,-1
 362 108 l 2,7,8
 412 108 412 108 453.5 128 c 128,-1,9
 495 148 495 148 524 181 c 128,-1,10
 553 214 553 214 569.5 257 c 128,-1,11
 586 300 586 300 586 347 c 0,12,13
 586 390 586 390 568.5 433 c 128,-1,14
 551 476 551 476 521 509.5 c 128,-1,15
 491 543 491 543 448.5 563.5 c 128,-1,16
 406 584 406 584 356 584 c 2,0,-1
354 242 m 2,17,-1
 224 242 l 1,18,-1
 224 450 l 1,19,-1
 349 450 l 2,20,21
 365 450 365 450 380 442.5 c 128,-1,22
 395 435 395 435 406.5 421 c 128,-1,23
 418 407 418 407 425.5 388 c 128,-1,24
 433 369 433 369 433 347 c 0,25,26
 433 324 433 324 427 305 c 128,-1,27
 421 286 421 286 410.5 272 c 128,-1,28
 400 258 400 258 385.5 250 c 128,-1,29
 371 242 371 242 354 242 c 2,17,-1
EndSplineSet
EndChar

StartChar: germandbls
Encoding: 223 223 161
Width: 559
GlyphClass: 1
Flags: W
LayerCount: 2
Fore
SplineSet
249 -6 m 1,0,1
 303 -5 303 -5 354.5 6.5 c 128,-1,2
 406 18 406 18 445.5 43.5 c 128,-1,3
 485 69 485 69 509.5 110.5 c 128,-1,4
 534 152 534 152 534 211 c 0,5,6
 534 283 534 283 498 333 c 128,-1,7
 462 383 462 383 399 403 c 1,8,9
 416 409 416 409 431 423 c 128,-1,10
 446 437 446 437 457 456.5 c 128,-1,11
 468 476 468 476 475 499.5 c 128,-1,12
 482 523 482 523 482 549 c 0,13,14
 482 587 482 587 467 618 c 128,-1,15
 452 649 452 649 425.5 670.5 c 128,-1,16
 399 692 399 692 362.5 703 c 128,-1,17
 326 714 326 714 284 714 c 0,18,19
 235 714 235 714 194 700 c 128,-1,20
 153 686 153 686 122.5 660.5 c 128,-1,21
 92 635 92 635 74.5 600.5 c 128,-1,22
 57 566 57 566 57 524 c 2,23,-1
 57 0 l 1,24,-1
 199 0 l 1,25,-1
 199 498 l 2,26,27
 199 511 199 511 202 527 c 128,-1,28
 205 543 205 543 213.5 556.5 c 128,-1,29
 222 570 222 570 236 579 c 128,-1,30
 250 588 250 588 271 588 c 0,31,32
 280 588 280 588 292 585 c 128,-1,33
 304 582 304 582 314.5 575 c 128,-1,34
 325 568 325 568 332.5 555.5 c 128,-1,35
 340 543 340 543 340 523 c 0,36,37
 340 509 340 509 336 497.5 c 128,-1,38
 332 486 332 486 323 477 c 128,-1,39
 314 468 314 468 302 463.5 c 128,-1,40
 290 459 290 459 274 459 c 2,41,-1
 254 459 l 1,42,-1
 254 325 l 1,43,-1
 275 325 l 2,44,45
 294 325 294 325 312 318.5 c 128,-1,46
 330 312 330 312 344.5 300 c 128,-1,47
 359 288 359 288 368 270 c 128,-1,48
 377 252 377 252 377 228 c 256,49,50
 377 204 377 204 367.5 185.5 c 128,-1,51
 358 167 358 167 340.5 155 c 128,-1,52
 323 143 323 143 299.5 137 c 128,-1,53
 276 131 276 131 249 131 c 1,54,-1
 249 -6 l 1,0,1
EndSplineSet
EndChar

StartChar: ae
Encoding: 230 230 168
Width: 938
GlyphClass: 1
Flags: W
LayerCount: 2
Fore
SplineSet
203 -10 m 0,0,1
 230 -10 230 -10 259.5 -4 c 128,-1,2
 289 2 289 2 317.5 15 c 128,-1,3
 346 28 346 28 371 48 c 128,-1,4
 396 68 396 68 415 96 c 1,5,6
 450 48 450 48 507.5 19 c 128,-1,7
 565 -10 565 -10 642 -10 c 0,8,9
 686 -10 686 -10 725 0.5 c 128,-1,10
 764 11 764 11 795.5 29 c 128,-1,11
 827 47 827 47 851 72.5 c 128,-1,12
 875 98 875 98 890 129 c 1,13,-1
 763 165 l 1,14,15
 757 150 757 150 745 137.5 c 128,-1,16
 733 125 733 125 717.5 116 c 128,-1,17
 702 107 702 107 683.5 102.5 c 128,-1,18
 665 98 665 98 646 98 c 0,19,20
 622 98 622 98 599.5 106 c 128,-1,21
 577 114 577 114 559.5 129 c 128,-1,22
 542 144 542 144 530.5 165.5 c 128,-1,23
 519 187 519 187 517 215 c 1,24,-1
 915 215 l 1,25,26
 917 225 917 225 918 238 c 128,-1,27
 919 251 919 251 919 262 c 0,28,29
 919 317 919 317 900 366 c 128,-1,30
 881 415 881 415 845.5 452.5 c 128,-1,31
 810 490 810 490 758.5 512 c 128,-1,32
 707 534 707 534 640 534 c 0,33,34
 583 534 583 534 537 515.5 c 128,-1,35
 491 497 491 497 457 466 c 1,36,37
 427 499 427 499 381 516.5 c 128,-1,38
 335 534 335 534 274 534 c 256,39,40
 213 534 213 534 158 517.5 c 128,-1,41
 103 501 103 501 51 467 c 1,42,-1
 95 373 l 1,43,44
 138 402 138 402 177 417 c 128,-1,45
 216 432 216 432 259 432 c 0,46,47
 311 432 311 432 337.5 410 c 128,-1,48
 364 388 364 388 368 345 c 0,49,50
 366 337 366 337 364.5 327.5 c 128,-1,51
 363 318 363 318 362 309 c 1,52,53
 339 319 339 319 309 324 c 128,-1,54
 279 329 279 329 247 329 c 0,55,56
 198 329 198 329 157 316.5 c 128,-1,57
 116 304 116 304 86.5 281 c 128,-1,58
 57 258 57 258 40 226.5 c 128,-1,59
 23 195 23 195 23 157 c 0,60,61
 23 121 23 121 37 90.5 c 128,-1,62
 51 60 51 60 75 38 c 128,-1,63
 99 16 99 16 132 3 c 128,-1,64
 165 -10 165 -10 203 -10 c 0,0,1
247 98 m 0,65,66
 229 98 229 98 214 103.5 c 128,-1,67
 199 109 199 109 188 118.5 c 128,-1,68
 177 128 177 128 170.5 141 c 128,-1,69
 164 154 164 154 164 170 c 0,70,71
 164 187 164 187 172 201 c 128,-1,72
 180 215 180 215 194.5 225 c 128,-1,73
 209 235 209 235 229 240.5 c 128,-1,74
 249 246 249 246 272 246 c 0,75,76
 293 246 293 246 317 241.5 c 128,-1,77
 341 237 341 237 362 230 c 1,78,79
 363 216 363 216 364.5 200.5 c 128,-1,80
 366 185 366 185 370 172 c 0,81,82
 369 163 369 163 363 153.5 c 128,-1,83
 357 144 357 144 347 136 c 0,84,85
 330 119 330 119 303 108.5 c 128,-1,86
 276 98 276 98 247 98 c 0,65,66
514 307 m 1,87,88
 516 334 516 334 526.5 356 c 128,-1,89
 537 378 537 378 553 394 c 128,-1,90
 569 410 569 410 591 418.5 c 128,-1,91
 613 427 613 427 638 427 c 0,92,93
 664 427 664 427 685.5 418.5 c 128,-1,94
 707 410 707 410 723.5 394 c 128,-1,95
 740 378 740 378 750.5 356 c 128,-1,96
 761 334 761 334 763 307 c 1,97,-1
 514 307 l 1,87,88
EndSplineSet
EndChar

StartChar: idieresis
Encoding: 239 239 177
Width: 264
GlyphClass: 1
Flags: W
LayerCount: 2
Fore
SplineSet
206 0 m 1,0,-1
 206 524 l 1,1,-1
 57 524 l 1,2,-1
 57 0 l 1,3,-1
 206 0 l 1,0,-1
3 660 m 0,4,5
 3 628 3 628 19.5 604.5 c 128,-1,6
 36 581 36 581 59 581 c 256,7,8
 82 581 82 581 98.5 604.5 c 128,-1,9
 115 628 115 628 115 660 c 0,10,11
 115 693 115 693 98.5 716 c 128,-1,12
 82 739 82 739 59 739 c 256,13,14
 36 739 36 739 19.5 716 c 128,-1,15
 3 693 3 693 3 660 c 0,4,5
148 660 m 0,16,17
 148 628 148 628 164 604.5 c 128,-1,18
 180 581 180 581 204 581 c 0,19,20
 227 581 227 581 243 604.5 c 128,-1,21
 259 628 259 628 259 660 c 0,22,23
 259 693 259 693 243 716 c 128,-1,24
 227 739 227 739 204 739 c 0,25,26
 180 739 180 739 164 716 c 128,-1,27
 148 693 148 693 148 660 c 0,16,17
EndSplineSet
EndChar

StartChar: eth
Encoding: 240 240 178
Width: 615
GlyphClass: 1
Flags: W
LayerCount: 2
Fore
SplineSet
585 291 m 0,0,1
 585 353 585 353 568 417.5 c 128,-1,2
 551 482 551 482 518 541 c 128,-1,3
 485 600 485 600 436 649 c 128,-1,4
 387 698 387 698 323 730 c 1,5,-1
 136 730 l 1,6,7
 205 694 205 694 256 656 c 128,-1,8
 307 618 307 618 342.5 577.5 c 128,-1,9
 378 537 378 537 399.5 493.5 c 128,-1,10
 421 450 421 450 432 402 c 1,11,12
 419 418 419 418 400.5 431 c 128,-1,13
 382 444 382 444 361 453 c 128,-1,14
 340 462 340 462 317 467 c 128,-1,15
 294 472 294 472 269 472 c 0,16,17
 219 472 219 472 175 453 c 128,-1,18
 131 434 131 434 98.5 402 c 128,-1,19
 66 370 66 370 47.5 326.5 c 128,-1,20
 29 283 29 283 29 234 c 0,21,22
 29 181 29 181 49.5 136.5 c 128,-1,23
 70 92 70 92 107.5 59.5 c 128,-1,24
 145 27 145 27 195.5 8.5 c 128,-1,25
 246 -10 246 -10 305 -10 c 0,26,27
 367 -10 367 -10 418.5 10.5 c 128,-1,28
 470 31 470 31 507 70 c 128,-1,29
 544 109 544 109 564.5 165 c 128,-1,30
 585 221 585 221 585 291 c 0,0,1
182 234 m 0,31,32
 182 260 182 260 191 281.5 c 128,-1,33
 200 303 200 303 217 319 c 128,-1,34
 234 335 234 335 257 343.5 c 128,-1,35
 280 352 280 352 308 352 c 0,36,37
 335 352 335 352 357.5 343.5 c 128,-1,38
 380 335 380 335 397 319.5 c 128,-1,39
 414 304 414 304 423 283 c 128,-1,40
 432 262 432 262 432 237 c 0,41,42
 432 211 432 211 423 189 c 128,-1,43
 414 167 414 167 396.5 151 c 128,-1,44
 379 135 379 135 356 125.5 c 128,-1,45
 333 116 333 116 306 116 c 256,46,47
 279 116 279 116 256.5 125 c 128,-1,48
 234 134 234 134 217 150 c 128,-1,49
 200 166 200 166 191 187.5 c 128,-1,50
 182 209 182 209 182 234 c 0,31,32
491 712 m 1,51,-1
 373 648 l 1,52,-1
 330 636 l 1,53,-1
 220 576 l 1,54,-1
 262 519 l 1,55,-1
 374 579 l 1,56,-1
 420 594 l 1,57,-1
 533 655 l 1,58,-1
 491 712 l 1,51,-1
EndSplineSet
EndChar

StartChar: divide
Encoding: 247 247 185
Width: 504
GlyphClass: 1
Flags: W
LayerCount: 2
Fore
SplineSet
454 241 m 1,0,-1
 454 360 l 1,1,-1
 51 360 l 1,2,-1
 51 241 l 1,3,-1
 454 241 l 1,0,-1
174 101 m 0,4,5
 174 69 174 69 197 45.5 c 128,-1,6
 220 22 220 22 253 22 c 0,7,8
 285 22 285 22 308.5 45.5 c 128,-1,9
 332 69 332 69 332 101 c 0,10,11
 332 134 332 134 308.5 157 c 128,-1,12
 285 180 285 180 253 180 c 0,13,14
 220 180 220 180 197 157 c 128,-1,15
 174 134 174 134 174 101 c 0,4,5
174 501 m 0,16,17
 174 468 174 468 197.5 445 c 128,-1,18
 221 422 221 422 253 422 c 0,19,20
 286 422 286 422 309 445 c 128,-1,21
 332 468 332 468 332 501 c 0,22,23
 332 533 332 533 309 556.5 c 128,-1,24
 286 580 286 580 253 580 c 0,25,26
 221 580 221 580 197.5 556.5 c 128,-1,27
 174 533 174 533 174 501 c 0,16,17
EndSplineSet
EndChar

StartChar: oslash
Encoding: 248 248 186
Width: 608
GlyphClass: 1
Flags: W
LayerCount: 2
Fore
SplineSet
304 -10 m 256,0,1
 370 -10 370 -10 421.5 12.5 c 128,-1,2
 473 35 473 35 509 72 c 128,-1,3
 545 109 545 109 563.5 158.5 c 128,-1,4
 582 208 582 208 582 262 c 256,5,6
 582 316 582 316 563 365.5 c 128,-1,7
 544 415 544 415 508.5 452 c 128,-1,8
 473 489 473 489 421.5 511.5 c 128,-1,9
 370 534 370 534 304 534 c 0,10,11
 239 534 239 534 187 511.5 c 128,-1,12
 135 489 135 489 99.5 452 c 128,-1,13
 64 415 64 415 45 365.5 c 128,-1,14
 26 316 26 316 26 262 c 256,15,16
 26 208 26 208 44.5 158.5 c 128,-1,17
 63 109 63 109 99 72 c 128,-1,18
 135 35 135 35 186.5 12.5 c 128,-1,19
 238 -10 238 -10 304 -10 c 256,0,1
304 116 m 0,20,21
 277 116 277 116 254.5 127 c 128,-1,22
 232 138 232 138 215 157 c 128,-1,23
 198 176 198 176 188.5 202.5 c 128,-1,24
 179 229 179 229 179 261 c 256,25,26
 179 293 179 293 188.5 320 c 128,-1,27
 198 347 198 347 215 366.5 c 128,-1,28
 232 386 232 386 254.5 397 c 128,-1,29
 277 408 277 408 304 408 c 0,30,31
 330 408 330 408 353 397 c 128,-1,32
 376 386 376 386 393 366.5 c 128,-1,33
 410 347 410 347 419.5 320.5 c 128,-1,34
 429 294 429 294 429 262 c 256,35,36
 429 230 429 230 419.5 203.5 c 128,-1,37
 410 177 410 177 393 157.5 c 128,-1,38
 376 138 376 138 353 127 c 128,-1,39
 330 116 330 116 304 116 c 0,20,21
124 -4 m 1,40,-1
 204 88 l 1,41,-1
 146 132 l 1,42,-1
 34 -4 l 1,43,-1
 124 -4 l 1,40,-1
452 401 m 1,44,-1
 396 433 l 1,45,-1
 166 141 l 1,46,-1
 213 101 l 1,47,-1
 452 401 l 1,44,-1
567 529 m 1,48,-1
 476 529 l 1,49,-1
 405 445 l 1,50,-1
 471 411 l 1,51,-1
 567 529 l 1,48,-1
EndSplineSet
EndChar

StartChar: thorn
Encoding: 254 254 192
Width: 601
GlyphClass: 1
Flags: W
LayerCount: 2
Fore
SplineSet
576 256 m 0,0,1
 576 307 576 307 558 357.5 c 128,-1,2
 540 408 540 408 506.5 449 c 128,-1,3
 473 490 473 490 425.5 515 c 128,-1,4
 378 540 378 540 319 540 c 0,5,6
 270 540 270 540 245 524 c 128,-1,7
 220 508 220 508 210 495 c 1,8,-1
 210 710 l 1,9,-1
 57 710 l 1,10,-1
 57 -213 l 1,11,-1
 210 -213 l 1,12,-1
 210 16 l 1,13,14
 214 10 214 10 222.5 2 c 128,-1,15
 231 -6 231 -6 243 -12 c 128,-1,16
 255 -18 255 -18 272 -22 c 128,-1,17
 289 -26 289 -26 311 -26 c 0,18,19
 365 -26 365 -26 413 -3 c 128,-1,20
 461 20 461 20 497.5 59 c 128,-1,21
 534 98 534 98 554.5 149 c 128,-1,22
 575 200 575 200 576 256 c 0,0,1
423 259 m 0,23,24
 423 227 423 227 414.5 199.5 c 128,-1,25
 406 172 406 172 390 152 c 128,-1,26
 374 132 374 132 353 120 c 128,-1,27
 332 108 332 108 306 108 c 0,28,29
 289 108 289 108 272 114.5 c 128,-1,30
 255 121 255 121 241 131 c 128,-1,31
 227 141 227 141 218.5 153 c 128,-1,32
 210 165 210 165 210 177 c 2,33,-1
 210 334 l 1,34,35
 218 349 218 349 228 362 c 128,-1,36
 238 375 238 375 250.5 385 c 128,-1,37
 263 395 263 395 277.5 400.5 c 128,-1,38
 292 406 292 406 310 406 c 0,39,40
 337 406 337 406 357.5 394 c 128,-1,41
 378 382 378 382 393 362 c 128,-1,42
 408 342 408 342 415.5 315.5 c 128,-1,43
 423 289 423 289 423 259 c 0,23,24
EndSplineSet
EndChar

StartChar: Dcroat
Encoding: 272 272 210
Width: 721
GlyphClass: 1
Flags: W
LayerCount: 2
Fore
SplineSet
361 301 m 1,0,-1
 361 413 l 1,1,-1
 30 413 l 1,2,-1
 30 301 l 1,3,-1
 361 301 l 1,0,-1
338 0 m 2,4,5
 418 0 418 0 483 25.5 c 128,-1,6
 548 51 548 51 594 97.5 c 128,-1,7
 640 144 640 144 665 209.5 c 128,-1,8
 690 275 690 275 690 356 c 0,9,10
 690 430 690 430 667.5 494.5 c 128,-1,11
 645 559 645 559 601 607 c 128,-1,12
 557 655 557 655 491 682.5 c 128,-1,13
 425 710 425 710 338 710 c 2,14,-1
 75 710 l 1,15,-1
 75 0 l 1,16,-1
 338 0 l 2,4,5
534 356 m 256,17,18
 534 308 534 308 521 267.5 c 128,-1,19
 508 227 508 227 483.5 197.5 c 128,-1,20
 459 168 459 168 422 151 c 128,-1,21
 385 134 385 134 338 134 c 2,22,-1
 228 134 l 1,23,-1
 228 576 l 1,24,-1
 338 576 l 2,25,26
 384 576 384 576 420.5 559.5 c 128,-1,27
 457 543 457 543 482.5 514.5 c 128,-1,28
 508 486 508 486 521 445 c 128,-1,29
 534 404 534 404 534 356 c 256,17,18
EndSplineSet
EndChar

StartChar: dcroat
Encoding: 273 273 211
Width: 651
GlyphClass: 1
Flags: W
LayerCount: 2
Fore
SplineSet
643 592 m 1,0,-1
 643 680 l 1,1,-1
 335 680 l 1,2,-1
 335 592 l 1,3,-1
 643 592 l 1,0,-1
581 0 m 1,4,-1
 581 730 l 1,5,-1
 431 730 l 1,6,-1
 431 436 l 1,7,8
 419 458 419 458 401 476 c 128,-1,9
 383 494 383 494 360.5 507 c 128,-1,10
 338 520 338 520 312.5 527 c 128,-1,11
 287 534 287 534 259 534 c 0,12,13
 208 534 208 534 165.5 513 c 128,-1,14
 123 492 123 492 92.5 455.5 c 128,-1,15
 62 419 62 419 44.5 369.5 c 128,-1,16
 27 320 27 320 27 262 c 0,17,18
 27 205 27 205 45.5 155 c 128,-1,19
 64 105 64 105 97 68.5 c 128,-1,20
 130 32 130 32 175.5 11 c 128,-1,21
 221 -10 221 -10 275 -10 c 256,22,23
 329 -10 329 -10 368 12.5 c 128,-1,24
 407 35 407 35 432 78 c 1,25,-1
 432 0 l 1,26,-1
 581 0 l 1,4,-1
432 196 m 1,27,28
 425 178 425 178 412.5 163 c 128,-1,29
 400 148 400 148 384 138 c 128,-1,30
 368 128 368 128 350 122 c 128,-1,31
 332 116 332 116 314 116 c 0,32,33
 286 116 286 116 261.5 127 c 128,-1,34
 237 138 237 138 219 157.5 c 128,-1,35
 201 177 201 177 191 203 c 128,-1,36
 181 229 181 229 181 260 c 0,37,38
 181 289 181 289 190 315.5 c 128,-1,39
 199 342 199 342 215.5 362.5 c 128,-1,40
 232 383 232 383 255.5 395.5 c 128,-1,41
 279 408 279 408 306 408 c 0,42,43
 325 408 325 408 344 400.5 c 128,-1,44
 363 393 363 393 380 380.5 c 128,-1,45
 397 368 397 368 410.5 350.5 c 128,-1,46
 424 333 424 333 432 312 c 1,47,-1
 432 196 l 1,27,28
EndSplineSet
EndChar

StartChar: Hbar
Encoding: 294 294 232
Width: 754
GlyphClass: 1
Flags: W
LayerCount: 2
Fore
SplineSet
730 534 m 1,0,-1
 730 614 l 1,1,-1
 24 614 l 1,2,-1
 24 534 l 1,3,-1
 730 534 l 1,0,-1
527 710 m 1,4,-1
 527 430 l 1,5,-1
 227 430 l 1,6,-1
 227 710 l 1,7,-1
 74 710 l 1,8,-1
 74 0 l 1,9,-1
 227 0 l 1,10,-1
 227 296 l 1,11,-1
 527 296 l 1,12,-1
 527 0 l 1,13,-1
 680 0 l 1,14,-1
 680 710 l 1,15,-1
 527 710 l 1,4,-1
EndSplineSet
EndChar

StartChar: hbar
Encoding: 295 295 233
Width: 609
GlyphClass: 1
Flags: W
LayerCount: 2
Fore
SplineSet
324 592 m 1,0,-1
 324 680 l 1,1,-1
 17 680 l 1,2,-1
 17 592 l 1,3,-1
 324 592 l 1,0,-1
556 332 m 2,4,5
 556 369 556 369 549.5 404.5 c 128,-1,6
 543 440 543 440 525 469 c 128,-1,7
 507 498 507 498 475 516 c 128,-1,8
 443 534 443 534 391 534 c 0,9,10
 332 534 332 534 284 507.5 c 128,-1,11
 236 481 236 481 206 433 c 1,12,-1
 206 730 l 1,13,-1
 57 730 l 1,14,-1
 57 0 l 1,15,-1
 206 0 l 1,16,-1
 206 303 l 1,17,18
 214 325 214 325 227.5 343.5 c 128,-1,19
 241 362 241 362 257.5 375 c 128,-1,20
 274 388 274 388 292 395.5 c 128,-1,21
 310 403 310 403 326 403 c 0,22,23
 363 403 363 403 385 376.5 c 128,-1,24
 407 350 407 350 407 294 c 2,25,-1
 407 0 l 1,26,-1
 556 0 l 1,27,-1
 556 332 l 2,4,5
EndSplineSet
EndChar

StartChar: dotlessi
Encoding: 305 305 243
Width: 264
GlyphClass: 1
Flags: W
LayerCount: 2
Fore
SplineSet
206 0 m 1,0,-1
 206 524 l 1,1,-1
 57 524 l 1,2,-1
 57 0 l 1,3,-1
 206 0 l 1,0,-1
EndSplineSet
EndChar

StartChar: kgreenlandic
Encoding: 312 312 248
Width: 565
GlyphClass: 1
Flags: W
LayerCount: 2
Fore
SplineSet
571 0 m 1,0,-1
 365 300 l 1,1,-1
 556 524 l 1,2,-1
 398 524 l 1,3,-1
 206 299 l 1,4,-1
 206 524 l 1,5,-1
 57 524 l 1,6,-1
 57 0 l 1,7,-1
 206 0 l 1,8,-1
 206 154 l 1,9,-1
 269 217 l 1,10,-1
 413 0 l 1,11,-1
 571 0 l 1,0,-1
EndSplineSet
EndChar

StartChar: Lslash
Encoding: 321 321 257
Width: 595
GlyphClass: 1
Flags: W
LayerCount: 2
Fore
SplineSet
369 445 m 1,0,-1
 333 525 l 1,1,-1
 -6 325 l 1,2,-1
 30 244 l 1,3,-1
 369 445 l 1,0,-1
585 0 m 1,4,-1
 585 134 l 1,5,-1
 234 134 l 1,6,-1
 234 710 l 1,7,-1
 81 710 l 1,8,-1
 81 0 l 1,9,-1
 585 0 l 1,4,-1
EndSplineSet
EndChar

StartChar: lslash
Encoding: 322 322 258
Width: 355
GlyphClass: 1
Flags: W
LayerCount: 2
Fore
SplineSet
352 445 m 1,0,-1
 315 525 l 1,1,-1
 -3 345 l 1,2,-1
 33 264 l 1,3,-1
 352 445 l 1,0,-1
81 126 m 2,4,5
 81 61 81 61 117.5 26 c 128,-1,6
 154 -9 154 -9 220 -9 c 0,7,8
 252 -9 252 -9 289.5 -1 c 128,-1,9
 327 7 327 7 356 20 c 1,10,-1
 336 133 l 1,11,12
 323 127 323 127 307 122.5 c 128,-1,13
 291 118 291 118 276 118 c 0,14,15
 265 118 265 118 256.5 121 c 128,-1,16
 248 124 248 124 242 131 c 128,-1,17
 236 138 236 138 233 150 c 128,-1,18
 230 162 230 162 230 179 c 2,19,-1
 230 730 l 1,20,-1
 81 730 l 1,21,-1
 81 126 l 2,4,5
EndSplineSet
EndChar

StartChar: Eng
Encoding: 330 330 265
Width: 746
GlyphClass: 1
Flags: W
LayerCount: 2
Fore
SplineSet
525 32 m 1,0,-1
 525 -11 l 2,1,2
 525 -24 525 -24 521 -35.5 c 128,-1,3
 517 -47 517 -47 509 -54.5 c 128,-1,4
 501 -62 501 -62 490 -66.5 c 128,-1,5
 479 -71 479 -71 467 -71 c 0,6,7
 452 -71 452 -71 437 -65.5 c 128,-1,8
 422 -60 422 -60 412 -50 c 1,9,-1
 349 -151 l 1,10,11
 377 -175 377 -175 412 -187.5 c 128,-1,12
 447 -200 447 -200 486 -200 c 256,13,14
 525 -200 525 -200 559 -186 c 128,-1,15
 593 -172 593 -172 619 -146.5 c 128,-1,16
 645 -121 645 -121 660 -85 c 128,-1,17
 675 -49 675 -49 675 -5 c 2,18,-1
 675 709 l 1,19,-1
 522 709 l 1,20,-1
 522 280 l 1,21,-1
 188 710 l 1,22,-1
 71 710 l 1,23,-1
 71 0 l 1,24,-1
 224 0 l 1,25,-1
 224 422 l 1,26,-1
 525 32 l 1,0,-1
EndSplineSet
EndChar

StartChar: eng
Encoding: 331 331 266
Width: 608
GlyphClass: 1
Flags: W
LayerCount: 2
Fore
SplineSet
367 -200 m 0,0,1
 407 -200 407 -200 441 -185.5 c 128,-1,2
 475 -171 475 -171 500.5 -144 c 128,-1,3
 526 -117 526 -117 540.5 -80.5 c 128,-1,4
 555 -44 555 -44 555 0 c 2,5,-1
 555 332 l 2,6,7
 555 367 555 367 549.5 403 c 128,-1,8
 544 439 544 439 527 468 c 128,-1,9
 510 497 510 497 479 515.5 c 128,-1,10
 448 534 448 534 397 534 c 0,11,12
 363 534 363 534 332 527.5 c 128,-1,13
 301 521 301 521 275 507.5 c 128,-1,14
 249 494 249 494 227.5 475 c 128,-1,15
 206 456 206 456 192 433 c 1,16,-1
 192 524 l 1,17,-1
 57 524 l 1,18,-1
 57 0 l 1,19,-1
 206 0 l 1,20,-1
 206 303 l 1,21,22
 214 325 214 325 227.5 343 c 128,-1,23
 241 361 241 361 258 374.5 c 128,-1,24
 275 388 275 388 294 395.5 c 128,-1,25
 313 403 313 403 331 403 c 0,26,27
 365 403 365 403 386 377 c 128,-1,28
 407 351 407 351 407 294 c 2,29,-1
 407 -11 l 2,30,31
 407 -24 407 -24 402 -35.5 c 128,-1,32
 397 -47 397 -47 389.5 -54.5 c 128,-1,33
 382 -62 382 -62 371 -66.5 c 128,-1,34
 360 -71 360 -71 348 -71 c 0,35,36
 333 -71 333 -71 318 -65.5 c 128,-1,37
 303 -60 303 -60 293 -50 c 1,38,-1
 229 -151 l 1,39,40
 258 -175 258 -175 293 -187.5 c 128,-1,41
 328 -200 328 -200 367 -200 c 0,0,1
EndSplineSet
EndChar

StartChar: OE
Encoding: 338 338 273
Width: 1070
GlyphClass: 1
Flags: W
LayerCount: 2
Fore
SplineSet
709 134 m 1,0,-1
 709 294 l 1,1,-1
 975 294 l 1,2,-1
 975 428 l 1,3,-1
 709 428 l 1,4,-1
 709 576 l 1,5,-1
 1029 576 l 1,6,-1
 1029 710 l 1,7,-1
 556 710 l 1,8,-1
 556 623 l 1,9,10
 540 643 540 643 519.5 660 c 128,-1,11
 499 677 499 677 475.5 689 c 128,-1,12
 452 701 452 701 425 708 c 128,-1,13
 398 715 398 715 369 715 c 0,14,15
 295 715 295 715 233 685.5 c 128,-1,16
 171 656 171 656 125.5 606 c 128,-1,17
 80 556 80 556 54.5 491.5 c 128,-1,18
 29 427 29 427 29 356 c 0,19,20
 29 287 29 287 53.5 222 c 128,-1,21
 78 157 78 157 122 106.5 c 128,-1,22
 166 56 166 56 228.5 25.5 c 128,-1,23
 291 -5 291 -5 366 -5 c 0,24,25
 395 -5 395 -5 422 2 c 128,-1,26
 449 9 449 9 473.5 21.5 c 128,-1,27
 498 34 498 34 518.5 51 c 128,-1,28
 539 68 539 68 556 87 c 1,29,-1
 556 0 l 1,30,-1
 1038 0 l 1,31,-1
 1038 134 l 1,32,-1
 709 134 l 1,0,-1
367 131 m 0,33,34
 324 131 324 131 289.5 149.5 c 128,-1,35
 255 168 255 168 231.5 199.5 c 128,-1,36
 208 231 208 231 196 271 c 128,-1,37
 184 311 184 311 184 354 c 0,38,39
 184 396 184 396 196 436 c 128,-1,40
 208 476 208 476 231 508 c 128,-1,41
 254 540 254 540 288 559.5 c 128,-1,42
 322 579 322 579 367 579 c 0,43,44
 410 579 410 579 444 560.5 c 128,-1,45
 478 542 478 542 501.5 510.5 c 128,-1,46
 525 479 525 479 537.5 439 c 128,-1,47
 550 399 550 399 550 356 c 0,48,49
 550 314 550 314 538 274 c 128,-1,50
 526 234 526 234 503.5 202 c 128,-1,51
 481 170 481 170 446.5 150.5 c 128,-1,52
 412 131 412 131 367 131 c 0,33,34
EndSplineSet
EndChar

StartChar: oe
Encoding: 339 339 274
Width: 1006
GlyphClass: 1
Flags: W
LayerCount: 2
Fore
SplineSet
302 -10 m 0,0,1
 332 -10 332 -10 358.5 -3.5 c 128,-1,2
 385 3 385 3 409.5 16 c 128,-1,3
 434 29 434 29 457.5 49.5 c 128,-1,4
 481 70 481 70 505 98 c 1,5,6
 529 71 529 71 553.5 50.5 c 128,-1,7
 578 30 578 30 603.5 16.5 c 128,-1,8
 629 3 629 3 656 -3.5 c 128,-1,9
 683 -10 683 -10 713 -10 c 0,10,11
 754 -10 754 -10 792 0 c 128,-1,12
 830 10 830 10 862 28 c 128,-1,13
 894 46 894 46 919 71.5 c 128,-1,14
 944 97 944 97 960 129 c 1,15,-1
 837 165 l 1,16,17
 831 150 831 150 819 137 c 128,-1,18
 807 124 807 124 791.5 115 c 128,-1,19
 776 106 776 106 757 100.5 c 128,-1,20
 738 95 738 95 718 95 c 0,21,22
 693 95 693 95 670 104 c 128,-1,23
 647 113 647 113 629 129.5 c 128,-1,24
 611 146 611 146 600.5 168 c 128,-1,25
 590 190 590 190 588 215 c 1,26,-1
 983 215 l 1,27,28
 984 225 984 225 985 238 c 128,-1,29
 986 251 986 251 986 262 c 0,30,31
 985 323 985 323 964 372.5 c 128,-1,32
 943 422 943 422 907 458 c 128,-1,33
 871 494 871 494 821 514 c 128,-1,34
 771 534 771 534 711 534 c 0,35,36
 645 534 645 534 595.5 506 c 128,-1,37
 546 478 546 478 505 422 c 1,38,39
 487 449 487 449 465.5 470 c 128,-1,40
 444 491 444 491 418 505.5 c 128,-1,41
 392 520 392 520 363 527 c 128,-1,42
 334 534 334 534 301 534 c 0,43,44
 242 534 242 534 191 513.5 c 128,-1,45
 140 493 140 493 103.5 456.5 c 128,-1,46
 67 420 67 420 46.5 370.5 c 128,-1,47
 26 321 26 321 26 261 c 0,48,49
 26 203 26 203 46.5 153 c 128,-1,50
 67 103 67 103 104 66.5 c 128,-1,51
 141 30 141 30 191.5 10 c 128,-1,52
 242 -10 242 -10 302 -10 c 0,0,1
304 116 m 256,53,54
 277 116 277 116 254 127 c 128,-1,55
 231 138 231 138 214 157 c 128,-1,56
 197 176 197 176 188 203 c 128,-1,57
 179 230 179 230 179 261 c 0,58,59
 179 293 179 293 188 319.5 c 128,-1,60
 197 346 197 346 214 366 c 128,-1,61
 231 386 231 386 254 397 c 128,-1,62
 277 408 277 408 304 408 c 256,63,64
 331 408 331 408 354 397 c 128,-1,65
 377 386 377 386 394 366.5 c 128,-1,66
 411 347 411 347 420 320.5 c 128,-1,67
 429 294 429 294 429 262 c 256,68,69
 429 230 429 230 420 203.5 c 128,-1,70
 411 177 411 177 394 157.5 c 128,-1,71
 377 138 377 138 354 127 c 128,-1,72
 331 116 331 116 304 116 c 256,53,54
584 307 m 1,73,74
 586 334 586 334 595.5 356 c 128,-1,75
 605 378 605 378 621.5 393.5 c 128,-1,76
 638 409 638 409 659.5 418 c 128,-1,77
 681 427 681 427 707 427 c 0,78,79
 731 427 731 427 753 418 c 128,-1,80
 775 409 775 409 792 393.5 c 128,-1,81
 809 378 809 378 819.5 356 c 128,-1,82
 830 334 830 334 832 307 c 1,83,-1
 584 307 l 1,73,74
EndSplineSet
EndChar

StartChar: Tbar
Encoding: 358 358 293
Width: 644
GlyphClass: 1
Flags: W
LayerCount: 2
Fore
SplineSet
572 284 m 1,0,-1
 572 364 l 1,1,-1
 73 364 l 1,2,-1
 73 284 l 1,3,-1
 572 284 l 1,0,-1
619 710 m 1,4,-1
 25 710 l 1,5,-1
 25 576 l 1,6,-1
 246 576 l 1,7,-1
 246 0 l 1,8,-1
 399 0 l 1,9,-1
 399 576 l 1,10,-1
 619 576 l 1,11,-1
 619 710 l 1,4,-1
EndSplineSet
EndChar

StartChar: tbar
Encoding: 359 359 294
Width: 396
GlyphClass: 1
Flags: W
LayerCount: 2
Fore
SplineSet
336 245 m 1,0,-1
 336 333 l 1,1,-1
 31 333 l 1,2,-1
 31 245 l 1,3,-1
 336 245 l 1,0,-1
359 146 m 1,4,5
 352 143 352 143 343.5 139.5 c 128,-1,6
 335 136 335 136 325.5 133.5 c 128,-1,7
 316 131 316 131 306.5 129 c 128,-1,8
 297 127 297 127 287 127 c 0,9,10
 267 127 267 127 253.5 138.5 c 128,-1,11
 240 150 240 150 239 177 c 2,12,-1
 239 411 l 1,13,-1
 348 411 l 1,14,-1
 348 524 l 1,15,-1
 239 524 l 1,16,-1
 239 693 l 1,17,-1
 90 693 l 1,18,-1
 90 524 l 1,19,-1
 22 524 l 1,20,-1
 22 411 l 1,21,-1
 90 411 l 1,22,-1
 90 126 l 2,23,24
 90 89 90 89 101 63.5 c 128,-1,25
 112 38 112 38 131.5 21.5 c 128,-1,26
 151 5 151 5 177 -2 c 128,-1,27
 203 -9 203 -9 232 -9 c 0,28,29
 253 -9 253 -9 274.5 -6 c 128,-1,30
 296 -3 296 -3 316 2.5 c 128,-1,31
 336 8 336 8 354 14.5 c 128,-1,32
 372 21 372 21 388 28 c 1,33,-1
 359 146 l 1,4,5
EndSplineSet
EndChar

StartChar: uni018F
Encoding: 399 399 318
Width: 749
GlyphClass: 1
Flags: W
LayerCount: 2
Fore
SplineSet
371 -5 m 0,0,1
 452 -5 452 -5 516.5 26 c 128,-1,2
 581 57 581 57 626.5 107.5 c 128,-1,3
 672 158 672 158 696 224.5 c 128,-1,4
 720 291 720 291 720 361 c 0,5,6
 720 427 720 427 695.5 490 c 128,-1,7
 671 553 671 553 626 603 c 128,-1,8
 581 653 581 653 516.5 683.5 c 128,-1,9
 452 714 452 714 372 714 c 0,10,11
 317 714 317 714 268.5 700.5 c 128,-1,12
 220 687 220 687 179.5 663 c 128,-1,13
 139 639 139 639 107.5 604.5 c 128,-1,14
 76 570 76 570 56 528 c 1,15,-1
 212 478 l 1,16,17
 219 501 219 501 235 519.5 c 128,-1,18
 251 538 251 538 272 551 c 128,-1,19
 293 564 293 564 318.5 571.5 c 128,-1,20
 344 579 344 579 370 579 c 0,21,22
 404 579 404 579 435.5 567 c 128,-1,23
 467 555 467 555 491.5 532.5 c 128,-1,24
 516 510 516 510 532.5 477.5 c 128,-1,25
 549 445 549 445 553 403 c 1,26,-1
 23 403 l 1,27,28
 21 392 21 392 19.5 375.5 c 128,-1,29
 18 359 18 359 18 342 c 0,30,31
 18 280 18 280 42.5 217.5 c 128,-1,32
 67 155 67 155 113 105.5 c 128,-1,33
 159 56 159 56 224 25.5 c 128,-1,34
 289 -5 289 -5 371 -5 c 0,0,1
373 129 m 0,35,36
 336 129 336 129 303.5 141 c 128,-1,37
 271 153 271 153 246.5 173.5 c 128,-1,38
 222 194 222 194 206.5 223 c 128,-1,39
 191 252 191 252 186 286 c 1,40,-1
 550 286 l 1,41,42
 547 252 547 252 532 222.5 c 128,-1,43
 517 193 517 193 493.5 172.5 c 128,-1,44
 470 152 470 152 439.5 140.5 c 128,-1,45
 409 129 409 129 373 129 c 0,35,36
EndSplineSet
EndChar

StartChar: florin
Encoding: 402 402 319
Width: 553
GlyphClass: 1
Flags: W
LayerCount: 2
Fore
SplineSet
166 -200 m 256,0,1
 205 -200 205 -200 239.5 -186 c 128,-1,2
 274 -172 274 -172 299.5 -146.5 c 128,-1,3
 325 -121 325 -121 340 -85.5 c 128,-1,4
 355 -50 355 -50 355 -7 c 2,5,-1
 355 350 l 1,6,-1
 479 350 l 1,7,-1
 479 463 l 1,8,-1
 355 463 l 1,9,-1
 355 532 l 2,10,11
 355 573 355 573 370.5 593.5 c 128,-1,12
 386 614 386 614 418 614 c 0,13,14
 435 614 435 614 455 609 c 128,-1,15
 475 604 475 604 491 597 c 1,16,-1
 519 709 l 1,17,18
 485 724 485 724 451.5 732 c 128,-1,19
 418 740 418 740 385 740 c 0,20,21
 345 740 345 740 311.5 725 c 128,-1,22
 278 710 278 710 254.5 682 c 128,-1,23
 231 654 231 654 218 615 c 128,-1,24
 205 576 205 576 205 526 c 2,25,-1
 205 463 l 1,26,-1
 138 463 l 1,27,-1
 138 350 l 1,28,-1
 205 350 l 1,29,-1
 205 -11 l 2,30,31
 205 -24 205 -24 201 -35.5 c 128,-1,32
 197 -47 197 -47 189 -54.5 c 128,-1,33
 181 -62 181 -62 170.5 -66.5 c 128,-1,34
 160 -71 160 -71 148 -71 c 0,35,36
 132 -71 132 -71 117 -65.5 c 128,-1,37
 102 -60 102 -60 92 -50 c 1,38,-1
 29 -151 l 1,39,40
 57 -175 57 -175 92 -187.5 c 128,-1,41
 127 -200 127 -200 166 -200 c 256,0,1
EndSplineSet
EndChar

StartChar: Aringacute
Encoding: 506 506 328
Width: 671
GlyphClass: 1
Flags: W
LayerCount: 2
Fore
SplineSet
3 0 m 1,0,-1
 161 0 l 1,1,-1
 219 167 l 1,2,-1
 452 167 l 1,3,-1
 511 0 l 1,4,-1
 668 0 l 1,5,-1
 417 710 l 1,6,-1
 255 710 l 1,7,-1
 3 0 l 1,0,-1
244 273 m 1,8,-1
 336 554 l 1,9,-1
 425 273 l 1,10,-1
 244 273 l 1,8,-1
228 759 m 256,11,12
 228 717 228 717 257.5 692.5 c 128,-1,13
 287 668 287 668 336 668 c 256,14,15
 385 668 385 668 414.5 692.5 c 128,-1,16
 444 717 444 717 444 759 c 256,17,18
 444 801 444 801 414.5 825.5 c 128,-1,19
 385 850 385 850 336 850 c 256,20,21
 287 850 287 850 257.5 825.5 c 128,-1,22
 228 801 228 801 228 759 c 256,11,12
336 801 m 256,23,24
 354 801 354 801 366.5 789 c 128,-1,25
 379 777 379 777 379 759 c 0,26,27
 379 742 379 742 366.5 729.5 c 128,-1,28
 354 717 354 717 336 717 c 256,29,30
 318 717 318 717 305.5 729.5 c 128,-1,31
 293 742 293 742 293 759 c 0,32,33
 293 777 293 777 305.5 789 c 128,-1,34
 318 801 318 801 336 801 c 256,23,24
503 966 m 1,35,-1
 366 966 l 1,36,-1
 299 821 l 1,37,-1
 373 821 l 1,38,-1
 503 966 l 1,35,-1
EndSplineSet
EndChar

StartChar: uni0237
Encoding: 567 567 370
Width: 264
GlyphClass: 1
Flags: W
LayerCount: 2
Fore
SplineSet
18 -200 m 0,0,1
 58 -200 58 -200 92.5 -185.5 c 128,-1,2
 127 -171 127 -171 152.5 -144 c 128,-1,3
 178 -117 178 -117 192 -80.5 c 128,-1,4
 206 -44 206 -44 206 0 c 2,5,-1
 206 524 l 1,6,-1
 57 524 l 1,7,-1
 57 -11 l 2,8,9
 57 -24 57 -24 53 -35.5 c 128,-1,10
 49 -47 49 -47 40.5 -54.5 c 128,-1,11
 32 -62 32 -62 21.5 -66.5 c 128,-1,12
 11 -71 11 -71 0 -71 c 0,13,14
 -16 -71 -16 -71 -31 -65.5 c 128,-1,15
 -46 -60 -46 -60 -56 -50 c 1,16,-1
 -119 -151 l 1,17,18
 -91 -175 -91 -175 -56 -187.5 c 128,-1,19
 -21 -200 -21 -200 18 -200 c 0,0,1
EndSplineSet
EndChar

StartChar: uni0259
Encoding: 601 601 371
Width: 602
GlyphClass: 1
Flags: W
LayerCount: 2
Fore
SplineSet
298 -10 m 256,0,1
 364 -10 364 -10 415.5 12 c 128,-1,2
 467 34 467 34 503 71.5 c 128,-1,3
 539 109 539 109 557.5 159 c 128,-1,4
 576 209 576 209 576 265 c 0,5,6
 576 319 576 319 557 368 c 128,-1,7
 538 417 538 417 502 454 c 128,-1,8
 466 491 466 491 414 512.5 c 128,-1,9
 362 534 362 534 297 534 c 0,10,11
 252 534 252 534 213 523.5 c 128,-1,12
 174 513 174 513 142.5 495 c 128,-1,13
 111 477 111 477 87 451.5 c 128,-1,14
 63 426 63 426 48 395 c 1,15,-1
 175 359 l 1,16,17
 182 374 182 374 193.5 386.5 c 128,-1,18
 205 399 205 399 220.5 407.5 c 128,-1,19
 236 416 236 416 254.5 421 c 128,-1,20
 273 426 273 426 292 426 c 0,21,22
 316 426 316 426 337.5 418 c 128,-1,23
 359 410 359 410 376.5 395 c 128,-1,24
 394 380 394 380 405 358.5 c 128,-1,25
 416 337 416 337 418 309 c 1,26,-1
 23 309 l 1,27,28
 21 299 21 299 20 286 c 128,-1,29
 19 273 19 273 19 262 c 0,30,31
 19 207 19 207 38 158 c 128,-1,32
 57 109 57 109 93 71.5 c 128,-1,33
 129 34 129 34 180.5 12 c 128,-1,34
 232 -10 232 -10 298 -10 c 256,0,1
300 97 m 256,35,36
 275 97 275 97 253.5 105.5 c 128,-1,37
 232 114 232 114 215.5 129.5 c 128,-1,38
 199 145 199 145 188.5 167.5 c 128,-1,39
 178 190 178 190 176 217 c 1,40,-1
 421 217 l 1,41,42
 418 190 418 190 408.5 168 c 128,-1,43
 399 146 399 146 383 130 c 128,-1,44
 367 114 367 114 346 105.5 c 128,-1,45
 325 97 325 97 300 97 c 256,35,36
EndSplineSet
EndChar

StartChar: uni02BE
Encoding: 702 702 376
Width: 157
GlyphClass: 1
Flags: W
LayerCount: 2
Fore
SplineSet
24 561 m 1,0,1
 74 561 74 561 103.5 585.5 c 128,-1,2
 133 610 133 610 133 652 c 256,3,4
 133 694 133 694 103.5 718.5 c 128,-1,5
 74 743 74 743 24 743 c 1,6,-1
 24 694 l 1,7,8
 43 694 43 694 55.5 682 c 128,-1,9
 68 670 68 670 68 652 c 0,10,11
 68 635 68 635 55 622.5 c 128,-1,12
 42 610 42 610 24 610 c 1,13,-1
 24 561 l 1,0,1
EndSplineSet
EndChar

StartChar: uni02BF
Encoding: 703 703 377
Width: 157
GlyphClass: 1
Flags: W
LayerCount: 2
Fore
SplineSet
133 610 m 1,0,1
 114 610 114 610 102 622.5 c 128,-1,2
 90 635 90 635 90 652 c 0,3,4
 90 670 90 670 102 682 c 128,-1,5
 114 694 114 694 133 694 c 1,6,-1
 133 743 l 1,7,8
 83 743 83 743 53.5 718.5 c 128,-1,9
 24 694 24 694 24 652 c 256,10,11
 24 610 24 610 53.5 585.5 c 128,-1,12
 83 561 83 561 133 561 c 1,13,-1
 133 610 l 1,0,1
EndSplineSet
EndChar

StartChar: uni02C8
Encoding: 712 712 380
Width: 286
GlyphClass: 1
Flags: W
LayerCount: 2
Fore
SplineSet
80 775 m 1,0,-1
 80 383 l 1,1,-1
 206 383 l 1,2,-1
 206 775 l 1,3,-1
 80 775 l 1,0,-1
EndSplineSet
EndChar

StartChar: uni02C9
Encoding: 713 713 381
Width: 424
GlyphClass: 1
Flags: W
LayerCount: 2
Fore
SplineSet
364 626 m 1,0,-1
 364 717 l 1,1,-1
 61 717 l 1,2,-1
 61 626 l 1,3,-1
 364 626 l 1,0,-1
EndSplineSet
EndChar

StartChar: uni02CA
Encoding: 714 714 382
Width: 244
GlyphClass: 1
Flags: W
LayerCount: 2
Fore
SplineSet
149 498 m 1,0,-1
 185 725 l 1,1,-1
 59 725 l 1,2,-1
 59 498 l 1,3,-1
 149 498 l 1,0,-1
EndSplineSet
EndChar

StartChar: uni02CB
Encoding: 715 715 383
Width: 244
GlyphClass: 1
Flags: W
LayerCount: 2
Fore
SplineSet
185 498 m 1,0,-1
 185 725 l 1,1,-1
 59 725 l 1,2,-1
 95 498 l 1,3,-1
 185 498 l 1,0,-1
EndSplineSet
EndChar

StartChar: uni02CC
Encoding: 716 716 384
Width: 286
GlyphClass: 1
Flags: W
LayerCount: 2
Fore
SplineSet
80 262 m 1,0,-1
 80 -130 l 1,1,-1
 206 -130 l 1,2,-1
 206 262 l 1,3,-1
 80 262 l 1,0,-1
EndSplineSet
EndChar

StartChar: tilde
Encoding: 732 732 389
Width: 444
GlyphClass: 1
Flags: W
LayerCount: 2
Fore
SplineSet
289 594 m 0,0,1
 325 594 325 594 349.5 612.5 c 128,-1,2
 374 631 374 631 389 654.5 c 128,-1,3
 404 678 404 678 410.5 700 c 128,-1,4
 417 722 417 722 417 730 c 1,5,-1
 336 730 l 1,6,7
 336 729 336 729 334.5 721 c 128,-1,8
 333 713 333 713 327.5 703.5 c 128,-1,9
 322 694 322 694 311.5 687 c 128,-1,10
 301 680 301 680 284 680 c 0,11,12
 266 680 266 680 252 687.5 c 128,-1,13
 238 695 238 695 223 704 c 128,-1,14
 208 713 208 713 191 720.5 c 128,-1,15
 174 728 174 728 151 728 c 0,16,17
 117 728 117 728 93.5 710.5 c 128,-1,18
 70 693 70 693 55.5 670 c 128,-1,19
 41 647 41 647 34.5 624.5 c 128,-1,20
 28 602 28 602 28 592 c 1,21,-1
 109 592 l 1,22,23
 109 593 109 593 110.5 600.5 c 128,-1,24
 112 608 112 608 116.5 616.5 c 128,-1,25
 121 625 121 625 130.5 632.5 c 128,-1,26
 140 640 140 640 156 640 c 0,27,28
 173 640 173 640 187.5 632.5 c 128,-1,29
 202 625 202 625 216.5 616.5 c 128,-1,30
 231 608 231 608 248.5 601 c 128,-1,31
 266 594 266 594 289 594 c 0,0,1
EndSplineSet
EndChar

StartChar: gravecomb
Encoding: 768 768 391
Width: 263
GlyphClass: 1
Flags: W
LayerCount: 2
Fore
SplineSet
36 760 m 1,0,-1
 166 600 l 1,1,-1
 239 600 l 1,2,-1
 172 760 l 1,3,-1
 36 760 l 1,0,-1
EndSplineSet
EndChar

StartChar: acutecomb
Encoding: 769 769 392
Width: 263
GlyphClass: 1
Flags: W
LayerCount: 2
Fore
SplineSet
239 760 m 1,0,-1
 103 760 l 1,1,-1
 36 600 l 1,2,-1
 109 600 l 1,3,-1
 239 760 l 1,0,-1
EndSplineSet
EndChar

StartChar: uni0302
Encoding: 770 770 393
Width: 378
GlyphClass: 1
Flags: W
LayerCount: 2
Fore
SplineSet
23 600 m 1,0,-1
 96 600 l 1,1,-1
 185 684 l 1,2,-1
 273 600 l 1,3,-1
 346 600 l 1,4,-1
 253 752 l 1,5,-1
 116 752 l 1,6,-1
 23 600 l 1,0,-1
EndSplineSet
EndChar

StartChar: tildecomb
Encoding: 771 771 394
Width: 444
GlyphClass: 1
Flags: W
LayerCount: 2
Fore
SplineSet
289 618 m 0,0,1
 325 618 325 618 349.5 636.5 c 128,-1,2
 374 655 374 655 389 678.5 c 128,-1,3
 404 702 404 702 410.5 724 c 128,-1,4
 417 746 417 746 417 754 c 1,5,-1
 336 754 l 1,6,7
 336 753 336 753 334.5 745 c 128,-1,8
 333 737 333 737 327.5 727.5 c 128,-1,9
 322 718 322 718 311.5 711 c 128,-1,10
 301 704 301 704 284 704 c 0,11,12
 266 704 266 704 252 711.5 c 128,-1,13
 238 719 238 719 223 728 c 128,-1,14
 208 737 208 737 191 744.5 c 128,-1,15
 174 752 174 752 151 752 c 0,16,17
 117 752 117 752 93.5 734.5 c 128,-1,18
 70 717 70 717 55.5 694 c 128,-1,19
 41 671 41 671 34.5 648.5 c 128,-1,20
 28 626 28 626 28 616 c 1,21,-1
 109 616 l 1,22,23
 109 617 109 617 110.5 624.5 c 128,-1,24
 112 632 112 632 116.5 640.5 c 128,-1,25
 121 649 121 649 130.5 656.5 c 128,-1,26
 140 664 140 664 156 664 c 0,27,28
 173 664 173 664 187.5 656.5 c 128,-1,29
 202 649 202 649 216.5 640.5 c 128,-1,30
 231 632 231 632 248.5 625 c 128,-1,31
 266 618 266 618 289 618 c 0,0,1
EndSplineSet
EndChar

StartChar: uni0304
Encoding: 772 772 395
Width: 424
GlyphClass: 1
Flags: W
LayerCount: 2
Fore
SplineSet
364 626 m 1,0,-1
 364 717 l 1,1,-1
 61 717 l 1,2,-1
 61 626 l 1,3,-1
 364 626 l 1,0,-1
EndSplineSet
EndChar

StartChar: uni0306
Encoding: 774 774 396
Width: 339
GlyphClass: 1
Flags: W
LayerCount: 2
Fore
SplineSet
170 654 m 0,0,1
 146 654 146 654 128 676.5 c 128,-1,2
 110 699 110 699 110 730 c 1,3,-1
 31 730 l 1,4,5
 31 699 31 699 41.5 673 c 128,-1,6
 52 647 52 647 70 628.5 c 128,-1,7
 88 610 88 610 114 599 c 128,-1,8
 140 588 140 588 170 588 c 256,9,10
 200 588 200 588 225.5 599 c 128,-1,11
 251 610 251 610 269.5 628.5 c 128,-1,12
 288 647 288 647 298 673 c 128,-1,13
 308 699 308 699 308 730 c 1,14,-1
 229 730 l 1,15,16
 226 698 226 698 209 676 c 128,-1,17
 192 654 192 654 170 654 c 0,0,1
EndSplineSet
EndChar

StartChar: uni0307
Encoding: 775 775 397
Width: 234
GlyphClass: 1
Flags: W
LayerCount: 2
Fore
SplineSet
38 666 m 0,0,1
 38 633 38 633 61 610 c 128,-1,2
 84 587 84 587 116 587 c 0,3,4
 149 587 149 587 172 610 c 128,-1,5
 195 633 195 633 195 666 c 0,6,7
 195 698 195 698 172 721 c 128,-1,8
 149 744 149 744 116 744 c 0,9,10
 84 744 84 744 61 721 c 128,-1,11
 38 698 38 698 38 666 c 0,0,1
EndSplineSet
EndChar

StartChar: uni0308
Encoding: 776 776 398
Width: 487
GlyphClass: 1
Flags: W
LayerCount: 2
Fore
SplineSet
60 660 m 0,0,1
 60 628 60 628 83 604.5 c 128,-1,2
 106 581 106 581 138 581 c 0,3,4
 171 581 171 581 194 604.5 c 128,-1,5
 217 628 217 628 217 660 c 0,6,7
 217 693 217 693 194 716 c 128,-1,8
 171 739 171 739 138 739 c 0,9,10
 106 739 106 739 83 716 c 128,-1,11
 60 693 60 693 60 660 c 0,0,1
271 660 m 0,12,13
 271 628 271 628 294 604.5 c 128,-1,14
 317 581 317 581 349 581 c 0,15,16
 382 581 382 581 405 604.5 c 128,-1,17
 428 628 428 628 428 660 c 0,18,19
 428 693 428 693 405 716 c 128,-1,20
 382 739 382 739 349 739 c 0,21,22
 317 739 317 739 294 716 c 128,-1,23
 271 693 271 693 271 660 c 0,12,13
EndSplineSet
EndChar

StartChar: hookabovecomb
Encoding: 777 777 399
Width: 600
GlyphClass: 1
Flags: W
LayerCount: 2
Fore
SplineSet
256 684 m 1,0,1
 270 697 270 697 280 703 c 128,-1,2
 290 709 290 709 304 709 c 0,3,4
 317 709 317 709 325 700.5 c 128,-1,5
 333 692 333 692 333 680 c 0,6,7
 333 667 333 667 325 655.5 c 128,-1,8
 317 644 317 644 300 631 c 1,9,-1
 337 591 l 1,10,11
 371 619 371 619 387 643.5 c 128,-1,12
 403 668 403 668 403 700 c 0,13,14
 403 733 403 733 380.5 755 c 128,-1,15
 358 777 358 777 316 777 c 0,16,17
 288 777 288 777 263 765 c 128,-1,18
 238 753 238 753 212 727 c 1,19,-1
 256 684 l 1,0,1
EndSplineSet
EndChar

StartChar: uni030A
Encoding: 778 778 400
Width: 265
GlyphClass: 1
Flags: W
LayerCount: 2
Fore
SplineSet
24 652 m 256,0,1
 24 610 24 610 53.5 585.5 c 128,-1,2
 83 561 83 561 133 561 c 0,3,4
 182 561 182 561 211.5 585.5 c 128,-1,5
 241 610 241 610 241 652 c 256,6,7
 241 694 241 694 211.5 718.5 c 128,-1,8
 182 743 182 743 133 743 c 0,9,10
 83 743 83 743 53.5 718.5 c 128,-1,11
 24 694 24 694 24 652 c 256,0,1
133 694 m 0,12,13
 151 694 151 694 163.5 682 c 128,-1,14
 176 670 176 670 176 652 c 0,15,16
 176 635 176 635 163 622.5 c 128,-1,17
 150 610 150 610 133 610 c 0,18,19
 114 610 114 610 102 622.5 c 128,-1,20
 90 635 90 635 90 652 c 0,21,22
 90 670 90 670 102 682 c 128,-1,23
 114 694 114 694 133 694 c 0,12,13
EndSplineSet
EndChar

StartChar: uni030C
Encoding: 780 780 402
Width: 378
GlyphClass: 1
Flags: W
LayerCount: 2
Fore
SplineSet
23 752 m 1,0,-1
 116 600 l 1,1,-1
 253 600 l 1,2,-1
 346 752 l 1,3,-1
 273 752 l 1,4,-1
 185 668 l 1,5,-1
 96 752 l 1,6,-1
 23 752 l 1,0,-1
EndSplineSet
EndChar

StartChar: uni0311
Encoding: 785 785 404
Width: 339
GlyphClass: 1
Flags: W
LayerCount: 2
Fore
SplineSet
169 664 m 0,0,1
 192 664 192 664 209 642.5 c 128,-1,2
 226 621 226 621 229 588 c 1,3,-1
 308 588 l 1,4,5
 308 620 308 620 298 645.5 c 128,-1,6
 288 671 288 671 269.5 690 c 128,-1,7
 251 709 251 709 225.5 719.5 c 128,-1,8
 200 730 200 730 170 730 c 0,9,10
 139 730 139 730 113.5 719.5 c 128,-1,11
 88 709 88 709 70 690 c 128,-1,12
 52 671 52 671 41.5 645 c 128,-1,13
 31 619 31 619 31 588 c 1,14,-1
 110 588 l 1,15,16
 110 619 110 619 127.5 641.5 c 128,-1,17
 145 664 145 664 169 664 c 0,0,1
EndSplineSet
EndChar

StartChar: uni0312
Encoding: 786 786 405
Width: 212
GlyphClass: 1
Flags: W
LayerCount: 2
Fore
SplineSet
16 580 m 1,0,-1
 153 580 l 1,1,-1
 216 741 l 1,2,-1
 143 741 l 1,3,-1
 16 580 l 1,0,-1
EndSplineSet
EndChar

StartChar: uni031B
Encoding: 795 795 406
Width: 317
GlyphClass: 1
Flags: W
LayerCount: 2
Fore
SplineSet
50 479 m 1,0,1
 76 479 76 479 101.5 483 c 128,-1,2
 127 487 127 487 150 493.5 c 128,-1,3
 173 500 173 500 191.5 509.5 c 128,-1,4
 210 519 210 519 221 531 c 0,5,6
 237 546 237 546 246 564 c 128,-1,7
 255 582 255 582 259 600 c 128,-1,8
 263 618 263 618 264.5 636.5 c 128,-1,9
 266 655 266 655 267 672 c 1,10,-1
 160 672 l 1,11,12
 159 652 159 652 157.5 635 c 128,-1,13
 156 618 156 618 143 605 c 0,14,15
 131 592 131 592 109 587 c 128,-1,16
 87 582 87 582 52 582 c 1,17,-1
 50 479 l 1,0,1
EndSplineSet
EndChar

StartChar: dotbelowcomb
Encoding: 803 803 407
Width: 234
GlyphClass: 1
Flags: W
LayerCount: 2
Fore
SplineSet
38 -138 m 0,0,1
 38 -171 38 -171 61.5 -194 c 128,-1,2
 85 -217 85 -217 117 -217 c 256,3,4
 149 -217 149 -217 172.5 -194 c 128,-1,5
 196 -171 196 -171 196 -138 c 0,6,7
 196 -106 196 -106 172.5 -83 c 128,-1,8
 149 -60 149 -60 117 -60 c 256,9,10
 85 -60 85 -60 61.5 -83 c 128,-1,11
 38 -106 38 -106 38 -138 c 0,0,1
EndSplineSet
EndChar

StartChar: uni0324
Encoding: 804 804 408
Width: 487
GlyphClass: 1
Flags: W
LayerCount: 2
Fore
SplineSet
266 -141 m 0,0,1
 266 -173 266 -173 289 -196.5 c 128,-1,2
 312 -220 312 -220 344 -220 c 0,3,4
 377 -220 377 -220 400 -196.5 c 128,-1,5
 423 -173 423 -173 423 -141 c 0,6,7
 423 -108 423 -108 400 -85 c 128,-1,8
 377 -62 377 -62 344 -62 c 0,9,10
 312 -62 312 -62 289 -85 c 128,-1,11
 266 -108 266 -108 266 -141 c 0,0,1
63 -141 m 0,12,13
 63 -173 63 -173 86 -196.5 c 128,-1,14
 109 -220 109 -220 141 -220 c 0,15,16
 174 -220 174 -220 197 -196.5 c 128,-1,17
 220 -173 220 -173 220 -141 c 0,18,19
 220 -108 220 -108 197 -85 c 128,-1,20
 174 -62 174 -62 141 -62 c 0,21,22
 109 -62 109 -62 86 -85 c 128,-1,23
 63 -108 63 -108 63 -141 c 0,12,13
EndSplineSet
EndChar

StartChar: uni0326
Encoding: 806 806 409
Width: 212
GlyphClass: 1
Flags: W
LayerCount: 2
Fore
SplineSet
99 -271 m 1,0,-1
 198 -47 l 1,1,-1
 71 -47 l 1,2,-1
 33 -271 l 1,3,-1
 99 -271 l 1,0,-1
EndSplineSet
EndChar

StartChar: uni0327
Encoding: 807 807 410
Width: 336
GlyphClass: 1
Flags: W
LayerCount: 2
Fore
SplineSet
39 -185 m 0,0,1
 63 -198 63 -198 91 -201.5 c 128,-1,2
 119 -205 119 -205 147 -205 c 0,3,4
 169 -205 169 -205 193 -201 c 128,-1,5
 217 -197 217 -197 236.5 -187 c 128,-1,6
 256 -177 256 -177 269 -159 c 128,-1,7
 282 -141 282 -141 282 -114 c 0,8,9
 282 -75 282 -75 255.5 -58 c 128,-1,10
 229 -41 229 -41 194 -41 c 0,11,12
 186 -41 186 -41 178.5 -41.5 c 128,-1,13
 171 -42 171 -42 164 -44 c 1,14,-1
 199 8 l 1,15,16
 196 9 196 9 188 11.5 c 128,-1,17
 180 14 180 14 171 17 c 128,-1,18
 162 20 162 20 154 22 c 128,-1,19
 146 24 146 24 142 25 c 1,20,-1
 81 -98 l 1,21,22
 102 -94 102 -94 122 -90.5 c 128,-1,23
 142 -87 142 -87 163 -87 c 0,24,25
 180 -87 180 -87 196.5 -92.5 c 128,-1,26
 213 -98 213 -98 213 -119 c 0,27,28
 213 -130 213 -130 207.5 -136 c 128,-1,29
 202 -142 202 -142 193.5 -146 c 128,-1,30
 185 -150 185 -150 175 -151 c 128,-1,31
 165 -152 165 -152 157 -152 c 0,32,33
 137 -152 137 -152 111 -147.5 c 128,-1,34
 85 -143 85 -143 68 -132 c 0,35,36
 66 -135 66 -135 61.5 -142.5 c 128,-1,37
 57 -150 57 -150 52 -158.5 c 128,-1,38
 47 -167 47 -167 43 -174.5 c 128,-1,39
 39 -182 39 -182 39 -185 c 0,0,1
EndSplineSet
EndChar

StartChar: uni0328
Encoding: 808 808 411
Width: 301
GlyphClass: 1
Flags: W
LayerCount: 2
Fore
SplineSet
66 -111 m 0,0,1
 66 -127 66 -127 73.5 -142 c 128,-1,2
 81 -157 81 -157 97 -169.5 c 128,-1,3
 113 -182 113 -182 139.5 -191 c 128,-1,4
 166 -200 166 -200 204 -204 c 1,5,-1
 233 -122 l 1,6,7
 197 -121 197 -121 178.5 -111.5 c 128,-1,8
 160 -102 160 -102 160 -84 c 256,9,10
 160 -66 160 -66 178 -45 c 128,-1,11
 196 -24 196 -24 234 1 c 1,12,-1
 218 22 l 1,13,-1
 171 22 l 1,14,15
 118 -8 118 -8 92 -42 c 128,-1,16
 66 -76 66 -76 66 -111 c 0,0,1
EndSplineSet
EndChar

StartChar: uni032E
Encoding: 814 814 412
Width: 339
GlyphClass: 1
Flags: W
LayerCount: 2
Fore
SplineSet
170 -128 m 0,0,1
 146 -128 146 -128 128 -105.5 c 128,-1,2
 110 -83 110 -83 110 -53 c 1,3,-1
 31 -53 l 1,4,5
 31 -84 31 -84 41.5 -109.5 c 128,-1,6
 52 -135 52 -135 70 -154 c 128,-1,7
 88 -173 88 -173 114 -183.5 c 128,-1,8
 140 -194 140 -194 170 -194 c 256,9,10
 200 -194 200 -194 225.5 -183.5 c 128,-1,11
 251 -173 251 -173 269.5 -154 c 128,-1,12
 288 -135 288 -135 298 -109.5 c 128,-1,13
 308 -84 308 -84 308 -53 c 1,14,-1
 229 -53 l 1,15,16
 226 -85 226 -85 209 -106.5 c 128,-1,17
 192 -128 192 -128 170 -128 c 0,0,1
EndSplineSet
EndChar

StartChar: uni0331
Encoding: 817 817 413
Width: 424
GlyphClass: 1
Flags: W
LayerCount: 2
Fore
SplineSet
364 -169 m 1,0,-1
 364 -78 l 1,1,-1
 61 -78 l 1,2,-1
 61 -169 l 1,3,-1
 364 -169 l 1,0,-1
EndSplineSet
EndChar

StartChar: uni0335
Encoding: 821 821 414
Width: 406
GlyphClass: 1
Flags: W
LayerCount: 2
Fore
SplineSet
356 245 m 1,0,-1
 356 333 l 1,1,-1
 50 333 l 1,2,-1
 50 245 l 1,3,-1
 356 245 l 1,0,-1
EndSplineSet
EndChar

StartChar: tonos
Encoding: 900 900 416
Width: 212
GlyphClass: 1
Flags: W
LayerCount: 2
Fore
SplineSet
68 825 m 1,0,-1
 42 580 l 1,1,-1
 119 569 l 1,2,-1
 172 803 l 1,3,-1
 68 825 l 1,0,-1
EndSplineSet
EndChar

StartChar: dieresistonos
Encoding: 901 901 417
Width: 542
GlyphClass: 1
Flags: W
LayerCount: 2
Fore
SplineSet
32 655 m 0,0,1
 32 621 32 621 55 598 c 128,-1,2
 78 575 78 575 112 575 c 0,3,4
 147 575 147 575 169.5 598 c 128,-1,5
 192 621 192 621 192 655 c 0,6,7
 192 690 192 690 169.5 712 c 128,-1,8
 147 734 147 734 112 734 c 0,9,10
 78 734 78 734 55 712 c 128,-1,11
 32 690 32 690 32 655 c 0,0,1
351 655 m 0,12,13
 352 621 352 621 375 598 c 128,-1,14
 398 575 398 575 432 575 c 256,15,16
 466 575 466 575 489 598 c 128,-1,17
 512 621 512 621 512 655 c 0,18,19
 512 690 512 690 489 712 c 128,-1,20
 466 734 466 734 432 734 c 256,21,22
 398 734 398 734 375 712 c 128,-1,23
 352 690 352 690 351 655 c 0,12,13
246 832 m 1,24,-1
 221 587 l 1,25,-1
 298 575 l 1,26,-1
 350 809 l 1,27,-1
 246 832 l 1,24,-1
EndSplineSet
EndChar

StartChar: Alphatonos
Encoding: 902 902 418
Width: 671
GlyphClass: 1
Flags: W
LayerCount: 2
Fore
SplineSet
3 0 m 1,0,-1
 161 0 l 1,1,-1
 219 167 l 1,2,-1
 452 167 l 1,3,-1
 511 0 l 1,4,-1
 668 0 l 1,5,-1
 417 710 l 1,6,-1
 255 710 l 1,7,-1
 3 0 l 1,0,-1
244 273 m 1,8,-1
 336 554 l 1,9,-1
 425 273 l 1,10,-1
 244 273 l 1,8,-1
146 907 m 1,11,-1
 56 676 l 1,12,-1
 135 643 l 1,13,-1
 258 828 l 1,14,-1
 146 907 l 1,11,-1
EndSplineSet
EndChar

StartChar: Epsilontonos
Encoding: 904 904 420
Width: 689
GlyphClass: 1
Flags: W
LayerCount: 2
Fore
SplineSet
313 134 m 1,0,-1
 313 299 l 1,1,-1
 601 299 l 1,2,-1
 601 424 l 1,3,-1
 313 424 l 1,4,-1
 313 576 l 1,5,-1
 647 576 l 1,6,-1
 647 710 l 1,7,-1
 160 710 l 1,8,-1
 160 0 l 1,9,-1
 656 0 l 1,10,-1
 656 134 l 1,11,-1
 313 134 l 1,0,-1
144 979 m 1,12,-1
 54 749 l 1,13,-1
 132 715 l 1,14,-1
 255 900 l 1,15,-1
 144 979 l 1,12,-1
EndSplineSet
EndChar

StartChar: Etatonos
Encoding: 905 905 421
Width: 832
GlyphClass: 1
Flags: W
LayerCount: 2
Fore
SplineSet
612 710 m 1,0,-1
 612 430 l 1,1,-1
 313 430 l 1,2,-1
 313 710 l 1,3,-1
 160 710 l 1,4,-1
 160 0 l 1,5,-1
 313 0 l 1,6,-1
 313 296 l 1,7,-1
 612 296 l 1,8,-1
 612 0 l 1,9,-1
 765 0 l 1,10,-1
 765 710 l 1,11,-1
 612 710 l 1,0,-1
69 903 m 1,12,-1
 -20 672 l 1,13,-1
 58 639 l 1,14,-1
 181 824 l 1,15,-1
 69 903 l 1,12,-1
EndSplineSet
EndChar

StartChar: Iotatonos
Encoding: 906 906 422
Width: 399
GlyphClass: 1
Flags: W
LayerCount: 2
Fore
SplineSet
305 0 m 1,0,-1
 305 710 l 1,1,-1
 152 710 l 1,2,-1
 152 0 l 1,3,-1
 305 0 l 1,0,-1
79 899 m 1,4,-1
 -10 668 l 1,5,-1
 68 635 l 1,6,-1
 191 820 l 1,7,-1
 79 899 l 1,4,-1
EndSplineSet
EndChar

StartChar: Omicrontonos
Encoding: 908 908 423
Width: 842
GlyphClass: 1
Flags: W
LayerCount: 2
Fore
SplineSet
422 -6 m 0,0,1
 499 -6 499 -6 563.5 24 c 128,-1,2
 628 54 628 54 674.5 103.5 c 128,-1,3
 721 153 721 153 747 217.5 c 128,-1,4
 773 282 773 282 773 353 c 0,5,6
 773 420 773 420 748 485 c 128,-1,7
 723 550 723 550 677.5 601 c 128,-1,8
 632 652 632 652 568 683 c 128,-1,9
 504 714 504 714 425 714 c 0,10,11
 349 714 349 714 284.5 684.5 c 128,-1,12
 220 655 220 655 173 605.5 c 128,-1,13
 126 556 126 556 99.5 491.5 c 128,-1,14
 73 427 73 427 73 356 c 0,15,16
 73 287 73 287 98 222 c 128,-1,17
 123 157 123 157 169 106.5 c 128,-1,18
 215 56 215 56 279 25 c 128,-1,19
 343 -6 343 -6 422 -6 c 0,0,1
228 354 m 0,20,21
 228 396 228 396 240.5 436 c 128,-1,22
 253 476 253 476 277.5 507.5 c 128,-1,23
 302 539 302 539 338.5 558.5 c 128,-1,24
 375 578 375 578 423 578 c 0,25,26
 469 578 469 578 505.5 559.5 c 128,-1,27
 542 541 542 541 567 510 c 128,-1,28
 592 479 592 479 605 439 c 128,-1,29
 618 399 618 399 618 356 c 0,30,31
 618 314 618 314 605.5 273.5 c 128,-1,32
 593 233 593 233 569 201.5 c 128,-1,33
 545 170 545 170 508 150.5 c 128,-1,34
 471 131 471 131 423 131 c 0,35,36
 376 131 376 131 340 149.5 c 128,-1,37
 304 168 304 168 279 199.5 c 128,-1,38
 254 231 254 231 241 271 c 128,-1,39
 228 311 228 311 228 354 c 0,20,21
86 899 m 1,40,-1
 -3 668 l 1,41,-1
 75 635 l 1,42,-1
 198 820 l 1,43,-1
 86 899 l 1,40,-1
EndSplineSet
EndChar

StartChar: Upsilontonos
Encoding: 910 910 424
Width: 728
GlyphClass: 1
Flags: W
LayerCount: 2
Fore
SplineSet
332 0 m 1,0,-1
 472 0 l 1,1,-1
 472 230 l 2,2,3
 473 299 473 299 494 356 c 128,-1,4
 515 413 515 413 547 462.5 c 128,-1,5
 579 512 579 512 619 554.5 c 128,-1,6
 659 597 659 597 696 637 c 1,7,-1
 592 713 l 1,8,9
 550 672 550 672 518.5 638 c 128,-1,10
 487 604 487 604 464.5 571.5 c 128,-1,11
 442 539 442 539 427 507 c 128,-1,12
 412 475 412 475 403 436 c 1,13,-1
 400 436 l 1,14,15
 390 475 390 475 375.5 507.5 c 128,-1,16
 361 540 361 540 339 572.5 c 128,-1,17
 317 605 317 605 286 639 c 128,-1,18
 255 673 255 673 212 713 c 1,19,-1
 109 637 l 1,20,21
 146 599 146 599 185.5 556.5 c 128,-1,22
 225 514 225 514 258 464.5 c 128,-1,23
 291 415 291 415 312 357.5 c 128,-1,24
 333 300 333 300 332 230 c 2,25,-1
 332 0 l 1,0,-1
82 899 m 1,26,-1
 -8 668 l 1,27,-1
 71 635 l 1,28,-1
 194 820 l 1,29,-1
 82 899 l 1,26,-1
EndSplineSet
EndChar

StartChar: Omegatonos
Encoding: 911 911 425
Width: 720
GlyphClass: 1
Flags: W
LayerCount: 2
Fore
SplineSet
34 0 m 1,0,-1
 318 0 l 1,1,-1
 318 225 l 1,2,3
 289 233 289 233 265.5 251 c 128,-1,4
 242 269 242 269 225 293.5 c 128,-1,5
 208 318 208 318 199 348.5 c 128,-1,6
 190 379 190 379 190 411 c 0,7,8
 190 448 190 448 202.5 479.5 c 128,-1,9
 215 511 215 511 237.5 534.5 c 128,-1,10
 260 558 260 558 291 571 c 128,-1,11
 322 584 322 584 358 584 c 256,12,13
 394 584 394 584 425 571 c 128,-1,14
 456 558 456 558 478 534.5 c 128,-1,15
 500 511 500 511 512.5 479.5 c 128,-1,16
 525 448 525 448 525 412 c 0,17,18
 525 377 525 377 515 345.5 c 128,-1,19
 505 314 505 314 488 289.5 c 128,-1,20
 471 265 471 265 447 248 c 128,-1,21
 423 231 423 231 395 225 c 1,22,-1
 395 0 l 1,23,-1
 680 0 l 1,24,-1
 680 122 l 1,25,-1
 435 122 l 1,26,-1
 497 73 l 1,27,-1
 497 197 l 1,28,-1
 453 131 l 1,29,30
 500 143 500 143 539.5 169.5 c 128,-1,31
 579 196 579 196 608.5 233.5 c 128,-1,32
 638 271 638 271 654 317.5 c 128,-1,33
 670 364 670 364 670 417 c 0,34,35
 670 481 670 481 646 536 c 128,-1,36
 622 591 622 591 580 630.5 c 128,-1,37
 538 670 538 670 481 693 c 128,-1,38
 424 716 424 716 357 716 c 256,39,40
 290 716 290 716 232.5 693 c 128,-1,41
 175 670 175 670 133.5 629.5 c 128,-1,42
 92 589 92 589 68.5 534 c 128,-1,43
 45 479 45 479 45 415 c 0,44,45
 45 364 45 364 60 318 c 128,-1,46
 75 272 75 272 102.5 234 c 128,-1,47
 130 196 130 196 168.5 169 c 128,-1,48
 207 142 207 142 254 129 c 1,49,-1
 220 197 l 1,50,-1
 220 73 l 1,51,-1
 282 122 l 1,52,-1
 35 122 l 1,53,-1
 34 0 l 1,0,-1
65 899 m 1,54,-1
 -24 668 l 1,55,-1
 54 635 l 1,56,-1
 177 820 l 1,57,-1
 65 899 l 1,54,-1
EndSplineSet
EndChar

StartChar: iotadieresistonos
Encoding: 912 912 426
Width: 402
GlyphClass: 1
Flags: W
LayerCount: 2
Fore
SplineSet
240 -8 m 0,0,1
 265 -8 265 -8 289.5 -3.5 c 128,-1,2
 314 1 314 1 332 9 c 1,3,-1
 312 131 l 1,4,5
 303 127 303 127 291 123 c 128,-1,6
 279 119 279 119 269 118 c 0,7,8
 254 119 254 119 245.5 133.5 c 128,-1,9
 237 148 237 148 237 198 c 0,10,11
 237 220 237 220 238.5 259.5 c 128,-1,12
 240 299 240 299 242.5 344.5 c 128,-1,13
 245 390 245 390 247 436.5 c 128,-1,14
 249 483 249 483 251 520 c 1,15,-1
 115 520 l 1,16,17
 114 467 114 467 113.5 420 c 128,-1,18
 113 373 113 373 112.5 328 c 128,-1,19
 112 283 112 283 111.5 239.5 c 128,-1,20
 111 196 111 196 111 152 c 0,21,22
 111 111 111 111 120 81 c 128,-1,23
 129 51 129 51 146 31 c 128,-1,24
 163 11 163 11 186.5 1.5 c 128,-1,25
 210 -8 210 -8 240 -8 c 0,0,1
-56 664 m 0,26,27
 -56 631 -56 631 -33.5 608 c 128,-1,28
 -11 585 -11 585 23 585 c 256,29,30
 57 585 57 585 79.5 608 c 128,-1,31
 102 631 102 631 102 664 c 0,32,33
 102 700 102 700 79.5 722 c 128,-1,34
 57 744 57 744 23 744 c 256,35,36
 -11 744 -11 744 -33.5 722 c 128,-1,37
 -56 700 -56 700 -56 664 c 0,26,27
260 664 m 0,38,39
 260 631 260 631 283.5 608 c 128,-1,40
 307 585 307 585 340 585 c 0,41,42
 374 585 374 585 396.5 608 c 128,-1,43
 419 631 419 631 419 664 c 0,44,45
 419 700 419 700 396.5 722 c 128,-1,46
 374 744 374 744 340 744 c 0,47,48
 307 744 307 744 283.5 722 c 128,-1,49
 260 700 260 700 260 664 c 0,38,39
156 840 m 1,50,-1
 130 597 l 1,51,-1
 207 585 l 1,52,-1
 259 817 l 1,53,-1
 156 840 l 1,50,-1
EndSplineSet
EndChar

StartChar: Gamma
Encoding: 915 915 429
Width: 502
GlyphClass: 1
Flags: W
LayerCount: 2
Fore
SplineSet
565 708 m 1,0,-1
 565 576 l 1,1,-1
 220 576 l 1,2,-1
 220 10 l 1,3,-1
 70 10 l 1,4,-1
 70 708 l 1,5,-1
 565 708 l 1,0,-1
EndSplineSet
EndChar

StartChar: uni0394
Encoding: 916 916 430
Width: 658
GlyphClass: 1
Flags: W
LayerCount: 2
Fore
SplineSet
9 0 m 1,0,-1
 649 0 l 1,1,-1
 649 22 l 1,2,-1
 419 708 l 1,3,-1
 238 708 l 1,4,-1
 9 22 l 1,5,-1
 9 0 l 1,0,-1
174 118 m 1,6,-1
 262 371 l 1,7,-1
 327 590 l 1,8,-1
 331 590 l 1,9,-1
 398 371 l 1,10,-1
 482 118 l 1,11,-1
 174 118 l 1,6,-1
EndSplineSet
EndChar

StartChar: Theta
Encoding: 920 920 434
Width: 758
GlyphClass: 1
Flags: W
LayerCount: 2
Fore
SplineSet
243 291 m 1,0,-1
 507 291 l 1,1,-1
 507 420 l 1,2,-1
 243 420 l 1,3,-1
 243 291 l 1,0,-1
372 -6 m 0,4,5
 447 -6 447 -6 510.5 23.5 c 128,-1,6
 574 53 574 53 619.5 101.5 c 128,-1,7
 665 150 665 150 691 214 c 128,-1,8
 717 278 717 278 717 347 c 0,9,10
 717 413 717 413 692.5 477 c 128,-1,11
 668 541 668 541 623 591 c 128,-1,12
 578 641 578 641 515 671.5 c 128,-1,13
 452 702 452 702 375 702 c 0,14,15
 300 702 300 702 236.5 673 c 128,-1,16
 173 644 173 644 126.5 595.5 c 128,-1,17
 80 547 80 547 54 483 c 128,-1,18
 28 419 28 419 28 350 c 0,19,20
 28 283 28 283 53 218.5 c 128,-1,21
 78 154 78 154 123 104.5 c 128,-1,22
 168 55 168 55 231 24.5 c 128,-1,23
 294 -6 294 -6 372 -6 c 0,4,5
181 348 m 0,24,25
 181 389 181 389 193 428.5 c 128,-1,26
 205 468 205 468 229.5 499 c 128,-1,27
 254 530 254 530 289.5 549 c 128,-1,28
 325 568 325 568 373 568 c 0,29,30
 418 568 418 568 453.5 550 c 128,-1,31
 489 532 489 532 513.5 501.5 c 128,-1,32
 538 471 538 471 551 431.5 c 128,-1,33
 564 392 564 392 564 350 c 0,34,35
 564 309 564 309 552 269 c 128,-1,36
 540 229 540 229 516 198 c 128,-1,37
 492 167 492 167 456 147.5 c 128,-1,38
 420 128 420 128 373 128 c 0,39,40
 327 128 327 128 291 146.5 c 128,-1,41
 255 165 255 165 230.5 196 c 128,-1,42
 206 227 206 227 193.5 266.5 c 128,-1,43
 181 306 181 306 181 348 c 0,24,25
EndSplineSet
EndChar

StartChar: Lambda
Encoding: 923 923 437
Width: 684
GlyphClass: 1
Flags: W
LayerCount: 2
Fore
SplineSet
11 0 m 1,0,-1
 153 0 l 1,1,-1
 274 368 l 1,2,-1
 340 578 l 1,3,-1
 344 578 l 1,4,-1
 411 367 l 1,5,-1
 530 0 l 1,6,-1
 673 0 l 1,7,-1
 434 708 l 1,8,-1
 250 708 l 1,9,-1
 11 0 l 1,0,-1
EndSplineSet
EndChar

StartChar: Xi
Encoding: 926 926 440
Width: 652
GlyphClass: 1
Flags: W
LayerCount: 2
Fore
SplineSet
63 0 m 1,0,-1
 588 0 l 1,1,-1
 588 118 l 1,2,-1
 63 118 l 1,3,-1
 63 0 l 1,0,-1
136 295 m 1,4,-1
 515 295 l 1,5,-1
 515 411 l 1,6,-1
 136 411 l 1,7,-1
 136 295 l 1,4,-1
63 588 m 1,8,-1
 588 588 l 1,9,-1
 588 706 l 1,10,-1
 63 706 l 1,11,-1
 63 588 l 1,8,-1
EndSplineSet
EndChar

StartChar: Pi
Encoding: 928 928 442
Width: 665
GlyphClass: 1
Flags: W
LayerCount: 2
Fore
SplineSet
72 0 m 1,0,-1
 213 0 l 1,1,-1
 213 588 l 1,2,-1
 452 588 l 1,3,-1
 452 0 l 1,4,-1
 592 0 l 1,5,-1
 592 706 l 1,6,-1
 72 706 l 1,7,-1
 72 0 l 1,0,-1
EndSplineSet
EndChar

StartChar: Sigma
Encoding: 931 931 444
Width: 568
GlyphClass: 1
Flags: W
LayerCount: 2
Fore
SplineSet
50 0 m 1,0,-1
 522 0 l 1,1,-1
 522 118 l 1,2,-1
 240 118 l 1,3,-1
 422 361 l 1,4,-1
 242 588 l 1,5,-1
 504 588 l 1,6,-1
 504 706 l 1,7,-1
 53 706 l 1,8,-1
 53 622 l 1,9,-1
 274 358 l 1,10,-1
 50 83 l 1,11,-1
 50 0 l 1,0,-1
EndSplineSet
EndChar

StartChar: Upsilon
Encoding: 933 933 446
Width: 638
GlyphClass: 1
Flags: W
LayerCount: 2
Fore
SplineSet
249 0 m 1,0,-1
 389 0 l 1,1,-1
 389 230 l 2,2,3
 390 299 390 299 411 356 c 128,-1,4
 432 413 432 413 464 462.5 c 128,-1,5
 496 512 496 512 536 554.5 c 128,-1,6
 576 597 576 597 613 637 c 1,7,-1
 509 713 l 1,8,9
 467 672 467 672 435.5 638 c 128,-1,10
 404 604 404 604 381.5 571.5 c 128,-1,11
 359 539 359 539 344 507 c 128,-1,12
 329 475 329 475 320 436 c 1,13,-1
 317 436 l 1,14,15
 307 475 307 475 292.5 507.5 c 128,-1,16
 278 540 278 540 256 572.5 c 128,-1,17
 234 605 234 605 203 639 c 128,-1,18
 172 673 172 673 129 713 c 1,19,-1
 26 637 l 1,20,21
 63 599 63 599 102.5 556.5 c 128,-1,22
 142 514 142 514 175 464.5 c 128,-1,23
 208 415 208 415 229 357.5 c 128,-1,24
 250 300 250 300 249 230 c 2,25,-1
 249 0 l 1,0,-1
EndSplineSet
EndChar

StartChar: Phi
Encoding: 934 934 447
Width: 755
GlyphClass: 1
Flags: W
LayerCount: 2
Fore
SplineSet
354 186 m 1,0,1
 314 186 314 186 281 198.5 c 128,-1,2
 248 211 248 211 224 233.5 c 128,-1,3
 200 256 200 256 186.5 286.5 c 128,-1,4
 173 317 173 317 173 355 c 256,5,6
 173 393 173 393 186.5 424 c 128,-1,7
 200 455 200 455 224 477 c 128,-1,8
 248 499 248 499 281 511.5 c 128,-1,9
 314 524 314 524 354 524 c 1,10,-1
 354 639 l 1,11,12
 284 639 284 639 227 618.5 c 128,-1,13
 170 598 170 598 129 560.5 c 128,-1,14
 88 523 88 523 65.5 470.5 c 128,-1,15
 43 418 43 418 43 355 c 0,16,17
 43 291 43 291 65.5 239 c 128,-1,18
 88 187 88 187 129 149.5 c 128,-1,19
 170 112 170 112 227 91.5 c 128,-1,20
 284 71 284 71 354 71 c 1,21,-1
 354 186 l 1,0,1
443 -31 m 1,22,-1
 443 738 l 1,23,-1
 313 738 l 1,24,-1
 313 -31 l 1,25,-1
 443 -31 l 1,22,-1
406 71 m 1,26,27
 476 71 476 71 533 91.5 c 128,-1,28
 590 112 590 112 629.5 149.5 c 128,-1,29
 669 187 669 187 691 239 c 128,-1,30
 713 291 713 291 713 355 c 0,31,32
 713 418 713 418 691 470.5 c 128,-1,33
 669 523 669 523 629.5 560.5 c 128,-1,34
 590 598 590 598 533 618.5 c 128,-1,35
 476 639 476 639 406 639 c 1,36,-1
 406 524 l 1,37,38
 446 524 446 524 478 511.5 c 128,-1,39
 510 499 510 499 533.5 477 c 128,-1,40
 557 455 557 455 569.5 424 c 128,-1,41
 582 393 582 393 582 355 c 256,42,43
 582 317 582 317 569.5 286.5 c 128,-1,44
 557 256 557 256 533.5 233.5 c 128,-1,45
 510 211 510 211 478 198.5 c 128,-1,46
 446 186 446 186 406 186 c 1,47,-1
 406 71 l 1,26,27
EndSplineSet
EndChar

StartChar: Psi
Encoding: 936 936 449
Width: 795
GlyphClass: 1
Flags: W
LayerCount: 2
Fore
SplineSet
332 0 m 1,0,-1
 463 0 l 1,1,-1
 463 708 l 1,2,-1
 332 708 l 1,3,-1
 332 0 l 1,0,-1
76 439 m 2,4,5
 76 383 76 383 91 335 c 128,-1,6
 106 287 106 287 140 252 c 128,-1,7
 174 217 174 217 228 196 c 128,-1,8
 282 175 282 175 359 175 c 1,9,-1
 352 284 l 1,10,11
 310 284 310 284 281.5 295.5 c 128,-1,12
 253 307 253 307 236 327 c 128,-1,13
 219 347 219 347 212 373.5 c 128,-1,14
 205 400 205 400 205 429 c 0,15,16
 205 445 205 445 206 462.5 c 128,-1,17
 207 480 207 480 207.5 499 c 128,-1,18
 208 518 208 518 208 538 c 128,-1,19
 208 558 208 558 208 577 c 0,20,21
 209 615 209 615 207.5 650.5 c 128,-1,22
 206 686 206 686 196 708 c 1,23,-1
 63 708 l 1,24,25
 68 684 68 684 71 661.5 c 128,-1,26
 74 639 74 639 75 618 c 128,-1,27
 76 597 76 597 76 578.5 c 128,-1,28
 76 560 76 560 76 545 c 2,29,-1
 76 439 l 2,4,5
717 545 m 2,30,31
 718 562 718 562 718 581 c 128,-1,32
 718 600 718 600 719 620.5 c 128,-1,33
 720 641 720 641 722.5 662.5 c 128,-1,34
 725 684 725 684 730 708 c 1,35,-1
 597 708 l 1,36,37
 588 686 588 686 587 650 c 128,-1,38
 586 614 586 614 586 577 c 0,39,40
 586 558 586 558 586.5 538 c 128,-1,41
 587 518 587 518 587 499 c 128,-1,42
 587 480 587 480 587.5 462.5 c 128,-1,43
 588 445 588 445 588 429 c 0,44,45
 588 400 588 400 581 374 c 128,-1,46
 574 348 574 348 557.5 327.5 c 128,-1,47
 541 307 541 307 513 295.5 c 128,-1,48
 485 284 485 284 443 284 c 1,49,-1
 436 175 l 1,50,51
 513 175 513 175 567 196 c 128,-1,52
 621 217 621 217 654.5 252.5 c 128,-1,53
 688 288 688 288 703 336 c 128,-1,54
 718 384 718 384 717 439 c 2,55,-1
 717 545 l 2,30,31
EndSplineSet
EndChar

StartChar: uni03A9
Encoding: 937 937 450
Width: 715
GlyphClass: 1
Flags: W
LayerCount: 2
Fore
SplineSet
34 0 m 1,0,-1
 318 0 l 1,1,-1
 318 225 l 1,2,3
 289 233 289 233 265.5 251 c 128,-1,4
 242 269 242 269 225 293.5 c 128,-1,5
 208 318 208 318 199 348.5 c 128,-1,6
 190 379 190 379 190 411 c 0,7,8
 190 448 190 448 202.5 479.5 c 128,-1,9
 215 511 215 511 237.5 534.5 c 128,-1,10
 260 558 260 558 291 571 c 128,-1,11
 322 584 322 584 358 584 c 256,12,13
 394 584 394 584 425 571 c 128,-1,14
 456 558 456 558 478 534.5 c 128,-1,15
 500 511 500 511 512.5 479.5 c 128,-1,16
 525 448 525 448 525 412 c 0,17,18
 525 377 525 377 515 345.5 c 128,-1,19
 505 314 505 314 488 289.5 c 128,-1,20
 471 265 471 265 447 248 c 128,-1,21
 423 231 423 231 395 225 c 1,22,-1
 395 0 l 1,23,-1
 680 0 l 1,24,-1
 680 122 l 1,25,-1
 435 122 l 1,26,-1
 497 73 l 1,27,-1
 497 197 l 1,28,-1
 453 131 l 1,29,30
 500 143 500 143 539.5 169.5 c 128,-1,31
 579 196 579 196 608.5 233.5 c 128,-1,32
 638 271 638 271 654 317.5 c 128,-1,33
 670 364 670 364 670 417 c 0,34,35
 670 481 670 481 646 536 c 128,-1,36
 622 591 622 591 580 630.5 c 128,-1,37
 538 670 538 670 481 693 c 128,-1,38
 424 716 424 716 357 716 c 256,39,40
 290 716 290 716 232.5 693 c 128,-1,41
 175 670 175 670 133.5 629.5 c 128,-1,42
 92 589 92 589 68.5 534 c 128,-1,43
 45 479 45 479 45 415 c 0,44,45
 45 364 45 364 60 318 c 128,-1,46
 75 272 75 272 102.5 234 c 128,-1,47
 130 196 130 196 168.5 169 c 128,-1,48
 207 142 207 142 254 129 c 1,49,-1
 220 197 l 1,50,-1
 220 73 l 1,51,-1
 282 122 l 1,52,-1
 35 122 l 1,53,-1
 34 0 l 1,0,-1
EndSplineSet
EndChar

StartChar: Iotadieresis
Encoding: 938 938 451
Width: 351
GlyphClass: 1
Flags: W
LayerCount: 2
Fore
SplineSet
220 0 m 1,0,-1
 220 698 l 1,1,-1
 70 698 l 1,2,-1
 70 0 l 1,3,-1
 220 0 l 1,0,-1
12 832 m 0,4,5
 12 799 12 799 28.5 777 c 128,-1,6
 45 755 45 755 69 755 c 256,7,8
 93 755 93 755 110 777 c 128,-1,9
 127 799 127 799 127 832 c 0,10,11
 127 864 127 864 110 886.5 c 128,-1,12
 93 909 93 909 69 909 c 256,13,14
 45 909 45 909 28.5 886.5 c 128,-1,15
 12 864 12 864 12 832 c 0,4,5
162 832 m 0,16,17
 162 799 162 799 179 777 c 128,-1,18
 196 755 196 755 220 755 c 256,19,20
 244 755 244 755 261 777 c 128,-1,21
 278 799 278 799 278 832 c 0,22,23
 278 864 278 864 261 886.5 c 128,-1,24
 244 909 244 909 220 909 c 256,25,26
 196 909 196 909 179 886.5 c 128,-1,27
 162 864 162 864 162 832 c 0,16,17
EndSplineSet
EndChar

StartChar: alphatonos
Encoding: 940 940 453
Width: 657
GlyphClass: 1
Flags: W
LayerCount: 2
Fore
SplineSet
395 247 m 2,0,1
 389 227 389 227 380.5 204.5 c 128,-1,2
 372 182 372 182 358.5 162.5 c 128,-1,3
 345 143 345 143 324.5 130 c 128,-1,4
 304 117 304 117 274 117 c 0,5,6
 249 117 249 117 228 127 c 128,-1,7
 207 137 207 137 191 154.5 c 128,-1,8
 175 172 175 172 166 199 c 128,-1,9
 157 226 157 226 157 259 c 0,10,11
 157 294 157 294 166.5 321.5 c 128,-1,12
 176 349 176 349 192 367.5 c 128,-1,13
 208 386 208 386 228 396 c 128,-1,14
 248 406 248 406 269 406 c 0,15,16
 286 406 286 406 301.5 399.5 c 128,-1,17
 317 393 317 393 330.5 381.5 c 128,-1,18
 344 370 344 370 355 353 c 128,-1,19
 366 336 366 336 375 315.5 c 128,-1,20
 384 295 384 295 390.5 271.5 c 128,-1,21
 397 248 397 248 400 223 c 1,22,-1
 456 318 l 1,23,24
 447 370 447 370 427.5 409.5 c 128,-1,25
 408 449 408 449 381 476 c 128,-1,26
 354 503 354 503 320.5 517.5 c 128,-1,27
 287 532 287 532 251 532 c 0,28,29
 205 532 205 532 166 511 c 128,-1,30
 127 490 127 490 98.5 453 c 128,-1,31
 70 416 70 416 53.5 366 c 128,-1,32
 37 316 37 316 36 257 c 0,33,34
 37 200 37 200 54 151 c 128,-1,35
 71 102 71 102 101 67 c 128,-1,36
 131 32 131 32 172 12 c 128,-1,37
 213 -8 213 -8 261 -8 c 0,38,39
 303 -8 303 -8 339.5 7 c 128,-1,40
 376 22 376 22 405.5 47.5 c 128,-1,41
 435 73 435 73 457 108 c 128,-1,42
 479 143 479 143 492 183 c 2,43,-1
 606 524 l 1,44,-1
 484 524 l 1,45,-1
 395 247 l 2,0,1
619 106 m 1,46,-1
 598 116 l 2,47,48
 588 121 588 121 576 128 c 128,-1,49
 564 135 564 135 550.5 147 c 128,-1,50
 537 159 537 159 523.5 177.5 c 128,-1,51
 510 196 510 196 497 223 c 1,52,-1
 431 133 l 1,53,54
 436 102 436 102 445.5 79 c 128,-1,55
 455 56 455 56 468.5 40 c 128,-1,56
 482 24 482 24 499 13.5 c 128,-1,57
 516 3 516 3 534 -4 c 2,58,-1
 551 -8 l 1,59,-1
 619 106 l 1,46,-1
276 825 m 1,60,-1
 250 580 l 1,61,-1
 327 569 l 1,62,-1
 380 803 l 1,63,-1
 276 825 l 1,60,-1
EndSplineSet
EndChar

StartChar: epsilontonos
Encoding: 941 941 454
Width: 508
GlyphClass: 1
Flags: W
LayerCount: 2
Fore
SplineSet
436 140 m 1,0,1
 401 130 401 130 362.5 122 c 128,-1,2
 324 114 324 114 287 114 c 0,3,4
 233 114 233 114 203.5 129.5 c 128,-1,5
 174 145 174 145 174 169 c 0,6,7
 174 182 174 182 183 190.5 c 128,-1,8
 192 199 192 199 207 205 c 128,-1,9
 222 211 222 211 242 213 c 128,-1,10
 262 215 262 215 285 215 c 2,11,-1
 329 215 l 1,12,-1
 329 313 l 1,13,-1
 288 313 l 2,14,15
 268 314 268 314 250 317.5 c 128,-1,16
 232 321 232 321 218.5 327.5 c 128,-1,17
 205 334 205 334 197 342.5 c 128,-1,18
 189 351 189 351 189 361 c 0,19,20
 189 370 189 370 195.5 378 c 128,-1,21
 202 386 202 386 215 392 c 128,-1,22
 228 398 228 398 248 401.5 c 128,-1,23
 268 405 268 405 296 405 c 0,24,25
 314 405 314 405 332 403 c 128,-1,26
 350 401 350 401 366 398.5 c 128,-1,27
 382 396 382 396 396.5 392 c 128,-1,28
 411 388 411 388 422 383 c 1,29,-1
 460 505 l 1,30,31
 440 515 440 515 419.5 520.5 c 128,-1,32
 399 526 399 526 378 529 c 128,-1,33
 357 532 357 532 338 532.5 c 128,-1,34
 319 533 319 533 301 532 c 0,35,36
 245 533 245 533 201.5 522.5 c 128,-1,37
 158 512 158 512 128 492 c 128,-1,38
 98 472 98 472 82.5 445 c 128,-1,39
 67 418 67 418 67 385 c 0,40,41
 67 365 67 365 73 347 c 128,-1,42
 79 329 79 329 89.5 313.5 c 128,-1,43
 100 298 100 298 113.5 287.5 c 128,-1,44
 127 277 127 277 142 273 c 1,45,-1
 142 273 l 1,46,47
 123 267 123 267 105.5 254.5 c 128,-1,48
 88 242 88 242 75 225 c 128,-1,49
 62 208 62 208 54.5 187.5 c 128,-1,50
 47 167 47 167 47 145 c 0,51,52
 47 110 47 110 65.5 81 c 128,-1,53
 84 52 84 52 116 31.5 c 128,-1,54
 148 11 148 11 192.5 -0.5 c 128,-1,55
 237 -12 237 -12 287 -12 c 0,56,57
 311 -12 311 -12 336 -10 c 128,-1,58
 361 -8 361 -8 385 -4.5 c 128,-1,59
 409 -1 409 -1 430.5 3.5 c 128,-1,60
 452 8 452 8 469 13 c 1,61,-1
 436 140 l 1,0,1
271 871 m 1,62,-1
 245 626 l 1,63,-1
 322 614 l 1,64,-1
 375 848 l 1,65,-1
 271 871 l 1,62,-1
EndSplineSet
EndChar

StartChar: etatonos
Encoding: 942 942 455
Width: 626
GlyphClass: 1
Flags: W
LayerCount: 2
Fore
SplineSet
197 0 m 1,0,1
 208 95 208 95 215 175 c 128,-1,2
 222 255 222 255 221 334 c 0,3,4
 221 373 221 373 214.5 404.5 c 128,-1,5
 208 436 208 436 193.5 460 c 128,-1,6
 179 484 179 484 157 502 c 128,-1,7
 135 520 135 520 103 532 c 1,8,-1
 35 417 l 1,9,10
 51 409 51 409 61.5 397.5 c 128,-1,11
 72 386 72 386 78.5 368 c 128,-1,12
 85 350 85 350 87.5 324.5 c 128,-1,13
 90 299 90 299 90 266 c 0,14,15
 91 207 91 207 84 138 c 128,-1,16
 77 69 77 69 68 0 c 1,17,-1
 197 0 l 1,0,1
509 -205 m 1,18,19
 519 -156 519 -156 527.5 -94.5 c 128,-1,20
 536 -33 536 -33 542.5 30.5 c 128,-1,21
 549 94 549 94 552.5 155 c 128,-1,22
 556 216 556 216 556 263 c 0,23,24
 556 406 556 406 518 469 c 128,-1,25
 480 532 480 532 396 532 c 0,26,27
 365 532 365 532 335 521 c 128,-1,28
 305 510 305 510 279.5 489.5 c 128,-1,29
 254 469 254 469 233 440 c 128,-1,30
 212 411 212 411 200 375 c 1,31,-1
 217 234 l 1,32,33
 220 266 220 266 232.5 295.5 c 128,-1,34
 245 325 245 325 262.5 347.5 c 128,-1,35
 280 370 280 370 302 383 c 128,-1,36
 324 396 324 396 347 396 c 0,37,38
 389 396 389 396 408 357 c 128,-1,39
 427 318 427 318 428 225 c 0,40,41
 428 190 428 190 425 147 c 128,-1,42
 422 104 422 104 416 51.5 c 128,-1,43
 410 -1 410 -1 400 -64 c 128,-1,44
 390 -127 390 -127 377 -201 c 1,45,-1
 509 -205 l 1,18,19
329 825 m 1,46,-1
 303 580 l 1,47,-1
 380 569 l 1,48,-1
 433 803 l 1,49,-1
 329 825 l 1,46,-1
EndSplineSet
EndChar

StartChar: iotatonos
Encoding: 943 943 456
Width: 329
GlyphClass: 1
Flags: W
LayerCount: 2
Fore
SplineSet
199 -8 m 0,0,1
 224 -8 224 -8 248 -3.5 c 128,-1,2
 272 1 272 1 291 9 c 1,3,-1
 270 132 l 1,4,5
 261 128 261 128 249.5 124 c 128,-1,6
 238 120 238 120 228 119 c 0,7,8
 212 120 212 120 203.5 134.5 c 128,-1,9
 195 149 195 149 195 199 c 0,10,11
 195 223 195 223 196.5 262 c 128,-1,12
 198 301 198 301 200.5 347.5 c 128,-1,13
 203 394 203 394 205.5 440.5 c 128,-1,14
 208 487 208 487 209 524 c 1,15,-1
 72 524 l 1,16,17
 71 471 71 471 70.5 423.5 c 128,-1,18
 70 376 70 376 69.5 331 c 128,-1,19
 69 286 69 286 69 242 c 128,-1,20
 69 198 69 198 69 153 c 0,21,22
 69 112 69 112 78 81.5 c 128,-1,23
 87 51 87 51 103.5 31 c 128,-1,24
 120 11 120 11 144 1.5 c 128,-1,25
 168 -8 168 -8 199 -8 c 0,0,1
125 840 m 1,26,-1
 99 596 l 1,27,-1
 176 584 l 1,28,-1
 229 818 l 1,29,-1
 125 840 l 1,26,-1
EndSplineSet
EndChar

StartChar: upsilondieresistonos
Encoding: 944 944 457
Width: 590
GlyphClass: 1
Flags: W
LayerCount: 2
Fore
SplineSet
71 186 m 0,0,1
 71 138 71 138 87.5 101.5 c 128,-1,2
 104 65 104 65 133 40.5 c 128,-1,3
 162 16 162 16 203 4 c 128,-1,4
 244 -8 244 -8 292 -8 c 0,5,6
 351 -8 351 -8 396.5 10.5 c 128,-1,7
 442 29 442 29 473.5 66 c 128,-1,8
 505 103 505 103 521 158 c 128,-1,9
 537 213 537 213 537 285 c 0,10,11
 537 315 537 315 536.5 347 c 128,-1,12
 536 379 536 379 534.5 411 c 128,-1,13
 533 443 533 443 530 472.5 c 128,-1,14
 527 502 527 502 522 524 c 1,15,-1
 390 524 l 1,16,17
 396 489 396 489 399.5 456 c 128,-1,18
 403 423 403 423 404.5 393 c 128,-1,19
 406 363 406 363 406 336.5 c 128,-1,20
 406 310 406 310 406 287 c 0,21,22
 407 195 407 195 377.5 156 c 128,-1,23
 348 117 348 117 289 117 c 0,24,25
 269 117 269 117 252.5 121.5 c 128,-1,26
 236 126 236 126 224 136.5 c 128,-1,27
 212 147 212 147 205.5 164 c 128,-1,28
 199 181 199 181 199 206 c 0,29,30
 199 216 199 216 200 228.5 c 128,-1,31
 201 241 201 241 202 258 c 128,-1,32
 203 275 203 275 203.5 295.5 c 128,-1,33
 204 316 204 316 204 340 c 0,34,35
 204 377 204 377 202.5 404 c 128,-1,36
 201 431 201 431 198 452 c 128,-1,37
 195 473 195 473 190.5 490 c 128,-1,38
 186 507 186 507 181 524 c 1,39,-1
 53 524 l 1,40,41
 61 497 61 497 69 455 c 128,-1,42
 77 413 77 413 77 343 c 0,43,44
 77 320 77 320 76 297 c 128,-1,45
 75 274 75 274 74 253.5 c 128,-1,46
 73 233 73 233 72 215.5 c 128,-1,47
 71 198 71 198 71 186 c 0,0,1
38 655 m 0,48,49
 38 621 38 621 61 598 c 128,-1,50
 84 575 84 575 119 575 c 256,51,52
 154 575 154 575 176 598 c 128,-1,53
 198 621 198 621 198 655 c 0,54,55
 198 690 198 690 176 712 c 128,-1,56
 154 734 154 734 119 734 c 256,57,58
 84 734 84 734 61 712 c 128,-1,59
 38 690 38 690 38 655 c 0,48,49
358 655 m 0,60,61
 359 621 359 621 382.5 598 c 128,-1,62
 406 575 406 575 439 575 c 0,63,64
 474 575 474 575 496.5 598 c 128,-1,65
 519 621 519 621 519 655 c 0,66,67
 519 690 519 690 496.5 712 c 128,-1,68
 474 734 474 734 439 734 c 0,69,70
 406 734 406 734 382.5 712 c 128,-1,71
 359 690 359 690 358 655 c 0,60,61
253 832 m 1,72,-1
 227 587 l 1,73,-1
 305 575 l 1,74,-1
 357 809 l 1,75,-1
 253 832 l 1,72,-1
EndSplineSet
EndChar

StartChar: alpha
Encoding: 945 945 458
Width: 643
GlyphClass: 1
Flags: W
LayerCount: 2
Fore
SplineSet
395 247 m 2,0,1
 389 227 389 227 380.5 204.5 c 128,-1,2
 372 182 372 182 358.5 162.5 c 128,-1,3
 345 143 345 143 324.5 130 c 128,-1,4
 304 117 304 117 274 117 c 0,5,6
 249 117 249 117 228 127 c 128,-1,7
 207 137 207 137 191 154.5 c 128,-1,8
 175 172 175 172 166 199 c 128,-1,9
 157 226 157 226 157 259 c 0,10,11
 157 294 157 294 166.5 321.5 c 128,-1,12
 176 349 176 349 192 367.5 c 128,-1,13
 208 386 208 386 228 396 c 128,-1,14
 248 406 248 406 269 406 c 0,15,16
 286 406 286 406 301.5 399.5 c 128,-1,17
 317 393 317 393 330.5 381.5 c 128,-1,18
 344 370 344 370 355 353 c 128,-1,19
 366 336 366 336 375 315.5 c 128,-1,20
 384 295 384 295 390.5 271.5 c 128,-1,21
 397 248 397 248 400 223 c 1,22,-1
 456 318 l 1,23,24
 447 370 447 370 427.5 409.5 c 128,-1,25
 408 449 408 449 381 476 c 128,-1,26
 354 503 354 503 320.5 517.5 c 128,-1,27
 287 532 287 532 251 532 c 0,28,29
 205 532 205 532 166 511 c 128,-1,30
 127 490 127 490 98.5 453 c 128,-1,31
 70 416 70 416 53.5 366 c 128,-1,32
 37 316 37 316 36 257 c 0,33,34
 37 200 37 200 54 151 c 128,-1,35
 71 102 71 102 101 67 c 128,-1,36
 131 32 131 32 172 12 c 128,-1,37
 213 -8 213 -8 261 -8 c 0,38,39
 303 -8 303 -8 339.5 7 c 128,-1,40
 376 22 376 22 405.5 47.5 c 128,-1,41
 435 73 435 73 457 108 c 128,-1,42
 479 143 479 143 492 183 c 2,43,-1
 606 524 l 1,44,-1
 484 524 l 1,45,-1
 395 247 l 2,0,1
619 106 m 1,46,-1
 598 116 l 2,47,48
 588 121 588 121 576 128 c 128,-1,49
 564 135 564 135 550.5 147 c 128,-1,50
 537 159 537 159 523.5 177.5 c 128,-1,51
 510 196 510 196 497 223 c 1,52,-1
 431 133 l 1,53,54
 436 102 436 102 445.5 79 c 128,-1,55
 455 56 455 56 468.5 40 c 128,-1,56
 482 24 482 24 499 13.5 c 128,-1,57
 516 3 516 3 534 -4 c 2,58,-1
 551 -8 l 1,59,-1
 619 106 l 1,46,-1
EndSplineSet
EndChar

StartChar: beta
Encoding: 946 946 459
Width: 681
GlyphClass: 1
Flags: W
LayerCount: 2
Fore
SplineSet
189 39 m 1,0,1
 206 27 206 27 228.5 18 c 128,-1,2
 251 9 251 9 276 3 c 128,-1,3
 301 -3 301 -3 326.5 -5.5 c 128,-1,4
 352 -8 352 -8 376 -8 c 0,5,6
 431 -8 431 -8 477 11 c 128,-1,7
 523 30 523 30 556 61.5 c 128,-1,8
 589 93 589 93 607.5 134.5 c 128,-1,9
 626 176 626 176 626 221 c 0,10,11
 626 255 626 255 616 285.5 c 128,-1,12
 606 316 606 316 586 341 c 128,-1,13
 566 366 566 366 535.5 383.5 c 128,-1,14
 505 401 505 401 464 408 c 1,15,-1
 464 412 l 1,16,17
 488 425 488 425 505.5 444 c 128,-1,18
 523 463 523 463 535 486.5 c 128,-1,19
 547 510 547 510 553 535.5 c 128,-1,20
 559 561 559 561 559 587 c 0,21,22
 559 624 559 624 542.5 656.5 c 128,-1,23
 526 689 526 689 496.5 713 c 128,-1,24
 467 737 467 737 427 750.5 c 128,-1,25
 387 764 387 764 340 763 c 0,26,27
 280 764 280 764 232 741.5 c 128,-1,28
 184 719 184 719 150.5 678.5 c 128,-1,29
 117 638 117 638 98.5 583 c 128,-1,30
 80 528 80 528 80 464 c 2,31,-1
 80 -206 l 1,32,-1
 218 -206 l 1,33,34
 213 -110 213 -110 208 -49 c 128,-1,35
 203 12 203 12 197 44 c 1,36,-1
 198 144 l 2,37,38
 201 186 201 186 202.5 220.5 c 128,-1,39
 204 255 204 255 205 290.5 c 128,-1,40
 206 326 206 326 206 369 c 128,-1,41
 206 412 206 412 206 472 c 0,42,43
 206 510 206 510 214.5 542 c 128,-1,44
 223 574 223 574 239 597 c 128,-1,45
 255 620 255 620 279 632.5 c 128,-1,46
 303 645 303 645 333 644 c 0,47,48
 355 645 355 645 374 638 c 128,-1,49
 393 631 393 631 406 618.5 c 128,-1,50
 419 606 419 606 426 589 c 128,-1,51
 433 572 433 572 433 553 c 0,52,53
 433 532 433 532 423.5 513 c 128,-1,54
 414 494 414 494 396 478.5 c 128,-1,55
 378 463 378 463 353.5 452.5 c 128,-1,56
 329 442 329 442 299 438 c 1,57,-1
 299 345 l 1,58,59
 301 346 301 346 307.5 347 c 128,-1,60
 314 348 314 348 322.5 348.5 c 128,-1,61
 331 349 331 349 340 349 c 128,-1,62
 349 349 349 349 357 348 c 0,63,64
 389 349 389 349 417 340.5 c 128,-1,65
 445 332 445 332 465.5 316 c 128,-1,66
 486 300 486 300 497 278 c 128,-1,67
 508 256 508 256 508 231 c 256,68,69
 508 206 508 206 496.5 183.5 c 128,-1,70
 485 161 485 161 464.5 144.5 c 128,-1,71
 444 128 444 128 417 118.5 c 128,-1,72
 390 109 390 109 359 109 c 0,73,74
 341 109 341 109 318.5 112.5 c 128,-1,75
 296 116 296 116 273.5 123.5 c 128,-1,76
 251 131 251 131 228.5 141 c 128,-1,77
 206 151 206 151 187 166 c 1,78,-1
 189 39 l 1,0,1
EndSplineSet
EndChar

StartChar: gamma
Encoding: 947 947 460
Width: 614
GlyphClass: 1
Flags: W
LayerCount: 2
Fore
SplineSet
351 -206 m 1,0,1
 356 -96 356 -96 354.5 15.5 c 128,-1,2
 353 127 353 127 332 227 c 128,-1,3
 311 327 311 327 265 410 c 128,-1,4
 219 493 219 493 136 545 c 1,5,-1
 61 434 l 1,6,7
 101 411 101 411 129 370 c 128,-1,8
 157 329 157 329 176 277 c 128,-1,9
 195 225 195 225 205.5 164 c 128,-1,10
 216 103 216 103 221 40 c 128,-1,11
 226 -23 226 -23 225.5 -86 c 128,-1,12
 225 -149 225 -149 223 -206 c 1,13,-1
 351 -206 l 1,0,1
339 -2 m 1,14,15
 399 74 399 74 439.5 139 c 128,-1,16
 480 204 480 204 508 266 c 128,-1,17
 536 328 536 328 554.5 390.5 c 128,-1,18
 573 453 573 453 590 524 c 1,19,-1
 448 524 l 1,20,21
 442 471 442 471 429 418.5 c 128,-1,22
 416 366 416 366 398.5 318.5 c 128,-1,23
 381 271 381 271 359 229 c 128,-1,24
 337 187 337 187 310 153 c 1,25,-1
 339 -2 l 1,14,15
EndSplineSet
EndChar

StartChar: delta
Encoding: 948 948 461
Width: 607
GlyphClass: 1
Flags: W
LayerCount: 2
Fore
SplineSet
308 -8 m 0,0,1
 362 -8 362 -8 408.5 10.5 c 128,-1,2
 455 29 455 29 489 63.5 c 128,-1,3
 523 98 523 98 543 146 c 128,-1,4
 563 194 563 194 563 254 c 0,5,6
 563 311 563 311 545.5 353.5 c 128,-1,7
 528 396 528 396 502.5 427 c 128,-1,8
 477 458 477 458 447 479.5 c 128,-1,9
 417 501 417 501 391 516 c 0,10,11
 369 530 369 530 345 543 c 128,-1,12
 321 556 321 556 301.5 568.5 c 128,-1,13
 282 581 282 581 269 594 c 128,-1,14
 256 607 256 607 257 620 c 0,15,16
 256 634 256 634 270.5 642 c 128,-1,17
 285 650 285 650 313 650 c 0,18,19
 336 650 336 650 363 644 c 128,-1,20
 390 638 390 638 417.5 627 c 128,-1,21
 445 616 445 616 471.5 600 c 128,-1,22
 498 584 498 584 522 565 c 1,23,-1
 579 665 l 1,24,25
 558 682 558 682 528 699.5 c 128,-1,26
 498 717 498 717 462.5 730.5 c 128,-1,27
 427 744 427 744 387 752.5 c 128,-1,28
 347 761 347 761 304 761 c 0,29,30
 218 762 218 762 169.5 727 c 128,-1,31
 121 692 121 692 121 631 c 0,32,33
 121 596 121 596 137 569 c 128,-1,34
 153 542 153 542 178 520.5 c 128,-1,35
 203 499 203 499 235 481 c 128,-1,36
 267 463 267 463 298 444 c 0,37,38
 327 426 327 426 353.5 407.5 c 128,-1,39
 380 389 380 389 399.5 367.5 c 128,-1,40
 419 346 419 346 431 319 c 128,-1,41
 443 292 443 292 444 259 c 0,42,43
 443 225 443 225 431.5 199 c 128,-1,44
 420 173 420 173 401 154.5 c 128,-1,45
 382 136 382 136 357 126.5 c 128,-1,46
 332 117 332 117 304 117 c 256,47,48
 276 117 276 117 250 127.5 c 128,-1,49
 224 138 224 138 204.5 156 c 128,-1,50
 185 174 185 174 173 199.5 c 128,-1,51
 161 225 161 225 161 255 c 0,52,53
 161 286 161 286 172.5 313 c 128,-1,54
 184 340 184 340 204 360.5 c 128,-1,55
 224 381 224 381 251.5 392.5 c 128,-1,56
 279 404 279 404 311 404 c 0,57,58
 336 404 336 404 364 396.5 c 128,-1,59
 392 389 392 389 410 373 c 1,60,-1
 349 482 l 1,61,62
 336 489 336 489 312.5 493.5 c 128,-1,63
 289 498 289 498 264 498 c 0,64,65
 215 498 215 498 174 478.5 c 128,-1,66
 133 459 133 459 103.5 425.5 c 128,-1,67
 74 392 74 392 58 348 c 128,-1,68
 42 304 42 304 42 255 c 0,69,70
 42 203 42 203 61.5 155.5 c 128,-1,71
 81 108 81 108 116 71.5 c 128,-1,72
 151 35 151 35 200 13.5 c 128,-1,73
 249 -8 249 -8 308 -8 c 0,0,1
EndSplineSet
EndChar

StartChar: epsilon
Encoding: 949 949 462
Width: 503
GlyphClass: 1
Flags: W
LayerCount: 2
Fore
SplineSet
436 140 m 1,0,1
 401 130 401 130 362.5 122 c 128,-1,2
 324 114 324 114 287 114 c 0,3,4
 233 114 233 114 203.5 129.5 c 128,-1,5
 174 145 174 145 174 169 c 0,6,7
 174 182 174 182 183 190.5 c 128,-1,8
 192 199 192 199 207 205 c 128,-1,9
 222 211 222 211 242 213 c 128,-1,10
 262 215 262 215 285 215 c 2,11,-1
 329 215 l 1,12,-1
 329 313 l 1,13,-1
 288 313 l 2,14,15
 268 314 268 314 250 317.5 c 128,-1,16
 232 321 232 321 218.5 327.5 c 128,-1,17
 205 334 205 334 197 342.5 c 128,-1,18
 189 351 189 351 189 361 c 0,19,20
 189 370 189 370 195.5 378 c 128,-1,21
 202 386 202 386 215 392 c 128,-1,22
 228 398 228 398 248 401.5 c 128,-1,23
 268 405 268 405 296 405 c 0,24,25
 314 405 314 405 332 403 c 128,-1,26
 350 401 350 401 366 398.5 c 128,-1,27
 382 396 382 396 396.5 392 c 128,-1,28
 411 388 411 388 422 383 c 1,29,-1
 460 505 l 1,30,31
 440 515 440 515 419.5 520.5 c 128,-1,32
 399 526 399 526 378 529 c 128,-1,33
 357 532 357 532 338 532.5 c 128,-1,34
 319 533 319 533 301 532 c 0,35,36
 245 533 245 533 201.5 522.5 c 128,-1,37
 158 512 158 512 128 492 c 128,-1,38
 98 472 98 472 82.5 445 c 128,-1,39
 67 418 67 418 67 385 c 0,40,41
 67 365 67 365 73 347 c 128,-1,42
 79 329 79 329 89.5 313.5 c 128,-1,43
 100 298 100 298 113.5 287.5 c 128,-1,44
 127 277 127 277 142 273 c 1,45,-1
 142 273 l 1,46,47
 123 267 123 267 105.5 254.5 c 128,-1,48
 88 242 88 242 75 225 c 128,-1,49
 62 208 62 208 54.5 187.5 c 128,-1,50
 47 167 47 167 47 145 c 0,51,52
 47 110 47 110 65.5 81 c 128,-1,53
 84 52 84 52 116 31.5 c 128,-1,54
 148 11 148 11 192.5 -0.5 c 128,-1,55
 237 -12 237 -12 287 -12 c 0,56,57
 311 -12 311 -12 336 -10 c 128,-1,58
 361 -8 361 -8 385 -4.5 c 128,-1,59
 409 -1 409 -1 430.5 3.5 c 128,-1,60
 452 8 452 8 469 13 c 1,61,-1
 436 140 l 1,0,1
EndSplineSet
EndChar

StartChar: zeta
Encoding: 950 950 463
Width: 530
GlyphClass: 1
Flags: W
LayerCount: 2
Fore
SplineSet
334 -202 m 0,0,1
 374 -202 374 -202 409 -188 c 128,-1,2
 444 -174 444 -174 470.5 -150 c 128,-1,3
 497 -126 497 -126 512 -92 c 128,-1,4
 527 -58 527 -58 527 -18 c 0,5,6
 527 13 527 13 517.5 38 c 128,-1,7
 508 63 508 63 490 81.5 c 128,-1,8
 472 100 472 100 447.5 110 c 128,-1,9
 423 120 423 120 394 120 c 0,10,11
 377 120 377 120 351 117.5 c 128,-1,12
 325 115 325 115 297 115 c 0,13,14
 281 115 281 115 260.5 117.5 c 128,-1,15
 240 120 240 120 221.5 129 c 128,-1,16
 203 138 203 138 191 157 c 128,-1,17
 179 176 179 176 179 207 c 0,18,19
 180 240 180 240 194 278.5 c 128,-1,20
 208 317 208 317 231 357.5 c 128,-1,21
 254 398 254 398 285 438.5 c 128,-1,22
 316 479 316 479 350 514.5 c 128,-1,23
 384 550 384 550 419 580 c 128,-1,24
 454 610 454 610 486 629 c 1,25,-1
 482 719 l 1,26,-1
 311 719 l 2,27,28
 302 719 302 719 290.5 719.5 c 128,-1,29
 279 720 279 720 269 723.5 c 128,-1,30
 259 727 259 727 252.5 734.5 c 128,-1,31
 246 742 246 742 246 753 c 0,32,33
 246 762 246 762 249 775 c 128,-1,34
 252 788 252 788 258 797 c 1,35,-1
 149 839 l 1,36,37
 134 813 134 813 127 792.5 c 128,-1,38
 120 772 120 772 118 748 c 0,39,40
 120 688 120 688 166.5 654 c 128,-1,41
 213 620 213 620 293 620 c 2,42,-1
 367 620 l 1,43,-1
 329 666 l 1,44,45
 278 625 278 625 227.5 570.5 c 128,-1,46
 177 516 177 516 138 454.5 c 128,-1,47
 99 393 99 393 75 326.5 c 128,-1,48
 51 260 51 260 51 194 c 0,49,50
 51 135 51 135 70.5 96 c 128,-1,51
 90 57 90 57 120.5 34 c 128,-1,52
 151 11 151 11 189.5 1.5 c 128,-1,53
 228 -8 228 -8 264 -8 c 0,54,55
 280 -8 280 -8 296 -7.5 c 128,-1,56
 312 -7 312 -7 327 -6 c 128,-1,57
 342 -5 342 -5 354 -4 c 128,-1,58
 366 -3 366 -3 373 -3 c 0,59,60
 392 -3 392 -3 400.5 -13 c 128,-1,61
 409 -23 409 -23 408 -33 c 0,62,63
 409 -44 409 -44 401.5 -53 c 128,-1,64
 394 -62 394 -62 381 -69 c 128,-1,65
 368 -76 368 -76 349 -79.5 c 128,-1,66
 330 -83 330 -83 307 -83 c 0,67,68
 288 -83 288 -83 269.5 -81 c 128,-1,69
 251 -79 251 -79 239 -77 c 1,70,-1
 239 -192 l 1,71,72
 270 -197 270 -197 294.5 -199.5 c 128,-1,73
 319 -202 319 -202 334 -202 c 0,0,1
EndSplineSet
EndChar

